FontWithASyntaxHighlighter-Light.ufo
<glyph name="quotedbl" format="2">
  <advance width="1240"/>
  <unicode hex="0022"/>
  <outline>
    <contour>
      <point x="409" y="820" type="line"/>
      <point x="421" y="1460" type="line"/>
      <point x="295" y="1460" type="line"/>
      <point x="309" y="820" type="line"/>
    </contour>
    <contour>
      <point x="933" y="820" type="line"/>
      <point x="945" y="1460" type="line"/>
      <point x="819" y="1460" type="line"/>
      <point x="833" y="820" type="line"/>
    </contour>
  </outline>
</glyph>
<glyph name="ampersand" format="2">
  <advance width="1240"/>
  <unicode hex="0026"/>
  <outline>
    <contour>
      <point x="918" y="726" type="line" smooth="yes"/>
      <point x="918" y="432"/>
      <point x="823" y="94"/>
      <point x="525" y="94" type="curve" smooth="yes"/>
      <point x="344" y="94"/>
      <point x="247" y="219"/>
      <point x="247" y="386" type="curve" smooth="yes"/>
      <point x="247" y="560"/>
      <point x="352" y="690"/>
      <point x="522" y="763" type="curve"/>
      <point x="461" y="833" type="line"/>
      <point x="267" y="748"/>
      <point x="110" y="601"/>
      <point x="110" y="365" type="curve" smooth="yes"/>
      <point x="110" y="143"/>
      <point x="248" y="-24"/>
      <point x="510" y="-24" type="curve" smooth="yes"/>
      <point x="899" y="-24"/>
      <point x="1025" y="349"/>
      <point x="1039" y="746" type="curve"/>
      <point x="993" y="708" type="line"/>
      <point x="1169" y="708" type="line"/>
      <point x="1169" y="818" type="line"/>
      <point x="918" y="818" type="line"/>
    </contour>
    <contour>
      <point x="941" y="1232" type="line"/>
      <point x="874" y="1403"/>
      <point x="767" y="1483"/>
      <point x="583" y="1483" type="curve" smooth="yes"/>
      <point x="353" y="1483"/>
      <point x="220" y="1358"/>
      <point x="220" y="1156" type="curve" smooth="yes"/>
      <point x="220" y="948"/>
      <point x="362" y="808"/>
      <point x="487" y="657" type="curve" smooth="yes"/>
      <point x="1031" y="0" type="line"/>
      <point x="1190" y="0" type="line"/>
      <point x="587" y="734" type="line" smooth="yes"/>
      <point x="488" y="855"/>
      <point x="352" y="1001"/>
      <point x="352" y="1156" type="curve" smooth="yes"/>
      <point x="352" y="1283"/>
      <point x="444" y="1370"/>
      <point x="583" y="1370" type="curve" smooth="yes"/>
      <point x="711" y="1370"/>
      <point x="775" y="1296"/>
      <point x="823" y="1191" type="curve"/>
    </contour>
  </outline>
</glyph>
<glyph name="quotesingle" format="2">
  <advance width="1240"/>
  <unicode hex="0027"/>
  <outline>
    <contour>
      <point x="671" y="820" type="line"/>
      <point x="683" y="1460" type="line"/>
      <point x="557" y="1460" type="line"/>
      <point x="571" y="820" type="line"/>
    </contour>
  </outline>
</glyph>
<glyph name="comma" format="2">
  <advance width="1240"/>
  <unicode hex="002C"/>
  <outline>
    <contour>
      <point x="626" y="-32" type="curve" smooth="yes"/>
      <point x="648" y="-32"/>
      <point x="674" y="-29"/>
      <point x="703" y="-17" type="curve"/>
      <point x="685" y="5" type="line"/>
      <point x="664" y="-122"/>
      <point x="581" y="-236"/>
      <point x="455" y="-358" type="curve"/>
      <point x="525" y="-418" type="line"/>
      <point x="666" y="-293"/>
      <point x="795" y="-112"/>
      <point x="795" y="71" type="curve" smooth="yes"/>
      <point x="795" y="216"/>
      <point x="714" y="279"/>
      <point x="620" y="279" type="curve" smooth="yes"/>
      <point x="533" y="279"/>
      <point x="462" y="225"/>
      <point x="462" y="125" type="curve" smooth="yes"/>
      <point x="462" y="29"/>
      <point x="527" y="-32"/>
    </contour>
  </outline>
</glyph>
<glyph name="period" format="2">
  <advance width="1240"/>
  <unicode hex="002E"/>
  <outline>
    <contour>
      <point x="620" y="-31" type="curve" smooth="yes"/>
      <point x="709" y="-31"/>
      <point x="779" y="27"/>
      <point x="779" y="124" type="curve" smooth="yes"/>
      <point x="779" y="223"/>
      <point x="709" y="279"/>
      <point x="620" y="279" type="curve" smooth="yes"/>
      <point x="532" y="279"/>
      <point x="462" y="223"/>
      <point x="462" y="124" type="curve" smooth="yes"/>
      <point x="462" y="27"/>
      <point x="532" y="-31"/>
    </contour>
  </outline>
</glyph>
<glyph name="seven" format="2">
  <advance width="1240"/>
  <unicode hex="0037"/>
  <outline>
    <contour>
      <point x="423" y="0" type="line"/>
      <point x="543" y="0" type="line"/>
      <point x="543" y="340" type="line"/>
      <point x="1105" y="1353" type="line"/>
      <point x="1045" y="1460" type="line"/>
      <point x="114" y="1460" type="line"/>
      <point x="94" y="1350" type="line"/>
      <point x="1031" y="1350" type="line"/>
      <point x="996" y="1405" type="line"/>
      <point x="423" y="386" type="line"/>
    </contour>
  </outline>
</glyph>
<glyph name="semicolon" format="2">
  <advance width="1240"/>
  <unicode hex="003B"/>
  <outline>
    <contour>
      <point x="626" y="-32" type="curve" smooth="yes"/>
      <point x="648" y="-32"/>
      <point x="674" y="-29"/>
      <point x="703" y="-17" type="curve"/>
      <point x="685" y="5" type="line"/>
      <point x="664" y="-122"/>
      <point x="581" y="-236"/>
      <point x="455" y="-358" type="curve"/>
      <point x="525" y="-418" type="line"/>
      <point x="666" y="-293"/>
      <point x="795" y="-112"/>
      <point x="795" y="71" type="curve" smooth="yes"/>
      <point x="795" y="216"/>
      <point x="714" y="279"/>
      <point x="620" y="279" type="curve" smooth="yes"/>
      <point x="533" y="279"/>
      <point x="462" y="225"/>
      <point x="462" y="125" type="curve" smooth="yes"/>
      <point x="462" y="29"/>
      <point x="527" y="-32"/>
    </contour>
    <contour>
      <point x="620" y="753" type="curve" smooth="yes"/>
      <point x="709" y="753"/>
      <point x="779" y="811"/>
      <point x="779" y="908" type="curve" smooth="yes"/>
      <point x="779" y="1007"/>
      <point x="709" y="1063"/>
      <point x="620" y="1063" type="curve" smooth="yes"/>
      <point x="532" y="1063"/>
      <point x="462" y="1007"/>
      <point x="462" y="908" type="curve" smooth="yes"/>
      <point x="462" y="811"/>
      <point x="532" y="753"/>
    </contour>
  </outline>
</glyph>
<glyph name="equal" format="2">
  <advance width="1240"/>
  <unicode hex="003D"/>
  <outline>
    <contour>
      <point x="170" y="855" type="line"/>
      <point x="1070" y="855" type="line"/>
      <point x="1070" y="965" type="line"/>
      <point x="170" y="965" type="line"/>
    </contour>
    <contour>
      <point x="170" y="325" type="line"/>
      <point x="1070" y="325" type="line"/>
      <point x="1070" y="435" type="line"/>
      <point x="170" y="435" type="line"/>
    </contour>
  </outline>
</glyph>
<glyph name="at" format="2">
  <advance width="1240"/>
  <unicode hex="0040"/>
  <outline>
    <contour>
      <point x="980" y="181" type="line"/>
      <point x="985" y="181" type="line"/>
      <point x="985" y="65"/>
      <point x="1001" y="-24"/>
      <point x="1113" y="-24" type="curve" smooth="yes"/>
      <point x="1142" y="-24"/>
      <point x="1168" y="-18"/>
      <point x="1189" y="-6" type="curve"/>
      <point x="1189" y="90" type="line"/>
      <point x="1123" y="68"/>
      <point x="1106" y="86"/>
      <point x="1106" y="199" type="curve" smooth="yes"/>
      <point x="1106" y="859" type="line" smooth="yes"/>
      <point x="1106" y="1291"/>
      <point x="928" y="1434"/>
      <point x="655" y="1434" type="curve" smooth="yes"/>
      <point x="305" y="1434"/>
      <point x="106" y="1203"/>
      <point x="106" y="734" type="curve" smooth="yes"/>
      <point x="106" y="260" type="line" smooth="yes"/>
      <point x="106" y="-272"/>
      <point x="357" y="-424"/>
      <point x="708" y="-424" type="curve" smooth="yes"/>
      <point x="856" y="-424"/>
      <point x="976" y="-397"/>
      <point x="1098" y="-342" type="curve"/>
      <point x="1097" y="-219" type="line"/>
      <point x="988" y="-266"/>
      <point x="858" y="-303"/>
      <point x="708" y="-303" type="curve" smooth="yes"/>
      <point x="440" y="-303"/>
      <point x="232" y="-185"/>
      <point x="232" y="255" type="curve" smooth="yes"/>
      <point x="232" y="745" type="line" smooth="yes"/>
      <point x="232" y="1131"/>
      <point x="383" y="1313"/>
      <point x="655" y="1313" type="curve" smooth="yes"/>
      <point x="858" y="1313"/>
      <point x="980" y="1211"/>
      <point x="980" y="897" type="curve" smooth="yes"/>
    </contour>
    <contour>
      <point x="470" y="419" type="line" smooth="yes"/>
      <point x="470" y="88"/>
      <point x="585" y="-24"/>
      <point x="746" y="-24" type="curve" smooth="yes"/>
      <point x="855" y="-24"/>
      <point x="909" y="27"/>
      <point x="969" y="96" type="curve"/>
      <point x="1000" y="96" type="line"/>
      <point x="1000" y="256" type="line"/>
      <point x="933" y="129"/>
      <point x="868" y="91"/>
      <point x="784" y="91" type="curve" smooth="yes"/>
      <point x="656" y="91"/>
      <point x="601" y="178"/>
      <point x="601" y="459" type="curve" smooth="yes"/>
      <point x="601" y="548" type="line" smooth="yes"/>
      <point x="601" y="832"/>
      <point x="663" y="910"/>
      <point x="786" y="910" type="curve" smooth="yes"/>
      <point x="874" y="910"/>
      <point x="940" y="870"/>
      <point x="1000" y="742" type="curve"/>
      <point x="1000" y="903" type="line"/>
      <point x="968" y="903" type="line"/>
      <point x="912" y="971"/>
      <point x="858" y="1024"/>
      <point x="746" y="1024" type="curve" smooth="yes"/>
      <point x="592" y="1024"/>
      <point x="470" y="925"/>
      <point x="470" y="589" type="curve" smooth="yes"/>
    </contour>
  </outline>
</glyph>
<glyph name="C" format="2">
  <advance width="1240"/>
  <unicode hex="0043"/>
  <outline>
    <contour>
      <point x="510" y="0" type="line"/>
      <point x="1070" y="0" type="line"/>
      <point x="1090" y="110" type="line"/>
      <point x="580" y="110" type="line"/>
      <point x="256" y="570" type="line"/>
      <point x="256" y="900" type="line"/>
      <point x="580" y="1350" type="line"/>
      <point x="1090" y="1350" type="line"/>
      <point x="1070" y="1460" type="line"/>
      <point x="510" y="1460" type="line"/>
      <point x="130" y="933" type="line"/>
      <point x="130" y="537" type="line"/>
    </contour>
  </outline>
</glyph>
<glyph name="E" format="2">
  <advance width="1240"/>
  <unicode hex="0045"/>
  <outline>
    <contour>
      <point x="343" y="0" type="line"/>
      <point x="343" y="1460" type="line"/>
      <point x="217" y="1460" type="line"/>
      <point x="217" y="0" type="line"/>
    </contour>
    <contour>
      <point x="1078" y="110" type="line"/>
      <point x="302" y="110" type="line"/>
      <point x="302" y="0" type="line"/>
      <point x="1058" y="0" type="line"/>
    </contour>
    <contour>
      <point x="915" y="779" type="line"/>
      <point x="302" y="779" type="line"/>
      <point x="302" y="674" type="line"/>
      <point x="915" y="674" type="line"/>
    </contour>
    <contour>
      <point x="1038" y="1350" type="line"/>
      <point x="1018" y="1460" type="line"/>
      <point x="302" y="1460" type="line"/>
      <point x="302" y="1350" type="line"/>
    </contour>
  </outline>
</glyph>
<glyph name="F" format="2">
  <advance width="1240"/>
  <unicode hex="0046"/>
  <outline>
    <contour>
      <point x="227" y="0" type="line"/>
      <point x="353" y="0" type="line"/>
      <point x="353" y="1460" type="line"/>
      <point x="227" y="1460" type="line"/>
    </contour>
    <contour>
      <point x="312" y="627" type="line"/>
      <point x="965" y="627" type="line"/>
      <point x="965" y="726" type="line"/>
      <point x="312" y="726" type="line"/>
    </contour>
    <contour>
      <point x="312" y="1360" type="line"/>
      <point x="1088" y="1360" type="line"/>
      <point x="1068" y="1460" type="line"/>
      <point x="312" y="1460" type="line"/>
    </contour>
  </outline>
</glyph>
<glyph name="H" format="2">
  <advance width="1240"/>
  <unicode hex="0048"/>
  <outline>
    <contour>
      <point x="907" y="0" type="line"/>
      <point x="1033" y="0" type="line"/>
      <point x="1033" y="1460" type="line"/>
      <point x="907" y="1460" type="line"/>
    </contour>
    <contour>
      <point x="207" y="0" type="line"/>
      <point x="333" y="0" type="line"/>
      <point x="333" y="1460" type="line"/>
      <point x="207" y="1460" type="line"/>
    </contour>
    <contour>
      <point x="276" y="709" type="line"/>
      <point x="968" y="709" type="line"/>
      <point x="968" y="810" type="line"/>
      <point x="276" y="810" type="line"/>
    </contour>
  </outline>
</glyph>
<glyph name="I" format="2">
  <advance width="1240"/>
  <unicode hex="0049"/>
  <outline>
    <contour>
      <point x="547" y="0" type="line"/>
      <point x="673" y="0" type="line"/>
      <point x="673" y="1460" type="line"/>
      <point x="547" y="1460" type="line"/>
    </contour>
    <contour>
      <point x="172" y="0" type="line"/>
      <point x="1068" y="0" type="line"/>
      <point x="1088" y="110" type="line"/>
      <point x="152" y="110" type="line"/>
    </contour>
    <contour>
      <point x="152" y="1350" type="line"/>
      <point x="1088" y="1350" type="line"/>
      <point x="1068" y="1460" type="line"/>
      <point x="172" y="1460" type="line"/>
    </contour>
  </outline>
</glyph>
<glyph name="L" format="2">
  <advance width="1240"/>
  <unicode hex="004C"/>
  <outline>
    <contour>
      <point x="207" y="0" type="line"/>
      <point x="333" y="0" type="line"/>
      <point x="333" y="1460" type="line"/>
      <point x="207" y="1460" type="line"/>
    </contour>
    <contour>
      <point x="292" y="0" type="line"/>
      <point x="1098" y="0" type="line"/>
      <point x="1118" y="110" type="line"/>
      <point x="292" y="110" type="line"/>
    </contour>
  </outline>
</glyph>
<glyph name="M" format="2">
  <advance width="1240"/>
  <unicode hex="004D"/>
  <outline>
    <contour>
      <point x="163" y="0" type="line"/>
      <point x="282" y="0" type="line"/>
      <point x="282" y="1136" type="line"/>
      <point x="293" y="1136" type="line"/>
      <point x="567" y="389" type="line"/>
      <point x="672" y="389" type="line"/>
      <point x="941" y="1136" type="line"/>
      <point x="954" y="1136" type="line"/>
      <point x="954" y="0" type="line"/>
      <point x="1077" y="0" type="line"/>
      <point x="1077" y="1459" type="line"/>
      <point x="945" y="1459" type="line"/>
      <point x="636" y="563" type="line"/>
      <point x="617" y="563" type="line"/>
      <point x="300" y="1459" type="line"/>
      <point x="163" y="1459" type="line"/>
    </contour>
  </outline>
</glyph>
<glyph name="N" format="2">
  <advance width="1240"/>
  <unicode hex="004E"/>
  <outline>
    <contour>
      <point x="207" y="0" type="line"/>
      <point x="327" y="0" type="line"/>
      <point x="327" y="1240" type="line"/>
      <point x="339" y="1240" type="line"/>
      <point x="888" y="1" type="line"/>
      <point x="1033" y="1" type="line"/>
      <point x="1033" y="1461" type="line"/>
      <point x="913" y="1461" type="line"/>
      <point x="913" y="264" type="line"/>
      <point x="901" y="264" type="line"/>
      <point x="367" y="1460" type="line"/>
      <point x="207" y="1460" type="line"/>
    </contour>
  </outline>
</glyph>
<glyph name="T" format="2">
  <advance width="1240"/>
  <unicode hex="0054"/>
  <outline>
    <contour>
      <point x="547" y="0" type="line"/>
      <point x="673" y="0" type="line"/>
      <point x="673" y="1460" type="line"/>
      <point x="547" y="1460" type="line"/>
    </contour>
    <contour>
      <point x="102" y="1350" type="line"/>
      <point x="1138" y="1350" type="line"/>
      <point x="1123" y="1460" type="line"/>
      <point x="117" y="1460" type="line"/>
    </contour>
  </outline>
</glyph>
<glyph name="Y" format="2">
  <advance width="1240"/>
  <unicode hex="0059"/>
  <outline>
    <contour>
      <point x="557" y="589" type="line"/>
      <point x="683" y="589" type="line"/>
      <point x="1053" y="1104" type="line"/>
      <point x="1053" y="1460" type="line"/>
      <point x="927" y="1460" type="line"/>
      <point x="927" y="1132" type="line"/>
      <point x="600" y="679" type="line"/>
      <point x="640" y="679" type="line"/>
      <point x="313" y="1136" type="line"/>
      <point x="313" y="1460" type="line"/>
      <point x="187" y="1460" type="line"/>
      <point x="187" y="1104" type="line"/>
    </contour>
    <contour>
      <point x="557" y="0" type="line"/>
      <point x="683" y="0" type="line"/>
      <point x="683" y="669" type="line"/>
      <point x="557" y="669" type="line"/>
    </contour>
  </outline>
</glyph>
<glyph name="backslash" format="2">
  <advance width="1240"/>
  <unicode hex="005C"/>
  <outline>
    <contour>
      <point x="944" y="-200" type="line"/>
      <point x="200" y="1460" type="line"/>
      <point x="336" y="1460" type="line"/>
      <point x="1080" y="-200" type="line"/>
    </contour>
  </outline>
</glyph>
<glyph name="bracketright" format="2">
  <advance width="1240"/>
  <unicode hex="005D"/>
  <outline>
    <contour>
      <point x="873" y="-400" type="line"/>
      <point x="873" y="1602" type="line"/>
      <point x="247" y="1602" type="line"/>
      <point x="247" y="1502" type="line"/>
      <point x="792" y="1502" type="line"/>
      <point x="747" y="1537" type="line"/>
      <point x="747" y="-335" type="line"/>
      <point x="792" y="-300" type="line"/>
      <point x="247" y="-300" type="line"/>
      <point x="247" y="-400" type="line"/>
    </contour>
  </outline>
</glyph>
<glyph name="asciicircum" format="2">
  <advance width="1240"/>
  <unicode hex="005E"/>
  <outline>
    <contour>
      <point x="122" y="750" type="line"/>
      <point x="218" y="696" type="line"/>
      <point x="614" y="1383" type="line"/>
      <point x="627" y="1383" type="line"/>
      <point x="1023" y="696" type="line"/>
      <point x="1119" y="750" type="line"/>
      <point x="669" y="1530" type="line"/>
      <point x="572" y="1530" type="line"/>
    </contour>
  </outline>
</glyph>
<glyph name="grave" format="2">
  <advance width="1240"/>
  <unicode hex="0060"/>
  <outline>
    <contour>
      <point x="575" y="1274" type="line"/>
      <point x="684" y="1274" type="line"/>
      <point x="462" y="1597" type="line"/>
      <point x="322" y="1597" type="line"/>
    </contour>
  </outline>
</glyph>
<glyph name="n" format="2">
  <advance width="1240"/>
  <unicode hex="006E"/>
  <outline>
    <contour>
      <point x="893" y="0" type="line"/>
      <point x="1019" y="0" type="line"/>
      <point x="1019" y="772" type="line"/>
      <point x="776" y="1023" type="line"/>
      <point x="260" y="864" type="line"/>
      <point x="260" y="782" type="line"/>
      <point x="738" y="907" type="line"/>
      <point x="893" y="737" type="line"/>
    </contour>
    <contour>
      <point x="221" y="0" type="line"/>
      <point x="345" y="0" type="line"/>
      <point x="345" y="883" type="line"/>
      <point x="308" y="1000" type="line"/>
      <point x="221" y="1000" type="line"/>
    </contour>
  </outline>
</glyph>
<glyph name="o" format="2">
  <advance width="1240"/>
  <unicode hex="006F"/>
  <outline>
    <contour>
      <point x="490" y="0" type="line"/>
      <point x="749" y="0" type="line"/>
      <point x="1080" y="330" type="line"/>
      <point x="1080" y="670" type="line"/>
      <point x="769" y="1000" type="line"/>
      <point x="490" y="1000" type="line"/>
      <point x="160" y="670" type="line"/>
      <point x="160" y="330" type="line"/>
    </contour>
    <contour>
      <point x="536" y="98" type="line"/>
      <point x="276" y="360" type="line"/>
      <point x="276" y="640" type="line"/>
      <point x="536" y="902" type="line"/>
      <point x="703" y="902" type="line"/>
      <point x="964" y="640" type="line"/>
      <point x="964" y="360" type="line"/>
      <point x="703" y="98" type="line"/>
    </contour>
  </outline>
</glyph>
<glyph name="v" format="2">
  <advance width="1240"/>
  <unicode hex="0076"/>
  <outline>
    <contour>
      <point x="557" y="0" type="line"/>
      <point x="683" y="0" type="line"/>
      <point x="1020" y="545" type="line"/>
      <point x="1020" y="1000" type="line"/>
      <point x="896" y="1000" type="line"/>
      <point x="896" y="573" type="line"/>
      <point x="602" y="90" type="line"/>
      <point x="640" y="90" type="line"/>
      <point x="346" y="577" type="line"/>
      <point x="346" y="1000" type="line"/>
      <point x="220" y="1000" type="line"/>
      <point x="220" y="545" type="line"/>
    </contour>
  </outline>
</glyph>
<glyph name="exclamdown" format="2">
  <advance width="1240"/>
  <unicode hex="00A1"/>
  <outline>
    <contour>
      <point x="567" y="451" type="line"/>
      <point x="555" y="-459" type="line"/>
      <point x="685" y="-459" type="line"/>
      <point x="671" y="451" type="line"/>
    </contour>
    <contour>
      <point x="620" y="1024.8" type="curve" smooth="yes"/>
      <point x="548.8" y="1024.8"/>
      <point x="492.8" y="978.4"/>
      <point x="492.8" y="900.8" type="curve" smooth="yes"/>
      <point x="492.8" y="821.6"/>
      <point x="548.8" y="776.8"/>
      <point x="620" y="776.8" type="curve" smooth="yes"/>
      <point x="690.4" y="776.8"/>
      <point x="746.4" y="821.6"/>
      <point x="746.4" y="900.8" type="curve" smooth="yes"/>
      <point x="746.4" y="978.4"/>
      <point x="690.4" y="1024.8"/>
    </contour>
  </outline>
</glyph>
<glyph name="brokenbar" format="2">
  <advance width="1240"/>
  <unicode hex="00A6"/>
  <outline>
    <contour>
      <point x="683" y="739" type="line"/>
      <point x="683" y="1602" type="line"/>
      <point x="557" y="1602" type="line"/>
      <point x="557" y="739" type="line"/>
    </contour>
    <contour>
      <point x="683" y="-400" type="line"/>
      <point x="683" y="463" type="line"/>
      <point x="557" y="463" type="line"/>
      <point x="557" y="-400" type="line"/>
    </contour>
  </outline>
</glyph>
<glyph name="dieresis" format="2">
  <advance width="1240"/>
  <unicode hex="00A8"/>
  <outline>
    <contour>
      <point x="373.6" y="1276" type="line"/>
      <point x="507.86" y="1406" type="line"/>
      <point x="373.6" y="1536" type="line"/>
      <point x="239.34" y="1406" type="line"/>
    </contour>
    <contour>
      <point x="866.6" y="1276" type="line"/>
      <point x="1000.86" y="1406" type="line"/>
      <point x="866.6" y="1536" type="line"/>
      <point x="732.34" y="1406" type="line"/>
    </contour>
  </outline>
</glyph>
<glyph name="logicalnot" format="2">
  <advance width="1240"/>
  <unicode hex="00AC"/>
  <outline>
    <contour>
      <point x="170" y="691" type="line"/>
      <point x="1070" y="691" type="line"/>
      <point x="1070" y="801" type="line"/>
      <point x="170" y="801" type="line"/>
    </contour>
    <contour>
      <point x="950" y="801" type="line"/>
      <point x="950" y="316" type="line"/>
      <point x="1070" y="316" type="line"/>
      <point x="1070" y="801" type="line"/>
    </contour>
  </outline>
</glyph>
<glyph name="softhyphen" format="2">
  <advance width="1240"/>
  <unicode hex="00AD"/>
  <outline>
    <contour>
      <point x="170" y="591" type="line"/>
      <point x="1070" y="591" type="line"/>
      <point x="1070" y="701" type="line"/>
      <point x="170" y="701" type="line"/>
    </contour>
  </outline>
</glyph>
<glyph name="registered" format="2">
  <advance width="1240"/>
  <unicode hex="00AE"/>
  <outline>
    <contour>
      <point x="731" y="708" type="line"/>
      <point x="646" y="671" type="line"/>
      <point x="763" y="404" type="line"/>
      <point x="885" y="404" type="line"/>
    </contour>
    <contour>
      <point x="527" y="404" type="line"/>
      <point x="527" y="1058" type="line"/>
      <point x="429" y="1058" type="line"/>
      <point x="429" y="404" type="line"/>
    </contour>
    <contour>
      <point x="471" y="703" type="line"/>
      <point x="470" y="627" type="line"/>
      <point x="578" y="627" type="line" smooth="yes"/>
      <point x="809" y="627"/>
      <point x="867" y="747"/>
      <point x="867" y="859" type="curve" smooth="yes"/>
      <point x="867" y="992"/>
      <point x="785" y="1060"/>
      <point x="645" y="1059" type="curve" smooth="yes"/>
      <point x="478" y="1058" type="line"/>
      <point x="478" y="983" type="line"/>
      <point x="625" y="983" type="line" smooth="yes"/>
      <point x="727" y="983"/>
      <point x="767" y="936"/>
      <point x="767" y="852" type="curve" smooth="yes"/>
      <point x="767" y="778"/>
      <point x="736" y="703"/>
      <point x="565" y="703" type="curve" smooth="yes"/>
    </contour>
    <contour>
      <point x="1180" y="732" type="curve" smooth="yes"/>
      <point x="1180" y="1206"/>
      <point x="946" y="1484"/>
      <point x="620" y="1484" type="curve" smooth="yes"/>
      <point x="293" y="1484"/>
      <point x="60" y="1206"/>
      <point x="60" y="732" type="curve" smooth="yes"/>
      <point x="60" y="254"/>
      <point x="293" y="-24"/>
      <point x="620" y="-24" type="curve" smooth="yes"/>
      <point x="946" y="-24"/>
      <point x="1180" y="254"/>
    </contour>
    <contour>
      <point x="1110" y="732" type="curve" smooth="yes"/>
      <point x="1110" y="281"/>
      <point x="899" y="41"/>
      <point x="620" y="41" type="curve" smooth="yes"/>
      <point x="341" y="41"/>
      <point x="130" y="281"/>
      <point x="130" y="732" type="curve" smooth="yes"/>
      <point x="130" y="1180"/>
      <point x="341" y="1419"/>
      <point x="620" y="1419" type="curve" smooth="yes"/>
      <point x="899" y="1419"/>
      <point x="1110" y="1180"/>
    </contour>
  </outline>
</glyph>
<glyph name="plusminus" format="2">
  <advance width="1240"/>
  <unicode hex="00B1"/>
  <outline>
    <contour>
      <point x="170" y="945" type="line"/>
      <point x="1070" y="945" type="line"/>
      <point x="1070" y="1055" type="line"/>
      <point x="170" y="1055" type="line"/>
    </contour>
    <contour>
      <point x="560" y="1415" type="line"/>
      <point x="560" y="585" type="line"/>
      <point x="680" y="585" type="line"/>
      <point x="680" y="1415" type="line"/>
    </contour>
    <contour>
      <point x="170" y="203" type="line"/>
      <point x="1070" y="203" type="line"/>
      <point x="1070" y="313" type="line"/>
      <point x="170" y="313" type="line"/>
    </contour>
  </outline>
</glyph>
<glyph name="acute" format="2">
  <advance width="1240"/>
  <unicode hex="00B4"/>
  <outline>
    <contour>
      <point x="665" y="1274" type="line"/>
      <point x="556" y="1274" type="line"/>
      <point x="778" y="1597" type="line"/>
      <point x="918" y="1597" type="line"/>
    </contour>
  </outline>
</glyph>
<glyph name="periodcentered" format="2">
  <advance width="1240"/>
  <unicode hex="00B7"/>
  <outline>
    <contour>
      <point x="620" y="490" type="curve" smooth="yes"/>
      <point x="709" y="490"/>
      <point x="779" y="548"/>
      <point x="779" y="645" type="curve" smooth="yes"/>
      <point x="779" y="744"/>
      <point x="709" y="800"/>
      <point x="620" y="800" type="curve" smooth="yes"/>
      <point x="532" y="800"/>
      <point x="462" y="744"/>
      <point x="462" y="645" type="curve" smooth="yes"/>
      <point x="462" y="548"/>
      <point x="532" y="490"/>
    </contour>
  </outline>
</glyph>
<glyph name="onesuperior" format="2">
  <advance width="1240"/>
  <unicode hex="00B9"/>
  <outline>
    <contour>
      <point x="441" y="1559" type="curve"/>
      <point x="441" y="1462" type="line"/>
      <point x="537" y="1462"/>
      <point x="658" y="1565"/>
      <point x="658" y="1655" type="curve"/>
      <point x="586" y="1655" type="line"/>
      <point x="578" y="1601"/>
      <point x="490" y="1559"/>
    </contour>
    <contour>
      <point x="684" y="1100" type="line"/>
      <point x="684" y="1655" type="line"/>
      <point x="586" y="1655" type="line"/>
      <point x="586" y="1100" type="line"/>
    </contour>
    <contour>
      <point x="425" y="1100" type="line"/>
      <point x="848" y="1100" type="line"/>
      <point x="848" y="1180" type="line"/>
      <point x="425" y="1180" type="line"/>
    </contour>
  </outline>
</glyph>
<glyph name="threequarters" format="2">
  <advance width="1240"/>
  <unicode hex="00BE"/>
  <outline>
    <contour>
      <point x="313" y="1469" type="curve" smooth="yes"/>
      <point x="184" y="1469"/>
      <point x="112" y="1413"/>
      <point x="109" y="1311" type="curve"/>
      <point x="200" y="1302" type="line"/>
      <point x="209" y="1373"/>
      <point x="250" y="1392"/>
      <point x="316" y="1392" type="curve" smooth="yes"/>
      <point x="386" y="1392"/>
      <point x="429" y="1372"/>
      <point x="429" y="1314" type="curve" smooth="yes"/>
      <point x="429" y="1253"/>
      <point x="367" y="1215"/>
      <point x="271" y="1215" type="curve" smooth="yes"/>
      <point x="257" y="1215" type="line"/>
      <point x="257" y="1144" type="line"/>
      <point x="272" y="1144" type="line" smooth="yes"/>
      <point x="364" y="1144"/>
      <point x="441" y="1119"/>
      <point x="441" y="1059" type="curve" smooth="yes"/>
      <point x="441" y="1001"/>
      <point x="398" y="974"/>
      <point x="319" y="974" type="curve" smooth="yes"/>
      <point x="244" y="974"/>
      <point x="200" y="994"/>
      <point x="188" y="1069" type="curve"/>
      <point x="95" y="1060" type="line"/>
      <point x="97" y="952"/>
      <point x="172" y="896"/>
      <point x="319" y="896" type="curve" smooth="yes"/>
      <point x="463" y="896"/>
      <point x="542" y="953"/>
      <point x="542" y="1055" type="curve" smooth="yes"/>
      <point x="542" y="1163"/>
      <point x="449" y="1191"/>
      <point x="351" y="1197" type="curve"/>
      <point x="351" y="1170" type="line"/>
      <point x="432" y="1177"/>
      <point x="525" y="1219"/>
      <point x="525" y="1321" type="curve" smooth="yes"/>
      <point x="525" y="1419"/>
      <point x="445" y="1469"/>
    </contour>
    <contour>
      <point x="1026" y="1153" type="line"/>
      <point x="232" y="359" type="line"/>
      <point x="304" y="291" type="line"/>
      <point x="1098" y="1085" type="line"/>
    </contour>
    <contour>
      <point x="1047" y="0" type="line"/>
      <point x="1047" y="555" type="line"/>
      <point x="945" y="555" type="line"/>
      <point x="654" y="220" type="line"/>
      <point x="654" y="141" type="line"/>
      <point x="1120" y="141" type="line"/>
      <point x="1120" y="220" type="line"/>
      <point x="1002" y="220" type="line"/>
      <point x="981" y="210" type="line"/>
      <point x="712" y="210" type="line"/>
      <point x="735" y="197" type="line"/>
      <point x="979" y="469" type="line"/>
      <point x="951" y="473" type="line"/>
      <point x="951" y="0" type="line"/>
    </contour>
  </outline>
</glyph>
<glyph name="Agrave" format="2">
  <advance width="1240"/>
  <unicode hex="00C0"/>
  <outline>
    <contour>
      <point x="207" y="0" type="line"/>
      <point x="333" y="0" type="line"/>
      <point x="333" y="829" type="line"/>
      <point x="640" y="1380" type="line"/>
      <point x="600" y="1380" type="line"/>
      <point x="907" y="833" type="line"/>
      <point x="907" y="0" type="line"/>
      <point x="1033" y="0" type="line"/>
      <point x="1033" y="861" type="line"/>
      <point x="693" y="1460" type="line"/>
      <point x="547" y="1460" type="line"/>
      <point x="207" y="861" type="line"/>
    </contour>
    <contour>
      <point x="286" y="449" type="line"/>
      <point x="949" y="449" type="line"/>
      <point x="949" y="552" type="line"/>
      <point x="286" y="552" type="line"/>
    </contour>
    <contour>
      <point x="575" y="1650.191" type="line"/>
      <point x="684" y="1650.191" type="line"/>
      <point x="462" y="1883.236" type="line"/>
      <point x="322" y="1883.236" type="line"/>
    </contour>
  </outline>
</glyph>
<glyph name="Aacute" format="2">
  <advance width="1240"/>
  <unicode hex="00C1"/>
  <outline>
    <contour>
      <point x="207" y="0" type="line"/>
      <point x="333" y="0" type="line"/>
      <point x="333" y="829" type="line"/>
      <point x="640" y="1380" type="line"/>
      <point x="600" y="1380" type="line"/>
      <point x="907" y="833" type="line"/>
      <point x="907" y="0" type="line"/>
      <point x="1033" y="0" type="line"/>
      <point x="1033" y="861" type="line"/>
      <point x="693" y="1460" type="line"/>
      <point x="547" y="1460" type="line"/>
      <point x="207" y="861" type="line"/>
    </contour>
    <contour>
      <point x="286" y="449" type="line"/>
      <point x="949" y="449" type="line"/>
      <point x="949" y="552" type="line"/>
      <point x="286" y="552" type="line"/>
    </contour>
    <contour>
      <point x="665" y="1650.191" type="line"/>
      <point x="556" y="1650.191" type="line"/>
      <point x="778" y="1883.236" type="line"/>
      <point x="918" y="1883.236" type="line"/>
    </contour>
  </outline>
</glyph>
<glyph name="Ccedilla" format="2">
  <advance width="1240"/>
  <unicode hex="00C7"/>
  <outline>
    <contour>
      <point x="510" y="0" type="line"/>
      <point x="1070" y="0" type="line"/>
      <point x="1090" y="110" type="line"/>
      <point x="580" y="110" type="line"/>
      <point x="256" y="570" type="line"/>
      <point x="256" y="900" type="line"/>
      <point x="580" y="1350" type="line"/>
      <point x="1090" y="1350" type="line"/>
      <point x="1070" y="1460" type="line"/>
      <point x="510" y="1460" type="line"/>
      <point x="130" y="933" type="line"/>
      <point x="130" y="537" type="line"/>
    </contour>
    <contour>
      <point x="634" y="-565" type="line"/>
      <point x="818" y="-565" type="line"/>
      <point x="954" y="-455" type="line"/>
      <point x="954" y="-279" type="line"/>
      <point x="817" y="-169" type="line"/>
      <point x="749" y="-169" type="line"/>
      <point x="768" y="-196" type="line"/>
      <point x="768" y="48" type="line"/>
      <point x="674" y="48" type="line"/>
      <point x="674" y="-259" type="line"/>
      <point x="780" y="-259" type="line"/>
      <point x="866" y="-329" type="line"/>
      <point x="866" y="-405" type="line"/>
      <point x="780" y="-475" type="line"/>
      <point x="634" y="-475" type="line"/>
    </contour>
  </outline>
</glyph>
<glyph name="Igrave" format="2">
  <advance width="1240"/>
  <unicode hex="00CC"/>
  <outline>
    <contour>
      <point x="547" y="0" type="line"/>
      <point x="673" y="0" type="line"/>
      <point x="673" y="1460" type="line"/>
      <point x="547" y="1460" type="line"/>
    </contour>
    <contour>
      <point x="172" y="0" type="line"/>
      <point x="1068" y="0" type="line"/>
      <point x="1088" y="110" type="line"/>
      <point x="152" y="110" type="line"/>
    </contour>
    <contour>
      <point x="152" y="1350" type="line"/>
      <point x="1088" y="1350" type="line"/>
      <point x="1068" y="1460" type="line"/>
      <point x="172" y="1460" type="line"/>
    </contour>
    <contour>
      <point x="575" y="1650.191" type="line"/>
      <point x="684" y="1650.191" type="line"/>
      <point x="462" y="1883.236" type="line"/>
      <point x="322" y="1883.236" type="line"/>
    </contour>
  </outline>
</glyph>
<glyph name="Eth" format="2">
  <advance width="1240"/>
  <unicode hex="00D0"/>
  <outline>
    <contour>
      <point x="40" y="705" type="line"/>
      <point x="672" y="705" type="line"/>
      <point x="672" y="815" type="line"/>
      <point x="40" y="815" type="line"/>
    </contour>
    <contour>
      <point x="260" y="0" type="line"/>
      <point x="730" y="0" type="line"/>
      <point x="1110" y="540" type="line"/>
      <point x="1110" y="930" type="line"/>
      <point x="730" y="1460" type="line"/>
      <point x="260" y="1460" type="line"/>
      <point x="260" y="1350" type="line"/>
      <point x="664" y="1350" type="line"/>
      <point x="984" y="900" type="line"/>
      <point x="984" y="570" type="line"/>
      <point x="664" y="110" type="line"/>
      <point x="260" y="110" type="line"/>
    </contour>
    <contour>
      <point x="207" y="0" type="line"/>
      <point x="333" y="0" type="line"/>
      <point x="333" y="1460" type="line"/>
      <point x="207" y="1460" type="line"/>
    </contour>
  </outline>
</glyph>
<glyph name="Ograve" format="2">
  <advance width="1240"/>
  <unicode hex="00D2"/>
  <outline>
    <contour>
      <point x="510" y="0" type="line"/>
      <point x="729" y="0" type="line"/>
      <point x="1110" y="540" type="line"/>
      <point x="1110" y="930" type="line"/>
      <point x="749" y="1460" type="line"/>
      <point x="510" y="1460" type="line"/>
      <point x="130" y="930" type="line"/>
      <point x="130" y="540" type="line"/>
    </contour>
    <contour>
      <point x="566" y="110" type="line"/>
      <point x="256" y="570" type="line"/>
      <point x="256" y="900" type="line"/>
      <point x="574" y="1350" type="line"/>
      <point x="681" y="1350" type="line"/>
      <point x="984" y="900" type="line"/>
      <point x="984" y="570" type="line"/>
      <point x="673" y="110" type="line"/>
    </contour>
    <contour>
      <point x="575" y="1650.191" type="line"/>
      <point x="684" y="1650.191" type="line"/>
      <point x="462" y="1883.236" type="line"/>
      <point x="322" y="1883.236" type="line"/>
    </contour>
  </outline>
</glyph>
<glyph name="Oacute" format="2">
  <advance width="1240"/>
  <unicode hex="00D3"/>
  <outline>
    <contour>
      <point x="510" y="0" type="line"/>
      <point x="729" y="0" type="line"/>
      <point x="1110" y="540" type="line"/>
      <point x="1110" y="930" type="line"/>
      <point x="749" y="1460" type="line"/>
      <point x="510" y="1460" type="line"/>
      <point x="130" y="930" type="line"/>
      <point x="130" y="540" type="line"/>
    </contour>
    <contour>
      <point x="566" y="110" type="line"/>
      <point x="256" y="570" type="line"/>
      <point x="256" y="900" type="line"/>
      <point x="574" y="1350" type="line"/>
      <point x="681" y="1350" type="line"/>
      <point x="984" y="900" type="line"/>
      <point x="984" y="570" type="line"/>
      <point x="673" y="110" type="line"/>
    </contour>
    <contour>
      <point x="665" y="1650.191" type="line"/>
      <point x="556" y="1650.191" type="line"/>
      <point x="778" y="1883.236" type="line"/>
      <point x="918" y="1883.236" type="line"/>
    </contour>
  </outline>
</glyph>
<glyph name="Udieresis" format="2">
  <advance width="1240"/>
  <unicode hex="00DC"/>
  <outline>
    <contour>
      <point x="367" y="0" type="line"/>
      <point x="873" y="0" type="line"/>
      <point x="1033" y="198" type="line"/>
      <point x="1033" y="1460" type="line"/>
      <point x="907" y="1460" type="line"/>
      <point x="907" y="252" type="line"/>
      <point x="800" y="110" type="line"/>
      <point x="440" y="110" type="line"/>
      <point x="333" y="252" type="line"/>
      <point x="333" y="1460" type="line"/>
      <point x="207" y="1460" type="line"/>
      <point x="207" y="198" type="line"/>
    </contour>
    <contour>
      <point x="373.6" y="1626" type="line"/>
      <point x="507.86" y="1756" type="line"/>
      <point x="373.6" y="1886" type="line"/>
      <point x="239.34" y="1756" type="line"/>
    </contour>
    <contour>
      <point x="866.6" y="1626" type="line"/>
      <point x="1000.86" y="1756" type="line"/>
      <point x="866.6" y="1886" type="line"/>
      <point x="732.34" y="1756" type="line"/>
    </contour>
  </outline>
</glyph>
<glyph name="Thorn" format="2">
  <advance width="1240"/>
  <unicode hex="00DE"/>
  <outline>
    <contour>
      <point x="190" y="0" type="line"/>
      <point x="316" y="0" type="line"/>
      <point x="316" y="1460" type="line"/>
      <point x="190" y="1460" type="line"/>
    </contour>
    <contour>
      <point x="249" y="313" type="line"/>
      <point x="785" y="313" type="line"/>
      <point x="1090" y="644" type="line"/>
      <point x="1090" y="928" type="line"/>
      <point x="793" y="1206" type="line"/>
      <point x="249" y="1206" type="line"/>
      <point x="249" y="1106" type="line"/>
      <point x="734" y="1106" type="line"/>
      <point x="964" y="889" type="line"/>
      <point x="964" y="679" type="line"/>
      <point x="724" y="413" type="line"/>
      <point x="249" y="413" type="line"/>
    </contour>
  </outline>
</glyph>
<glyph name="ae" format="2">
  <advance width="1240"/>
  <unicode hex="00E6"/>
  <outline>
    <contour>
      <point x="497" y="1000" type="line"/>
      <point x="156" y="1000" type="line"/>
      <point x="136" y="902" type="line"/>
      <point x="431" y="902" type="line"/>
      <point x="555" y="758" type="line"/>
      <point x="555" y="654" type="line"/>
      <point x="661" y="654" type="line"/>
      <point x="661" y="802" type="line"/>
    </contour>
    <contour>
      <point x="212" y="586" type="line"/>
      <point x="53" y="423" type="line"/>
      <point x="53" y="208" type="line"/>
      <point x="311" y="-11" type="line"/>
      <point x="590" y="128" type="line"/>
      <point x="647" y="128" type="line"/>
      <point x="647" y="208" type="line"/>
      <point x="594" y="207" type="line"/>
      <point x="325" y="106" type="line"/>
      <point x="153" y="243" type="line"/>
      <point x="153" y="378" type="line"/>
      <point x="256" y="486" type="line"/>
      <point x="599" y="486" type="line"/>
      <point x="599" y="586" type="line"/>
    </contour>
    <contour>
      <point x="720" y="1000" type="line"/>
      <point x="555" y="803" type="line"/>
      <point x="555" y="186" type="line"/>
      <point x="786" y="0" type="line"/>
      <point x="1109" y="0" type="line"/>
      <point x="1129" y="98" type="line"/>
      <point x="832" y="98" type="line"/>
      <point x="661" y="232" type="line"/>
      <point x="661" y="758" type="line"/>
      <point x="785" y="902" type="line"/>
      <point x="972" y="902" type="line"/>
      <point x="1087" y="812" type="line"/>
      <point x="1087" y="674" type="line"/>
      <point x="972" y="594" type="line"/>
      <point x="608" y="594" type="line"/>
      <point x="608" y="497" type="line"/>
      <point x="1021" y="497" type="line"/>
      <point x="1187" y="621" type="line"/>
      <point x="1187" y="855" type="line"/>
      <point x="1015" y="1000" type="line"/>
    </contour>
  </outline>
</glyph>
<glyph name="igrave" format="2">
  <advance width="1240"/>
  <unicode hex="00EC"/>
  <outline>
    <contour>
      <point x="627" y="0" type="line"/>
      <point x="751" y="0" type="line"/>
      <point x="751" y="935" type="line"/>
      <point x="690" y="1000" type="line"/>
      <point x="215" y="1000" type="line"/>
      <point x="195" y="902" type="line"/>
      <point x="673" y="902" type="line"/>
      <point x="627" y="938" type="line"/>
    </contour>
    <contour>
      <point x="515" y="1274" type="line"/>
      <point x="624" y="1274" type="line"/>
      <point x="402" y="1597" type="line"/>
      <point x="262" y="1597" type="line"/>
    </contour>
  </outline>
</glyph>
<glyph name="icircumflex" format="2">
  <advance width="1240"/>
  <unicode hex="00EE"/>
  <outline>
    <contour>
      <point x="627" y="0" type="line"/>
      <point x="751" y="0" type="line"/>
      <point x="751" y="935" type="line"/>
      <point x="690" y="1000" type="line"/>
      <point x="215" y="1000" type="line"/>
      <point x="195" y="902" type="line"/>
      <point x="673" y="902" type="line"/>
      <point x="627" y="938" type="line"/>
    </contour>
    <contour>
      <point x="238" y="1274" type="line"/>
      <point x="359" y="1274" type="line"/>
      <point x="588" y="1562" type="line"/>
      <point x="532" y="1562" type="line"/>
      <point x="761" y="1274" type="line"/>
      <point x="882" y="1274" type="line"/>
      <point x="608" y="1597" type="line"/>
      <point x="512" y="1597" type="line"/>
    </contour>
  </outline>
</glyph>
<glyph name="idieresis" format="2">
  <advance width="1240"/>
  <unicode hex="00EF"/>
  <outline>
    <contour>
      <point x="627" y="0" type="line"/>
      <point x="751" y="0" type="line"/>
      <point x="751" y="935" type="line"/>
      <point x="690" y="1000" type="line"/>
      <point x="215" y="1000" type="line"/>
      <point x="195" y="902" type="line"/>
      <point x="673" y="902" type="line"/>
      <point x="627" y="938" type="line"/>
    </contour>
    <contour>
      <point x="313.6" y="1276" type="line"/>
      <point x="447.86" y="1406" type="line"/>
      <point x="313.6" y="1536" type="line"/>
      <point x="179.34" y="1406" type="line"/>
    </contour>
    <contour>
      <point x="806.6" y="1276" type="line"/>
      <point x="940.86" y="1406" type="line"/>
      <point x="806.6" y="1536" type="line"/>
      <point x="672.34" y="1406" type="line"/>
    </contour>
  </outline>
</glyph>
<glyph name="uacute" format="2">
  <advance width="1240"/>
  <unicode hex="00FA"/>
  <outline>
    <contour>
      <point x="347" y="1000" type="line"/>
      <point x="221" y="1000" type="line"/>
      <point x="221" y="228" type="line"/>
      <point x="464" y="-23" type="line"/>
      <point x="980" y="136" type="line"/>
      <point x="980" y="218" type="line"/>
      <point x="502" y="93" type="line"/>
      <point x="347" y="263" type="line"/>
    </contour>
    <contour>
      <point x="1019" y="1000" type="line"/>
      <point x="895" y="1000" type="line"/>
      <point x="895" y="117" type="line"/>
      <point x="932" y="0" type="line"/>
      <point x="1019" y="0" type="line"/>
    </contour>
    <contour>
      <point x="665" y="1274" type="line"/>
      <point x="556" y="1274" type="line"/>
      <point x="778" y="1597" type="line"/>
      <point x="918" y="1597" type="line"/>
    </contour>
  </outline>
</glyph>
<glyph name="ydieresis" format="2">
  <advance width="1240"/>
  <unicode hex="00FF"/>
  <outline>
    <contour>
      <point x="270" y="-400" type="line"/>
      <point x="781" y="-400" type="line"/>
      <point x="1020" y="-112" type="line"/>
      <point x="1020" y="1000" type="line"/>
      <point x="904" y="1000" type="line"/>
      <point x="904" y="294" type="line"/>
      <point x="904" y="254" type="line"/>
      <point x="904" y="-82" type="line"/>
      <point x="725" y="-302" type="line"/>
      <point x="250" y="-302" type="line"/>
    </contour>
    <contour>
      <point x="465" y="90" type="line"/>
      <point x="971" y="243" type="line"/>
      <point x="971" y="329" type="line"/>
      <point x="493" y="203" type="line"/>
      <point x="307" y="383" type="line"/>
      <point x="307" y="1000" type="line"/>
      <point x="184" y="1000" type="line"/>
      <point x="184" y="348" type="line"/>
    </contour>
    <contour>
      <point x="373.6" y="1276" type="line"/>
      <point x="507.86" y="1406" type="line"/>
      <point x="373.6" y="1536" type="line"/>
      <point x="239.34" y="1406" type="line"/>
    </contour>
    <contour>
      <point x="866.6" y="1276" type="line"/>
      <point x="1000.86" y="1406" type="line"/>
      <point x="866.6" y="1536" type="line"/>
      <point x="732.34" y="1406" type="line"/>
    </contour>
  </outline>
</glyph>
<glyph name="ccaron" format="2">
  <advance width="1240"/>
  <unicode hex="010D"/>
  <outline>
    <contour>
      <point x="490" y="0" type="line"/>
      <point x="1030" y="0" type="line"/>
      <point x="1050" y="98" type="line"/>
      <point x="536" y="98" type="line"/>
      <point x="276" y="360" type="line"/>
      <point x="276" y="640" type="line"/>
      <point x="536" y="902" type="line"/>
      <point x="1050" y="902" type="line"/>
      <point x="1030" y="1000" type="line"/>
      <point x="490" y="1000" type="line"/>
      <point x="160" y="670" type="line"/>
      <point x="160" y="330" type="line"/>
    </contour>
    <contour>
      <point x="338" y="1597" type="line"/>
      <point x="459" y="1597" type="line"/>
      <point x="688" y="1309" type="line"/>
      <point x="632" y="1309" type="line"/>
      <point x="861" y="1597" type="line"/>
      <point x="982" y="1597" type="line"/>
      <point x="708" y="1274" type="line"/>
      <point x="612" y="1274" type="line"/>
    </contour>
  </outline>
</glyph>
<glyph name="dcaron" format="2">
  <advance width="1240"/>
  <unicode hex="010F"/>
  <outline>
    <contour>
      <point x="899" y="0" type="line"/>
      <point x="989" y="0" type="line"/>
      <point x="989" y="1530" type="line"/>
      <point x="865" y="1510" type="line"/>
      <point x="865" y="974" type="line"/>
      <point x="875" y="943" type="line"/>
      <point x="875" y="136" type="line"/>
    </contour>
    <contour>
      <point x="912" y="1000" type="line"/>
      <point x="447" y="1000" type="line"/>
      <point x="145" y="692" type="line"/>
      <point x="145" y="228" type="line"/>
      <point x="436" y="-23" type="line"/>
      <point x="912" y="136" type="line"/>
      <point x="912" y="224" type="line"/>
      <point x="474" y="99" type="line"/>
      <point x="268" y="269" type="line"/>
      <point x="268" y="659" type="line"/>
      <point x="506" y="906" type="line"/>
      <point x="912" y="906" type="line"/>
    </contour>
    <contour>
      <point x="1154" y="1282" type="line"/>
      <point x="1251" y="1282" type="line"/>
      <point x="1292" y="1618" type="line"/>
      <point x="1171" y="1618" type="line"/>
    </contour>
  </outline>
</glyph>
<glyph name="hcircumflex" format="2">
  <advance width="1240"/>
  <unicode hex="0125"/>
  <outline>
    <contour>
      <point x="893" y="0" type="line"/>
      <point x="1019" y="0" type="line"/>
      <point x="1015" y="772" type="line"/>
      <point x="776" y="1023" type="line"/>
      <point x="260" y="864" type="line"/>
      <point x="260" y="782" type="line"/>
      <point x="738" y="907" type="line"/>
      <point x="893" y="737" type="line"/>
    </contour>
    <contour>
      <point x="221" y="0" type="line"/>
      <point x="345" y="0" type="line"/>
      <point x="345" y="1530" type="line"/>
      <point x="221" y="1510" type="line"/>
    </contour>
    <contour>
      <point x="-40" y="1720" type="line"/>
      <point x="91" y="1720" type="line"/>
      <point x="310" y="1924" type="line"/>
      <point x="254" y="1924" type="line"/>
      <point x="473" y="1720" type="line"/>
      <point x="604" y="1720" type="line"/>
      <point x="340" y="1953" type="line"/>
      <point x="224" y="1953" type="line"/>
    </contour>
  </outline>
</glyph>
<glyph name="Imacron" format="2">
  <advance width="1240"/>
  <unicode hex="012A"/>
  <outline>
    <contour>
      <point x="547" y="0" type="line"/>
      <point x="673" y="0" type="line"/>
      <point x="673" y="1460" type="line"/>
      <point x="547" y="1460" type="line"/>
    </contour>
    <contour>
      <point x="172" y="0" type="line"/>
      <point x="1068" y="0" type="line"/>
      <point x="1088" y="110" type="line"/>
      <point x="152" y="110" type="line"/>
    </contour>
    <contour>
      <point x="152" y="1350" type="line"/>
      <point x="1088" y="1350" type="line"/>
      <point x="1068" y="1460" type="line"/>
      <point x="172" y="1460" type="line"/>
    </contour>
    <contour>
      <point x="313" y="1731" type="line"/>
      <point x="927" y="1731" type="line"/>
      <point x="927" y="1831" type="line"/>
      <point x="313" y="1831" type="line"/>
    </contour>
  </outline>
</glyph>
<glyph name="ibreve" format="2">
  <advance width="1240"/>
  <unicode hex="012D"/>
  <outline>
    <contour>
      <point x="627" y="0" type="line"/>
      <point x="751" y="0" type="line"/>
      <point x="751" y="935" type="line"/>
      <point x="690" y="1000" type="line"/>
      <point x="215" y="1000" type="line"/>
      <point x="195" y="902" type="line"/>
      <point x="673" y="902" type="line"/>
      <point x="627" y="938" type="line"/>
    </contour>
    <contour>
      <point x="413" y="1267" type="line"/>
      <point x="707" y="1267" type="line"/>
      <point x="827" y="1414" type="line"/>
      <point x="827" y="1597" type="line"/>
      <point x="737" y="1597" type="line"/>
      <point x="737" y="1451" type="line"/>
      <point x="647" y="1355" type="line"/>
      <point x="473" y="1355" type="line"/>
      <point x="383" y="1451" type="line"/>
      <point x="383" y="1597" type="line"/>
      <point x="293" y="1597" type="line"/>
      <point x="293" y="1413" type="line"/>
    </contour>
  </outline>
</glyph>
<glyph name="iogonek" format="2">
  <advance width="1240"/>
  <unicode hex="012F"/>
  <outline>
    <contour>
      <point x="627" y="0" type="line"/>
      <point x="751" y="0" type="line"/>
      <point x="751" y="935" type="line"/>
      <point x="690" y="1000" type="line"/>
      <point x="215" y="1000" type="line"/>
      <point x="195" y="902" type="line"/>
      <point x="673" y="902" type="line"/>
      <point x="627" y="938" type="line"/>
    </contour>
    <contour>
      <point x="560" y="1276" type="line"/>
      <point x="697" y="1406" type="line"/>
      <point x="560" y="1536" type="line"/>
      <point x="423" y="1406" type="line"/>
    </contour>
    <contour>
      <point x="501" y="-122" type="line"/>
      <point x="501" y="-310" type="line"/>
      <point x="639" y="-400" type="line"/>
      <point x="751" y="-400" type="line"/>
      <point x="751" y="-310" type="line"/>
      <point x="670" y="-310" type="line"/>
      <point x="603" y="-262" type="line"/>
      <point x="603" y="-151" type="line"/>
      <point x="751" y="0" type="line"/>
      <point x="669" y="37" type="line"/>
    </contour>
  </outline>
</glyph>
<glyph name="idotless" format="2">
  <advance width="1240"/>
  <unicode hex="0131"/>
  <outline>
    <contour>
      <point x="627" y="0" type="line"/>
      <point x="751" y="0" type="line"/>
      <point x="751" y="935" type="line"/>
      <point x="690" y="1000" type="line"/>
      <point x="215" y="1000" type="line"/>
      <point x="195" y="902" type="line"/>
      <point x="673" y="902" type="line"/>
      <point x="627" y="938" type="line"/>
    </contour>
  </outline>
</glyph>
<glyph name="jcircumflex" format="2">
  <advance width="1240"/>
  <unicode hex="0135"/>
  <outline>
    <contour>
      <point x="221" y="-400" type="line"/>
      <point x="600" y="-400" type="line"/>
      <point x="839" y="-112" type="line"/>
      <point x="839" y="935" type="line"/>
      <point x="778" y="1000" type="line"/>
      <point x="253" y="1000" type="line"/>
      <point x="233" y="902" type="line"/>
      <point x="761" y="902" type="line"/>
      <point x="715" y="938" type="line"/>
      <point x="715" y="-82" type="line"/>
      <point x="536" y="-302" type="line"/>
      <point x="201" y="-302" type="line"/>
    </contour>
    <contour>
      <point x="275" y="1274" type="line"/>
      <point x="396" y="1274" type="line"/>
      <point x="625" y="1562" type="line"/>
      <point x="569" y="1562" type="line"/>
      <point x="798" y="1274" type="line"/>
      <point x="919" y="1274" type="line"/>
      <point x="645" y="1597" type="line"/>
      <point x="549" y="1597" type="line"/>
    </contour>
  </outline>
</glyph>
<glyph name="Lcommaaccent" format="2">
  <advance width="1240"/>
  <unicode hex="013B"/>
  <outline>
    <contour>
      <point x="207" y="0" type="line"/>
      <point x="333" y="0" type="line"/>
      <point x="333" y="1460" type="line"/>
      <point x="207" y="1460" type="line"/>
    </contour>
    <contour>
      <point x="292" y="0" type="line"/>
      <point x="1098" y="0" type="line"/>
      <point x="1118" y="110" type="line"/>
      <point x="292" y="110" type="line"/>
    </contour>
    <contour>
      <point x="527" y="-527" type="line"/>
      <point x="680" y="-527" type="line"/>
      <point x="680" y="-471" type="line"/>
      <point x="498" y="-707" type="line"/>
      <point x="573" y="-747" type="line"/>
      <point x="742" y="-527" type="line"/>
      <point x="742" y="-312" type="line"/>
      <point x="527" y="-312" type="line"/>
    </contour>
  </outline>
</glyph>
<glyph name="Lcaron" format="2">
  <advance width="1240"/>
  <unicode hex="013D"/>
  <outline>
    <contour>
      <point x="207" y="0" type="line"/>
      <point x="333" y="0" type="line"/>
      <point x="333" y="1460" type="line"/>
      <point x="207" y="1460" type="line"/>
    </contour>
    <contour>
      <point x="292" y="0" type="line"/>
      <point x="1098" y="0" type="line"/>
      <point x="1118" y="110" type="line"/>
      <point x="292" y="110" type="line"/>
    </contour>
    <contour>
      <point x="566" y="1212" type="line"/>
      <point x="663" y="1212" type="line"/>
      <point x="704" y="1548" type="line"/>
      <point x="583" y="1548" type="line"/>
    </contour>
  </outline>
</glyph>
<glyph name="lcaron" format="2">
  <advance width="1240"/>
  <unicode hex="013E"/>
  <outline>
    <contour>
      <point x="714" y="0" type="line"/>
      <point x="1075" y="0" type="line"/>
      <point x="1095" y="98" type="line"/>
      <point x="770" y="98" type="line"/>
      <point x="591" y="318" type="line"/>
      <point x="591" y="1465" type="line"/>
      <point x="530" y="1530" type="line"/>
      <point x="125" y="1530" type="line"/>
      <point x="105" y="1432" type="line"/>
      <point x="513" y="1432" type="line"/>
      <point x="475" y="1468" type="line"/>
      <point x="475" y="288" type="line"/>
    </contour>
    <contour>
      <point x="893" y="1282" type="line"/>
      <point x="990" y="1282" type="line"/>
      <point x="1031" y="1618" type="line"/>
      <point x="910" y="1618" type="line"/>
    </contour>
  </outline>
</glyph>
<glyph name="Ldot" format="2">
  <advance width="1240"/>
  <unicode hex="013F"/>
  <outline>
    <contour>
      <point x="207" y="0" type="line"/>
      <point x="333" y="0" type="line"/>
      <point x="333" y="1460" type="line"/>
      <point x="207" y="1460" type="line"/>
    </contour>
    <contour>
      <point x="292" y="0" type="line"/>
      <point x="1098" y="0" type="line"/>
      <point x="1118" y="110" type="line"/>
      <point x="292" y="110" type="line"/>
    </contour>
    <contour>
      <point x="909" y="679" type="line"/>
      <point x="1046" y="809" type="line"/>
      <point x="909" y="939" type="line"/>
      <point x="772" y="809" type="line"/>
    </contour>
  </outline>
</glyph>
<glyph name="Lslash" format="2">
  <advance width="1240"/>
  <unicode hex="0141"/>
  <outline>
    <contour>
      <point x="20" y="587" type="line"/>
      <point x="738" y="937" type="line"/>
      <point x="738" y="1052" type="line"/>
      <point x="20" y="702" type="line"/>
    </contour>
    <contour>
      <point x="207" y="0" type="line"/>
      <point x="333" y="0" type="line"/>
      <point x="333" y="1460" type="line"/>
      <point x="207" y="1460" type="line"/>
    </contour>
    <contour>
      <point x="292" y="0" type="line"/>
      <point x="1098" y="0" type="line"/>
      <point x="1118" y="110" type="line"/>
      <point x="292" y="110" type="line"/>
    </contour>
  </outline>
</glyph>
<glyph name="lslash" format="2">
  <advance width="1240"/>
  <unicode hex="0142"/>
  <outline>
    <contour>
      <point x="261" y="607" type="line"/>
      <point x="979" y="957" type="line"/>
      <point x="979" y="1072" type="line"/>
      <point x="261" y="722" type="line"/>
    </contour>
    <contour>
      <point x="714" y="0" type="line"/>
      <point x="1075" y="0" type="line"/>
      <point x="1095" y="98" type="line"/>
      <point x="770" y="98" type="line"/>
      <point x="591" y="318" type="line"/>
      <point x="591" y="1465" type="line"/>
      <point x="530" y="1530" type="line"/>
      <point x="125" y="1530" type="line"/>
      <point x="105" y="1432" type="line"/>
      <point x="513" y="1432" type="line"/>
      <point x="475" y="1468" type="line"/>
      <point x="475" y="288" type="line"/>
    </contour>
  </outline>
</glyph>
<glyph name="Nacute" format="2">
  <advance width="1240"/>
  <unicode hex="0143"/>
  <outline>
    <contour>
      <point x="207" y="0" type="line"/>
      <point x="327" y="0" type="line"/>
      <point x="327" y="1240" type="line"/>
      <point x="339" y="1240" type="line"/>
      <point x="888" y="1" type="line"/>
      <point x="1033" y="1" type="line"/>
      <point x="1033" y="1461" type="line"/>
      <point x="913" y="1461" type="line"/>
      <point x="913" y="264" type="line"/>
      <point x="901" y="264" type="line"/>
      <point x="367" y="1460" type="line"/>
      <point x="207" y="1460" type="line"/>
    </contour>
    <contour>
      <point x="665" y="1650.191" type="line"/>
      <point x="556" y="1650.191" type="line"/>
      <point x="778" y="1883.236" type="line"/>
      <point x="918" y="1883.236" type="line"/>
    </contour>
  </outline>
</glyph>
<glyph name="omacron" format="2">
  <advance width="1240"/>
  <unicode hex="014D"/>
  <outline>
    <contour>
      <point x="490" y="0" type="line"/>
      <point x="749" y="0" type="line"/>
      <point x="1080" y="330" type="line"/>
      <point x="1080" y="670" type="line"/>
      <point x="769" y="1000" type="line"/>
      <point x="490" y="1000" type="line"/>
      <point x="160" y="670" type="line"/>
      <point x="160" y="330" type="line"/>
    </contour>
    <contour>
      <point x="536" y="98" type="line"/>
      <point x="276" y="360" type="line"/>
      <point x="276" y="640" type="line"/>
      <point x="536" y="902" type="line"/>
      <point x="703" y="902" type="line"/>
      <point x="964" y="640" type="line"/>
      <point x="964" y="360" type="line"/>
      <point x="703" y="98" type="line"/>
    </contour>
    <contour>
      <point x="313" y="1339" type="line"/>
      <point x="927" y="1339" type="line"/>
      <point x="927" y="1439" type="line"/>
      <point x="313" y="1439" type="line"/>
    </contour>
  </outline>
</glyph>
<glyph name="obreve" format="2">
  <advance width="1240"/>
  <unicode hex="014F"/>
  <outline>
    <contour>
      <point x="490" y="0" type="line"/>
      <point x="749" y="0" type="line"/>
      <point x="1080" y="330" type="line"/>
      <point x="1080" y="670" type="line"/>
      <point x="769" y="1000" type="line"/>
      <point x="490" y="1000" type="line"/>
      <point x="160" y="670" type="line"/>
      <point x="160" y="330" type="line"/>
    </contour>
    <contour>
      <point x="536" y="98" type="line"/>
      <point x="276" y="360" type="line"/>
      <point x="276" y="640" type="line"/>
      <point x="536" y="902" type="line"/>
      <point x="703" y="902" type="line"/>
      <point x="964" y="640" type="line"/>
      <point x="964" y="360" type="line"/>
      <point x="703" y="98" type="line"/>
    </contour>
    <contour>
      <point x="473" y="1267" type="line"/>
      <point x="767" y="1267" type="line"/>
      <point x="887" y="1414" type="line"/>
      <point x="887" y="1597" type="line"/>
      <point x="797" y="1597" type="line"/>
      <point x="797" y="1451" type="line"/>
      <point x="707" y="1355" type="line"/>
      <point x="533" y="1355" type="line"/>
      <point x="443" y="1451" type="line"/>
      <point x="443" y="1597" type="line"/>
      <point x="353" y="1597" type="line"/>
      <point x="353" y="1413" type="line"/>
    </contour>
  </outline>
</glyph>
<glyph name="Rcommaaccent" format="2">
  <advance width="1240"/>
  <unicode hex="0156"/>
  <outline>
    <contour>
      <point x="259" y="637" type="line"/>
      <point x="765" y="637" type="line"/>
      <point x="1080" y="938" type="line"/>
      <point x="1080" y="1172" type="line"/>
      <point x="773" y="1460" type="line"/>
      <point x="259" y="1460" type="line"/>
      <point x="259" y="1360" type="line"/>
      <point x="714" y="1360" type="line"/>
      <point x="954" y="1133" type="line"/>
      <point x="954" y="973" type="line"/>
      <point x="714" y="737" type="line"/>
      <point x="259" y="737" type="line"/>
    </contour>
    <contour>
      <point x="217" y="0" type="line"/>
      <point x="343" y="0" type="line"/>
      <point x="343" y="1460" type="line"/>
      <point x="217" y="1460" type="line"/>
    </contour>
    <contour>
      <point x="927" y="0" type="line"/>
      <point x="1053" y="0" type="line"/>
      <point x="1053" y="266" type="line"/>
      <point x="740" y="697" type="line"/>
      <point x="598" y="697" type="line"/>
      <point x="927" y="238" type="line"/>
    </contour>
    <contour>
      <point x="527" y="-527" type="line"/>
      <point x="680" y="-527" type="line"/>
      <point x="680" y="-471" type="line"/>
      <point x="498" y="-707" type="line"/>
      <point x="573" y="-747" type="line"/>
      <point x="742" y="-527" type="line"/>
      <point x="742" y="-312" type="line"/>
      <point x="527" y="-312" type="line"/>
    </contour>
  </outline>
</glyph>
<glyph name="Sacute" format="2">
  <advance width="1240"/>
  <unicode hex="015A"/>
  <outline>
    <contour>
      <point x="190" y="0" type="line"/>
      <point x="820" y="0" type="line"/>
      <point x="1060" y="289" type="line"/>
      <point x="1060" y="476" type="line"/>
      <point x="292" y="1047" type="line"/>
      <point x="292" y="1129" type="line"/>
      <point x="478" y="1362" type="line"/>
      <point x="1030" y="1362" type="line"/>
      <point x="1010" y="1460" type="line"/>
      <point x="420" y="1460" type="line"/>
      <point x="180" y="1171" type="line"/>
      <point x="180" y="984" type="line"/>
      <point x="948" y="413" type="line"/>
      <point x="948" y="331" type="line"/>
      <point x="762" y="98" type="line"/>
      <point x="170" y="98" type="line"/>
    </contour>
    <contour>
      <point x="705" y="1650.191" type="line"/>
      <point x="596" y="1650.191" type="line"/>
      <point x="818" y="1883.236" type="line"/>
      <point x="958" y="1883.236" type="line"/>
    </contour>
  </outline>
</glyph>
<glyph name="sacute" format="2">
  <advance width="1240"/>
  <unicode hex="015B"/>
  <outline>
    <contour>
      <point x="250" y="0" type="line"/>
      <point x="830" y="0" type="line"/>
      <point x="1010" y="209" type="line"/>
      <point x="1010" y="356" type="line"/>
      <point x="352" y="707" type="line"/>
      <point x="352" y="747" type="line"/>
      <point x="482" y="902" type="line"/>
      <point x="990" y="902" type="line"/>
      <point x="970" y="1000" type="line"/>
      <point x="420" y="1000" type="line"/>
      <point x="240" y="791" type="line"/>
      <point x="240" y="644" type="line"/>
      <point x="898" y="293" type="line"/>
      <point x="898" y="253" type="line"/>
      <point x="768" y="98" type="line"/>
      <point x="230" y="98" type="line"/>
    </contour>
    <contour>
      <point x="665" y="1274" type="line"/>
      <point x="556" y="1274" type="line"/>
      <point x="778" y="1597" type="line"/>
      <point x="918" y="1597" type="line"/>
    </contour>
  </outline>
</glyph>
<glyph name="Scaron" format="2">
  <advance width="1240"/>
  <unicode hex="0160"/>
  <outline>
    <contour>
      <point x="190" y="0" type="line"/>
      <point x="820" y="0" type="line"/>
      <point x="1060" y="289" type="line"/>
      <point x="1060" y="476" type="line"/>
      <point x="292" y="1047" type="line"/>
      <point x="292" y="1129" type="line"/>
      <point x="478" y="1362" type="line"/>
      <point x="1030" y="1362" type="line"/>
      <point x="1010" y="1460" type="line"/>
      <point x="420" y="1460" type="line"/>
      <point x="180" y="1171" type="line"/>
      <point x="180" y="984" type="line"/>
      <point x="948" y="413" type="line"/>
      <point x="948" y="331" type="line"/>
      <point x="762" y="98" type="line"/>
      <point x="170" y="98" type="line"/>
    </contour>
    <contour>
      <point x="338" y="1883" type="line"/>
      <point x="469" y="1883" type="line"/>
      <point x="688" y="1679" type="line"/>
      <point x="632" y="1679" type="line"/>
      <point x="851" y="1883" type="line"/>
      <point x="982" y="1883" type="line"/>
      <point x="718" y="1650" type="line"/>
      <point x="602" y="1650" type="line"/>
    </contour>
  </outline>
</glyph>
<glyph name="Tcedilla" format="2">
  <advance width="1240"/>
  <unicode hex="0162"/>
  <outline>
    <contour>
      <point x="547" y="0" type="line"/>
      <point x="673" y="0" type="line"/>
      <point x="673" y="1460" type="line"/>
      <point x="547" y="1460" type="line"/>
    </contour>
    <contour>
      <point x="102" y="1350" type="line"/>
      <point x="1138" y="1350" type="line"/>
      <point x="1123" y="1460" type="line"/>
      <point x="117" y="1460" type="line"/>
    </contour>
    <contour>
      <point x="505" y="-565" type="line"/>
      <point x="689" y="-565" type="line"/>
      <point x="825" y="-455" type="line"/>
      <point x="825" y="-279" type="line"/>
      <point x="688" y="-169" type="line"/>
      <point x="620" y="-169" type="line"/>
      <point x="639" y="-196" type="line"/>
      <point x="639" y="48" type="line"/>
      <point x="545" y="48" type="line"/>
      <point x="545" y="-259" type="line"/>
      <point x="651" y="-259" type="line"/>
      <point x="737" y="-329" type="line"/>
      <point x="737" y="-405" type="line"/>
      <point x="651" y="-475" type="line"/>
      <point x="505" y="-475" type="line"/>
    </contour>
  </outline>
</glyph>
<glyph name="Tcaron" format="2">
  <advance width="1240"/>
  <unicode hex="0164"/>
  <outline>
    <contour>
      <point x="547" y="0" type="line"/>
      <point x="673" y="0" type="line"/>
      <point x="673" y="1460" type="line"/>
      <point x="547" y="1460" type="line"/>
    </contour>
    <contour>
      <point x="102" y="1350" type="line"/>
      <point x="1138" y="1350" type="line"/>
      <point x="1123" y="1460" type="line"/>
      <point x="117" y="1460" type="line"/>
    </contour>
    <contour>
      <point x="298" y="1883" type="line"/>
      <point x="429" y="1883" type="line"/>
      <point x="648" y="1679" type="line"/>
      <point x="592" y="1679" type="line"/>
      <point x="811" y="1883" type="line"/>
      <point x="942" y="1883" type="line"/>
      <point x="678" y="1650" type="line"/>
      <point x="562" y="1650" type="line"/>
    </contour>
  </outline>
</glyph>
<glyph name="tcaron" format="2">
  <advance width="1240"/>
  <unicode hex="0165"/>
  <outline>
    <contour>
      <point x="629" y="0" type="line"/>
      <point x="1051" y="0" type="line"/>
      <point x="1051" y="98" type="line"/>
      <point x="685" y="98" type="line"/>
      <point x="506" y="318" type="line"/>
      <point x="506" y="1291" type="line"/>
      <point x="390" y="1271" type="line"/>
      <point x="390" y="288" type="line"/>
    </contour>
    <contour>
      <point x="128" y="818" type="line"/>
      <point x="1051" y="818" type="line"/>
      <point x="1051" y="918" type="line"/>
      <point x="128" y="918" type="line"/>
    </contour>
    <contour>
      <point x="893" y="1212" type="line"/>
      <point x="990" y="1212" type="line"/>
      <point x="1031" y="1548" type="line"/>
      <point x="910" y="1548" type="line"/>
    </contour>
  </outline>
</glyph>
<glyph name="Tbar" format="2">
  <advance width="1240"/>
  <unicode hex="0166"/>
  <outline>
    <contour>
      <point x="274" y="705" type="line"/>
      <point x="966" y="705" type="line"/>
      <point x="966" y="815" type="line"/>
      <point x="274" y="815" type="line"/>
    </contour>
    <contour>
      <point x="547" y="0" type="line"/>
      <point x="673" y="0" type="line"/>
      <point x="673" y="1460" type="line"/>
      <point x="547" y="1460" type="line"/>
    </contour>
    <contour>
      <point x="102" y="1350" type="line"/>
      <point x="1138" y="1350" type="line"/>
      <point x="1123" y="1460" type="line"/>
      <point x="117" y="1460" type="line"/>
    </contour>
  </outline>
</glyph>
<glyph name="Umacron" format="2">
  <advance width="1240"/>
  <unicode hex="016A"/>
  <outline>
    <contour>
      <point x="367" y="0" type="line"/>
      <point x="873" y="0" type="line"/>
      <point x="1033" y="198" type="line"/>
      <point x="1033" y="1460" type="line"/>
      <point x="907" y="1460" type="line"/>
      <point x="907" y="252" type="line"/>
      <point x="800" y="110" type="line"/>
      <point x="440" y="110" type="line"/>
      <point x="333" y="252" type="line"/>
      <point x="333" y="1460" type="line"/>
      <point x="207" y="1460" type="line"/>
      <point x="207" y="198" type="line"/>
    </contour>
    <contour>
      <point x="313" y="1731" type="line"/>
      <point x="927" y="1731" type="line"/>
      <point x="927" y="1831" type="line"/>
      <point x="313" y="1831" type="line"/>
    </contour>
  </outline>
</glyph>
<glyph name="uring" format="2">
  <advance width="1240"/>
  <unicode hex="016F"/>
  <outline>
    <contour>
      <point x="347" y="1000" type="line"/>
      <point x="221" y="1000" type="line"/>
      <point x="221" y="228" type="line"/>
      <point x="464" y="-23" type="line"/>
      <point x="980" y="136" type="line"/>
      <point x="980" y="218" type="line"/>
      <point x="502" y="93" type="line"/>
      <point x="347" y="263" type="line"/>
    </contour>
    <contour>
      <point x="1019" y="1000" type="line"/>
      <point x="895" y="1000" type="line"/>
      <point x="895" y="117" type="line"/>
      <point x="932" y="0" type="line"/>
      <point x="1019" y="0" type="line"/>
    </contour>
    <contour>
      <point x="533" y="1215" type="line"/>
      <point x="707" y="1215" type="line"/>
      <point x="847" y="1372" type="line"/>
      <point x="847" y="1506" type="line"/>
      <point x="707" y="1662" type="line"/>
      <point x="533" y="1662" type="line"/>
      <point x="393" y="1505" type="line"/>
      <point x="393" y="1371" type="line"/>
    </contour>
    <contour>
      <point x="487" y="1409" type="line"/>
      <point x="487" y="1468" type="line"/>
      <point x="580" y="1574" type="line"/>
      <point x="660" y="1574" type="line"/>
      <point x="753" y="1468" type="line"/>
      <point x="753" y="1409" type="line"/>
      <point x="660" y="1303" type="line"/>
      <point x="580" y="1303" type="line"/>
    </contour>
  </outline>
</glyph>
<glyph name="wcircumflex" format="2">
  <advance width="1240"/>
  <unicode hex="0175"/>
  <outline>
    <contour>
      <point x="320" y="0" type="line"/>
      <point x="440" y="0" type="line"/>
      <point x="647" y="494" type="line"/>
      <point x="593" y="494" type="line"/>
      <point x="800" y="0" type="line"/>
      <point x="920" y="0" type="line"/>
      <point x="1145" y="545" type="line"/>
      <point x="1145" y="1000" type="line"/>
      <point x="1019" y="1000" type="line"/>
      <point x="1019" y="573" type="line"/>
      <point x="837" y="90" type="line"/>
      <point x="871" y="90" type="line"/>
      <point x="677" y="577" type="line"/>
      <point x="677" y="725" type="line"/>
      <point x="563" y="725" type="line"/>
      <point x="563" y="573" type="line"/>
      <point x="369" y="90" type="line"/>
      <point x="403" y="90" type="line"/>
      <point x="221" y="577" type="line"/>
      <point x="221" y="1000" type="line"/>
      <point x="95" y="1000" type="line"/>
      <point x="95" y="545" type="line"/>
    </contour>
    <contour>
      <point x="298" y="1274" type="line"/>
      <point x="419" y="1274" type="line"/>
      <point x="648" y="1562" type="line"/>
      <point x="592" y="1562" type="line"/>
      <point x="821" y="1274" type="line"/>
      <point x="942" y="1274" type="line"/>
      <point x="668" y="1597" type="line"/>
      <point x="572" y="1597" type="line"/>
    </contour>
  </outline>
</glyph>
<glyph name="florin" format="2">
  <advance width="1240"/>
  <unicode hex="0192"/>
  <outline>
    <contour>
      <point x="1032" y="838" type="line"/>
      <point x="1032" y="738" type="line"/>
      <point x="283" y="738" type="line"/>
      <point x="283" y="838" type="line"/>
    </contour>
    <contour>
      <point x="944" y="1484" type="curve" smooth="yes"/>
      <point x="995" y="1484"/>
      <point x="1030" y="1476"/>
      <point x="1070" y="1455" type="curve"/>
      <point x="1050" y="1361" type="line"/>
      <point x="1017" y="1375"/>
      <point x="992" y="1381"/>
      <point x="956" y="1381" type="curve" smooth="yes"/>
      <point x="853" y="1381"/>
      <point x="794" y="1333"/>
      <point x="763" y="1123" type="curve" smooth="yes"/>
      <point x="584" y="-97" type="line" smooth="yes"/>
      <point x="544" y="-370"/>
      <point x="428" y="-424"/>
      <point x="296" y="-424" type="curve" smooth="yes"/>
      <point x="245" y="-424"/>
      <point x="210" y="-416"/>
      <point x="170" y="-395" type="curve"/>
      <point x="190" y="-301" type="line"/>
      <point x="223" y="-315"/>
      <point x="248" y="-321"/>
      <point x="284" y="-321" type="curve" smooth="yes"/>
      <point x="387" y="-321"/>
      <point x="446" y="-273"/>
      <point x="477" y="-63" type="curve" smooth="yes"/>
      <point x="656" y="1157" type="line" smooth="yes"/>
      <point x="696" y="1430"/>
      <point x="812" y="1484"/>
    </contour>
  </outline>
</glyph>
<glyph name="AEacute" format="2">
  <advance width="1240"/>
  <unicode hex="01FC"/>
  <outline>
    <contour>
      <point x="644" y="0" type="line"/>
      <point x="770" y="0" type="line"/>
      <point x="770" y="1460" type="line"/>
      <point x="644" y="1460" type="line"/>
    </contour>
    <contour>
      <point x="117" y="0" type="line"/>
      <point x="243" y="0" type="line"/>
      <point x="243" y="829" type="line"/>
      <point x="510" y="1350" type="line"/>
      <point x="698" y="1350" type="line"/>
      <point x="698" y="1460" type="line"/>
      <point x="437" y="1460" type="line"/>
      <point x="117" y="861" type="line"/>
    </contour>
    <contour>
      <point x="196" y="449" type="line"/>
      <point x="709" y="449" type="line"/>
      <point x="709" y="552" type="line"/>
      <point x="196" y="552" type="line"/>
    </contour>
    <contour>
      <point x="729" y="0" type="line"/>
      <point x="1128" y="0" type="line"/>
      <point x="1148" y="110" type="line"/>
      <point x="729" y="110" type="line"/>
    </contour>
    <contour>
      <point x="729" y="674" type="line"/>
      <point x="1045" y="674" type="line"/>
      <point x="1045" y="779" type="line"/>
      <point x="729" y="779" type="line"/>
    </contour>
    <contour>
      <point x="729" y="1350" type="line"/>
      <point x="1118" y="1350" type="line"/>
      <point x="1098" y="1460" type="line"/>
      <point x="729" y="1460" type="line"/>
    </contour>
    <contour>
      <point x="825" y="1650.191" type="line"/>
      <point x="716" y="1650.191" type="line"/>
      <point x="938" y="1883.236" type="line"/>
      <point x="1078" y="1883.236" type="line"/>
    </contour>
  </outline>
</glyph>
<glyph name="tcommaaccent" format="2">
  <advance width="1240"/>
  <unicode hex="021B"/>
  <outline>
    <contour>
      <point x="629" y="0" type="line"/>
      <point x="1051" y="0" type="line"/>
      <point x="1051" y="98" type="line"/>
      <point x="685" y="98" type="line"/>
      <point x="506" y="318" type="line"/>
      <point x="506" y="1291" type="line"/>
      <point x="390" y="1271" type="line"/>
      <point x="390" y="288" type="line"/>
    </contour>
    <contour>
      <point x="128" y="818" type="line"/>
      <point x="1051" y="818" type="line"/>
      <point x="1051" y="918" type="line"/>
      <point x="128" y="918" type="line"/>
    </contour>
    <contour>
      <point x="640" y="-527" type="line"/>
      <point x="793" y="-527" type="line"/>
      <point x="793" y="-471" type="line"/>
      <point x="611" y="-707" type="line"/>
      <point x="686" y="-747" type="line"/>
      <point x="855" y="-527" type="line"/>
      <point x="855" y="-312" type="line"/>
      <point x="640" y="-312" type="line"/>
    </contour>
  </outline>
</glyph>
<glyph name="schwa" format="2">
  <advance width="1240"/>
  <unicode hex="0259"/>
  <outline>
    <contour>
      <point x="740" y="1000" type="line"/>
      <point x="251" y="1000" type="line"/>
      <point x="231" y="902" type="line"/>
      <point x="694" y="902" type="line"/>
      <point x="954" y="635" type="line"/>
      <point x="954" y="365" type="line"/>
      <point x="744" y="98" type="line"/>
      <point x="384" y="98" type="line"/>
      <point x="289" y="178" type="line"/>
      <point x="289" y="326" type="line"/>
      <point x="384" y="406" type="line"/>
      <point x="1012" y="406" type="line"/>
      <point x="1012" y="503" type="line"/>
      <point x="319" y="503" type="line"/>
      <point x="183" y="379" type="line"/>
      <point x="183" y="145" type="line"/>
      <point x="335" y="0" type="line"/>
      <point x="790" y="0" type="line"/>
      <point x="1070" y="330" type="line"/>
      <point x="1070" y="670" type="line"/>
    </contour>
  </outline>
</glyph>
<glyph name="dotaccent" format="2">
  <advance width="1240"/>
  <unicode hex="02D9"/>
  <outline>
    <contour>
      <point x="620" y="1276" type="line"/>
      <point x="757" y="1406" type="line"/>
      <point x="620" y="1536" type="line"/>
      <point x="483" y="1406" type="line"/>
    </contour>
  </outline>
</glyph>
<glyph name="ring" format="2">
  <advance width="1240"/>
  <unicode hex="02DA"/>
  <outline>
    <contour>
      <point x="533" y="1215" type="line"/>
      <point x="707" y="1215" type="line"/>
      <point x="847" y="1372" type="line"/>
      <point x="847" y="1506" type="line"/>
      <point x="707" y="1662" type="line"/>
      <point x="533" y="1662" type="line"/>
      <point x="393" y="1505" type="line"/>
      <point x="393" y="1371" type="line"/>
    </contour>
    <contour>
      <point x="487" y="1409" type="line"/>
      <point x="487" y="1468" type="line"/>
      <point x="580" y="1574" type="line"/>
      <point x="660" y="1574" type="line"/>
      <point x="753" y="1468" type="line"/>
      <point x="753" y="1409" type="line"/>
      <point x="660" y="1303" type="line"/>
      <point x="580" y="1303" type="line"/>
    </contour>
  </outline>
</glyph>
<glyph name="ogonek" format="2">
  <advance width="1240"/>
  <unicode hex="02DB"/>
  <outline>
    <contour>
      <point x="370" y="-122" type="line"/>
      <point x="370" y="-310" type="line"/>
      <point x="508" y="-400" type="line"/>
      <point x="620" y="-400" type="line"/>
      <point x="620" y="-310" type="line"/>
      <point x="539" y="-310" type="line"/>
      <point x="472" y="-262" type="line"/>
      <point x="472" y="-151" type="line"/>
      <point x="620" y="0" type="line"/>
      <point x="538" y="37" type="line"/>
    </contour>
  </outline>
</glyph>
<glyph name="macroncomb" format="2">
  <unicode hex="0304"/>
  <outline>
    <contour>
      <point x="313" y="1339" type="line"/>
      <point x="927" y="1339" type="line"/>
      <point x="927" y="1439" type="line"/>
      <point x="313" y="1439" type="line"/>
    </contour>
  </outline>
</glyph>
<glyph name="dotaccentcomb" format="2">
  <unicode hex="0307"/>
  <outline>
    <contour>
      <point x="620" y="1276" type="line"/>
      <point x="757" y="1406" type="line"/>
      <point x="620" y="1536" type="line"/>
      <point x="483" y="1406" type="line"/>
    </contour>
  </outline>
</glyph>
<glyph name="ringcomb" format="2">
  <unicode hex="030A"/>
  <outline>
    <contour>
      <point x="533" y="1215" type="line"/>
      <point x="707" y="1215" type="line"/>
      <point x="847" y="1372" type="line"/>
      <point x="847" y="1506" type="line"/>
      <point x="707" y="1662" type="line"/>
      <point x="533" y="1662" type="line"/>
      <point x="393" y="1505" type="line"/>
      <point x="393" y="1371" type="line"/>
    </contour>
    <contour>
      <point x="487" y="1409" type="line"/>
      <point x="487" y="1468" type="line"/>
      <point x="580" y="1574" type="line"/>
      <point x="660" y="1574" type="line"/>
      <point x="753" y="1468" type="line"/>
      <point x="753" y="1409" type="line"/>
      <point x="660" y="1303" type="line"/>
      <point x="580" y="1303" type="line"/>
    </contour>
  </outline>
</glyph>
<glyph name="hungarumlautcomb" format="2">
  <unicode hex="030B"/>
  <outline>
    <contour>
      <point x="743" y="1274" type="line"/>
      <point x="843" y="1274" type="line"/>
      <point x="1019" y="1597" type="line"/>
      <point x="889" y="1597" type="line"/>
    </contour>
    <contour>
      <point x="381" y="1274" type="line"/>
      <point x="482" y="1274" type="line"/>
      <point x="657" y="1597" type="line"/>
      <point x="528" y="1597" type="line"/>
    </contour>
  </outline>
</glyph>
<glyph name="caroncomb" format="2">
  <unicode hex="030C"/>
  <outline>
    <contour>
      <point x="298" y="1597" type="line"/>
      <point x="419" y="1597" type="line"/>
      <point x="648" y="1309" type="line"/>
      <point x="592" y="1309" type="line"/>
      <point x="821" y="1597" type="line"/>
      <point x="942" y="1597" type="line"/>
      <point x="668" y="1274" type="line"/>
      <point x="572" y="1274" type="line"/>
    </contour>
  </outline>
</glyph>
<glyph name="dotbelowcomb" format="2">
  <unicode hex="0323"/>
  <outline>
    <contour>
      <point x="620" y="-546" type="line"/>
      <point x="757" y="-416" type="line"/>
      <point x="620" y="-286" type="line"/>
      <point x="483" y="-416" type="line"/>
    </contour>
  </outline>
</glyph>
<glyph name="commaaccentcomb" format="2">
  <unicode hex="0326"/>
  <outline>
    <contour>
      <point x="527" y="-527" type="line"/>
      <point x="680" y="-527" type="line"/>
      <point x="680" y="-471" type="line"/>
      <point x="498" y="-707" type="line"/>
      <point x="573" y="-747" type="line"/>
      <point x="742" y="-527" type="line"/>
      <point x="742" y="-312" type="line"/>
      <point x="527" y="-312" type="line"/>
    </contour>
  </outline>
</glyph>
<glyph name="cedillacomb" format="2">
  <unicode hex="0327"/>
  <outline>
    <contour>
      <point x="514" y="-565" type="line"/>
      <point x="698" y="-565" type="line"/>
      <point x="834" y="-455" type="line"/>
      <point x="834" y="-279" type="line"/>
      <point x="697" y="-169" type="line"/>
      <point x="629" y="-169" type="line"/>
      <point x="648" y="-196" type="line"/>
      <point x="648" y="48" type="line"/>
      <point x="554" y="48" type="line"/>
      <point x="554" y="-259" type="line"/>
      <point x="660" y="-259" type="line"/>
      <point x="746" y="-329" type="line"/>
      <point x="746" y="-405" type="line"/>
      <point x="660" y="-475" type="line"/>
      <point x="514" y="-475" type="line"/>
    </contour>
  </outline>
</glyph>
<glyph name="ogonekcomb" format="2">
  <unicode hex="0328"/>
  <outline>
    <contour>
      <point x="370" y="-122" type="line"/>
      <point x="370" y="-310" type="line"/>
      <point x="508" y="-400" type="line"/>
      <point x="620" y="-400" type="line"/>
      <point x="620" y="-310" type="line"/>
      <point x="539" y="-310" type="line"/>
      <point x="472" y="-262" type="line"/>
      <point x="472" y="-151" type="line"/>
      <point x="620" y="0" type="line"/>
      <point x="538" y="37" type="line"/>
    </contour>
  </outline>
</glyph>
<glyph name="Omega" format="2">
  <advance width="1240"/>
  <unicode hex="03A9"/>
  <outline>
    <contour>
      <point x="620" y="1367" type="curve" smooth="yes"/>
      <point x="847" y="1367"/>
      <point x="1003" y="1225"/>
      <point x="1003" y="857" type="curve" smooth="yes"/>
      <point x="1003" y="571"/>
      <point x="909" y="405"/>
      <point x="765" y="249" type="curve"/>
      <point x="765" y="0" type="line"/>
      <point x="1112" y="0" type="line"/>
      <point x="1112" y="106" type="line"/>
      <point x="825" y="106" type="line"/>
      <point x="825" y="197" type="line"/>
      <point x="976" y="318"/>
      <point x="1140" y="516"/>
      <point x="1140" y="876" type="curve" smooth="yes"/>
      <point x="1140" y="1288"/>
      <point x="926" y="1484"/>
      <point x="620" y="1484" type="curve" smooth="yes"/>
      <point x="314" y="1484"/>
      <point x="100" y="1288"/>
      <point x="100" y="876" type="curve" smooth="yes"/>
      <point x="100" y="516"/>
      <point x="264" y="318"/>
      <point x="415" y="197" type="curve"/>
      <point x="415" y="106" type="line"/>
      <point x="128" y="106" type="line"/>
      <point x="128" y="0" type="line"/>
      <point x="475" y="0" type="line"/>
      <point x="475" y="249" type="line"/>
      <point x="331" y="405"/>
      <point x="237" y="571"/>
      <point x="237" y="857" type="curve" smooth="yes"/>
      <point x="237" y="1225"/>
      <point x="393" y="1367"/>
    </contour>
  </outline>
</glyph>
<glyph name="wgrave" format="2">
  <advance width="1240"/>
  <unicode hex="1E81"/>
  <outline>
    <contour>
      <point x="320" y="0" type="line"/>
      <point x="440" y="0" type="line"/>
      <point x="647" y="494" type="line"/>
      <point x="593" y="494" type="line"/>
      <point x="800" y="0" type="line"/>
      <point x="920" y="0" type="line"/>
      <point x="1145" y="545" type="line"/>
      <point x="1145" y="1000" type="line"/>
      <point x="1019" y="1000" type="line"/>
      <point x="1019" y="573" type="line"/>
      <point x="837" y="90" type="line"/>
      <point x="871" y="90" type="line"/>
      <point x="677" y="577" type="line"/>
      <point x="677" y="725" type="line"/>
      <point x="563" y="725" type="line"/>
      <point x="563" y="573" type="line"/>
      <point x="369" y="90" type="line"/>
      <point x="403" y="90" type="line"/>
      <point x="221" y="577" type="line"/>
      <point x="221" y="1000" type="line"/>
      <point x="95" y="1000" type="line"/>
      <point x="95" y="545" type="line"/>
    </contour>
    <contour>
      <point x="575" y="1274" type="line"/>
      <point x="684" y="1274" type="line"/>
      <point x="462" y="1597" type="line"/>
      <point x="322" y="1597" type="line"/>
    </contour>
  </outline>
</glyph>
<glyph name="edotbelow" format="2">
  <advance width="1240"/>
  <unicode hex="1EB9"/>
  <outline>
    <contour>
      <point x="500" y="0" type="line"/>
      <point x="989" y="0" type="line"/>
      <point x="1009" y="98" type="line"/>
      <point x="546" y="98" type="line"/>
      <point x="286" y="365" type="line"/>
      <point x="286" y="635" type="line"/>
      <point x="496" y="902" type="line"/>
      <point x="856" y="902" type="line"/>
      <point x="951" y="822" type="line"/>
      <point x="951" y="674" type="line"/>
      <point x="856" y="594" type="line"/>
      <point x="228" y="594" type="line"/>
      <point x="228" y="497" type="line"/>
      <point x="921" y="497" type="line"/>
      <point x="1057" y="621" type="line"/>
      <point x="1057" y="855" type="line"/>
      <point x="905" y="1000" type="line"/>
      <point x="450" y="1000" type="line"/>
      <point x="170" y="670" type="line"/>
      <point x="170" y="330" type="line"/>
    </contour>
    <contour>
      <point x="660" y="-546" type="line"/>
      <point x="797" y="-416" type="line"/>
      <point x="660" y="-286" type="line"/>
      <point x="523" y="-416" type="line"/>
    </contour>
  </outline>
</glyph>
<glyph name="Idotbelow" format="2">
  <advance width="1240"/>
  <unicode hex="1ECA"/>
  <outline>
    <contour>
      <point x="547" y="0" type="line"/>
      <point x="673" y="0" type="line"/>
      <point x="673" y="1460" type="line"/>
      <point x="547" y="1460" type="line"/>
    </contour>
    <contour>
      <point x="172" y="0" type="line"/>
      <point x="1068" y="0" type="line"/>
      <point x="1088" y="110" type="line"/>
      <point x="152" y="110" type="line"/>
    </contour>
    <contour>
      <point x="152" y="1350" type="line"/>
      <point x="1088" y="1350" type="line"/>
      <point x="1068" y="1460" type="line"/>
      <point x="172" y="1460" type="line"/>
    </contour>
    <contour>
      <point x="620" y="-546" type="line"/>
      <point x="757" y="-416" type="line"/>
      <point x="620" y="-286" type="line"/>
      <point x="483" y="-416" type="line"/>
    </contour>
  </outline>
</glyph>
<glyph name="udotbelow" format="2">
  <advance width="1240"/>
  <unicode hex="1EE5"/>
  <outline>
    <contour>
      <point x="347" y="1000" type="line"/>
      <point x="221" y="1000" type="line"/>
      <point x="221" y="228" type="line"/>
      <point x="464" y="-23" type="line"/>
      <point x="980" y="136" type="line"/>
      <point x="980" y="218" type="line"/>
      <point x="502" y="93" type="line"/>
      <point x="347" y="263" type="line"/>
    </contour>
    <contour>
      <point x="1019" y="1000" type="line"/>
      <point x="895" y="1000" type="line"/>
      <point x="895" y="117" type="line"/>
      <point x="932" y="0" type="line"/>
      <point x="1019" y="0" type="line"/>
    </contour>
    <contour>
      <point x="620" y="-546" type="line"/>
      <point x="757" y="-416" type="line"/>
      <point x="620" y="-286" type="line"/>
      <point x="483" y="-416" type="line"/>
    </contour>
  </outline>
</glyph>
<glyph name="emdash" format="2">
  <advance width="1240"/>
  <unicode hex="2014"/>
  <outline>
    <contour>
      <point x="0" y="591" type="line"/>
      <point x="1240" y="591" type="line"/>
      <point x="1240" y="701" type="line"/>
      <point x="0" y="701" type="line"/>
    </contour>
  </outline>
</glyph>
<glyph name="quotedblleft" format="2">
  <advance width="1240"/>
  <unicode hex="201C"/>
  <outline>
    <contour>
      <point x="369" y="1108" type="curve" smooth="yes"/>
      <point x="347" y="1108"/>
      <point x="321" y="1105"/>
      <point x="292" y="1093" type="curve"/>
      <point x="310" y="1071" type="line"/>
      <point x="331" y="1198"/>
      <point x="414" y="1312"/>
      <point x="540" y="1434" type="curve"/>
      <point x="470" y="1494" type="line"/>
      <point x="329" y="1369"/>
      <point x="200" y="1188"/>
      <point x="200" y="1005" type="curve" smooth="yes"/>
      <point x="200" y="860"/>
      <point x="281" y="797"/>
      <point x="375" y="797" type="curve" smooth="yes"/>
      <point x="462" y="797"/>
      <point x="533" y="851"/>
      <point x="533" y="951" type="curve" smooth="yes"/>
      <point x="533" y="1047"/>
      <point x="468" y="1108"/>
    </contour>
    <contour>
      <point x="869" y="1108" type="curve" smooth="yes"/>
      <point x="847" y="1108"/>
      <point x="821" y="1105"/>
      <point x="792" y="1093" type="curve"/>
      <point x="810" y="1071" type="line"/>
      <point x="831" y="1198"/>
      <point x="914" y="1312"/>
      <point x="1040" y="1434" type="curve"/>
      <point x="970" y="1494" type="line"/>
      <point x="829" y="1369"/>
      <point x="700" y="1188"/>
      <point x="700" y="1005" type="curve" smooth="yes"/>
      <point x="700" y="860"/>
      <point x="781" y="797"/>
      <point x="875" y="797" type="curve" smooth="yes"/>
      <point x="962" y="797"/>
      <point x="1033" y="851"/>
      <point x="1033" y="951" type="curve" smooth="yes"/>
      <point x="1033" y="1047"/>
      <point x="968" y="1108"/>
    </contour>
  </outline>
</glyph>
<glyph name="quotedblbase" format="2">
  <advance width="1240"/>
  <unicode hex="201E"/>
  <outline>
    <contour>
      <point x="371" y="-32" type="curve" smooth="yes"/>
      <point x="393" y="-32"/>
      <point x="419" y="-29"/>
      <point x="448" y="-17" type="curve"/>
      <point x="430" y="5" type="line"/>
      <point x="409" y="-122"/>
      <point x="326" y="-236"/>
      <point x="200" y="-358" type="curve"/>
      <point x="270" y="-418" type="line"/>
      <point x="411" y="-293"/>
      <point x="540" y="-112"/>
      <point x="540" y="71" type="curve" smooth="yes"/>
      <point x="540" y="216"/>
      <point x="459" y="279"/>
      <point x="365" y="279" type="curve" smooth="yes"/>
      <point x="278" y="279"/>
      <point x="207" y="225"/>
      <point x="207" y="125" type="curve" smooth="yes"/>
      <point x="207" y="29"/>
      <point x="272" y="-32"/>
    </contour>
    <contour>
      <point x="871" y="-32" type="curve" smooth="yes"/>
      <point x="893" y="-32"/>
      <point x="919" y="-29"/>
      <point x="948" y="-17" type="curve"/>
      <point x="930" y="5" type="line"/>
      <point x="909" y="-122"/>
      <point x="826" y="-236"/>
      <point x="700" y="-358" type="curve"/>
      <point x="770" y="-418" type="line"/>
      <point x="911" y="-293"/>
      <point x="1040" y="-112"/>
      <point x="1040" y="71" type="curve" smooth="yes"/>
      <point x="1040" y="216"/>
      <point x="959" y="279"/>
      <point x="865" y="279" type="curve" smooth="yes"/>
      <point x="778" y="279"/>
      <point x="707" y="225"/>
      <point x="707" y="125" type="curve" smooth="yes"/>
      <point x="707" y="29"/>
      <point x="772" y="-32"/>
    </contour>
  </outline>
</glyph>
<glyph name="dagger" format="2">
  <advance width="1240"/>
  <unicode hex="2020"/>
  <outline>
    <contour>
      <point x="683" y="-200" type="line"/>
      <point x="683" y="1460" type="line"/>
      <point x="557" y="1460" type="line"/>
      <point x="557" y="-200" type="line"/>
    </contour>
    <contour>
      <point x="167" y="900" type="line"/>
      <point x="1073" y="900" type="line"/>
      <point x="1073" y="1010" type="line"/>
      <point x="167" y="1010" type="line"/>
    </contour>
  </outline>
</glyph>
<glyph name="bullet" format="2">
  <advance width="1240"/>
  <unicode hex="2022"/>
  <outline>
    <contour>
      <point x="619.47" y="417.476" type="curve" smooth="yes"/>
      <point x="750.167" y="417.476"/>
      <point x="852.961" y="502.649"/>
      <point x="852.961" y="645.094" type="curve" smooth="yes"/>
      <point x="852.961" y="790.476"/>
      <point x="750.167" y="872.712"/>
      <point x="619.47" y="872.712" type="curve" smooth="yes"/>
      <point x="490.242" y="872.712"/>
      <point x="387.447" y="790.476"/>
      <point x="387.447" y="645.094" type="curve" smooth="yes"/>
      <point x="387.447" y="502.649"/>
      <point x="490.242" y="417.476"/>
    </contour>
  </outline>
</glyph>
<glyph name="triangularbullet" format="2">
  <advance width="1240"/>
  <unicode hex="2023"/>
  <outline>
    <contour>
      <point x="392" y="950" type="line"/>
      <point x="392" y="339" type="line"/>
      <point x="926" y="645" type="line"/>
    </contour>
  </outline>
</glyph>
<glyph name="guilsinglright" format="2">
  <advance width="1240"/>
  <unicode hex="203A"/>
  <outline>
    <contour>
      <point x="420" y="961" type="line"/>
      <point x="795" y="457" type="line"/>
      <point x="900" y="500" type="line"/>
      <point x="511" y="1024" type="line"/>
    </contour>
    <contour>
      <point x="511" y="-24" type="line"/>
      <point x="900" y="500" type="line"/>
      <point x="797" y="542" type="line"/>
      <point x="420" y="39" type="line"/>
    </contour>
  </outline>
</glyph>
<glyph name="sevensuperior" format="2">
  <advance width="1240"/>
  <unicode hex="2077"/>
  <outline>
    <contour>
      <point x="409" y="1655" type="line"/>
      <point x="409" y="1575" type="line"/>
      <point x="774" y="1575" type="line"/>
      <point x="739" y="1602" type="line"/>
      <point x="515" y="1100" type="line"/>
      <point x="617" y="1100" type="line"/>
      <point x="835" y="1595" type="line"/>
      <point x="835" y="1655" type="line"/>
    </contour>
  </outline>
</glyph>
<glyph name="zeroinferior" format="2">
  <advance width="1240"/>
  <unicode hex="2080"/>
  <outline>
    <contour>
      <point x="857" y="-2" type="curve" smooth="yes"/>
      <point x="857" y="198"/>
      <point x="768" y="284"/>
      <point x="620" y="284" type="curve" smooth="yes"/>
      <point x="472" y="284"/>
      <point x="383" y="198"/>
      <point x="383" y="-2" type="curve" smooth="yes"/>
      <point x="383" y="-196"/>
      <point x="472" y="-289"/>
      <point x="620" y="-289" type="curve" smooth="yes"/>
      <point x="768" y="-289"/>
      <point x="857" y="-196"/>
    </contour>
    <contour>
      <point x="754" y="-2" type="curve" smooth="yes"/>
      <point x="754" y="-154"/>
      <point x="708" y="-206"/>
      <point x="620" y="-206" type="curve" smooth="yes"/>
      <point x="532" y="-206"/>
      <point x="486" y="-154"/>
      <point x="486" y="-2" type="curve" smooth="yes"/>
      <point x="486" y="149"/>
      <point x="532" y="201"/>
      <point x="620" y="201" type="curve" smooth="yes"/>
      <point x="708" y="201"/>
      <point x="754" y="149"/>
    </contour>
    <contour>
      <point x="620" y="-63" type="curve" smooth="yes"/>
      <point x="587" y="-63"/>
      <point x="569" y="-41"/>
      <point x="569" y="-5" type="curve" smooth="yes"/>
      <point x="569" y="32"/>
      <point x="587" y="54"/>
      <point x="620" y="54" type="curve" smooth="yes"/>
      <point x="653" y="54"/>
      <point x="671" y="33"/>
      <point x="671" y="-5" type="curve" smooth="yes"/>
      <point x="671" y="-41"/>
      <point x="653" y="-63"/>
    </contour>
  </outline>
</glyph>
<glyph name="threeinferior" format="2">
  <advance width="1240"/>
  <unicode hex="2083"/>
  <outline>
    <contour>
      <point x="598" y="284" type="curve" smooth="yes"/>
      <point x="469" y="284"/>
      <point x="397" y="228"/>
      <point x="394" y="126" type="curve"/>
      <point x="485" y="117" type="line"/>
      <point x="494" y="188"/>
      <point x="535" y="207"/>
      <point x="601" y="207" type="curve" smooth="yes"/>
      <point x="671" y="207"/>
      <point x="714" y="187"/>
      <point x="714" y="129" type="curve" smooth="yes"/>
      <point x="714" y="68"/>
      <point x="652" y="30"/>
      <point x="556" y="30" type="curve" smooth="yes"/>
      <point x="542" y="30" type="line"/>
      <point x="542" y="-41" type="line"/>
      <point x="557" y="-41" type="line" smooth="yes"/>
      <point x="649" y="-41"/>
      <point x="726" y="-66"/>
      <point x="726" y="-126" type="curve" smooth="yes"/>
      <point x="726" y="-184"/>
      <point x="683" y="-211"/>
      <point x="604" y="-211" type="curve" smooth="yes"/>
      <point x="529" y="-211"/>
      <point x="485" y="-191"/>
      <point x="473" y="-116" type="curve"/>
      <point x="380" y="-125" type="line"/>
      <point x="382" y="-233"/>
      <point x="457" y="-289"/>
      <point x="604" y="-289" type="curve" smooth="yes"/>
      <point x="748" y="-289"/>
      <point x="827" y="-232"/>
      <point x="827" y="-130" type="curve" smooth="yes"/>
      <point x="827" y="-22"/>
      <point x="734" y="6"/>
      <point x="636" y="12" type="curve"/>
      <point x="636" y="-15" type="line"/>
      <point x="717" y="-8"/>
      <point x="810" y="34"/>
      <point x="810" y="136" type="curve" smooth="yes"/>
      <point x="810" y="234"/>
      <point x="730" y="284"/>
    </contour>
  </outline>
</glyph>
<glyph name="leftArrow" format="2">
  <advance width="1240"/>
  <unicode hex="2190"/>
  <outline>
    <contour>
      <point x="144" y="730" type="line"/>
      <point x="617" y="255" type="line"/>
      <point x="698" y="336" type="line"/>
      <point x="275" y="755" type="line"/>
      <point x="275" y="705" type="line"/>
      <point x="698" y="1124" type="line"/>
      <point x="617" y="1205" type="line"/>
    </contour>
    <contour>
      <point x="263" y="671" type="line"/>
      <point x="1106" y="671" type="line"/>
      <point x="1106" y="789" type="line"/>
      <point x="263" y="789" type="line"/>
    </contour>
    <contour>
      <point x="337" y="888" type="line"/>
      <point x="275" y="730" type="line"/>
      <point x="338" y="572" type="line"/>
      <point x="397" y="730" type="line"/>
    </contour>
  </outline>
</glyph>
<glyph name="existential" format="2">
  <advance width="1240"/>
  <unicode hex="2203"/>
  <outline>
    <contour>
      <point x="162" y="0" type="line"/>
      <point x="1023" y="0" type="line"/>
      <point x="1023" y="1460" type="line"/>
      <point x="162" y="1460" type="line"/>
      <point x="162" y="1350" type="line"/>
      <point x="942" y="1350" type="line"/>
      <point x="897" y="1395" type="line"/>
      <point x="897" y="754" type="line"/>
      <point x="942" y="799" type="line"/>
      <point x="285" y="799" type="line"/>
      <point x="285" y="694" type="line"/>
      <point x="942" y="694" type="line"/>
      <point x="897" y="739" type="line"/>
      <point x="897" y="65" type="line"/>
      <point x="942" y="110" type="line"/>
      <point x="162" y="110" type="line"/>
    </contour>
  </outline>
</glyph>
<glyph name="gradient" format="2">
  <advance width="1240"/>
  <unicode hex="2207"/>
  <outline>
    <contour>
      <point x="106" y="1351" type="line"/>
      <point x="552" y="1" type="line"/>
      <point x="690" y="1" type="line"/>
      <point x="1135" y="1351" type="line"/>
      <point x="1006" y="1388" type="line"/>
      <point x="1006" y="1342" type="line"/>
      <point x="627" y="152" type="line"/>
      <point x="616" y="152" type="line"/>
      <point x="238" y="1342" type="line"/>
      <point x="238" y="1384" type="line"/>
    </contour>
    <contour>
      <point x="1135" y="1461" type="line"/>
      <point x="107" y="1461" type="line"/>
      <point x="106" y="1351" type="line"/>
      <point x="1135" y="1351" type="line"/>
    </contour>
  </outline>
</glyph>
<glyph name="coproduct" format="2">
  <advance width="1240"/>
  <unicode hex="2210"/>
  <outline>
    <contour>
      <point x="834" y="1460" type="line"/>
      <point x="834" y="-400" type="line"/>
      <point x="960" y="-400" type="line"/>
      <point x="960" y="1460" type="line"/>
    </contour>
    <contour>
      <point x="1113" y="-290" type="line"/>
      <point x="127" y="-290" type="line"/>
      <point x="127" y="-400" type="line"/>
      <point x="1113" y="-400" type="line"/>
    </contour>
    <contour>
      <point x="280" y="1460" type="line"/>
      <point x="280" y="-400" type="line"/>
      <point x="406" y="-400" type="line"/>
      <point x="406" y="1460" type="line"/>
    </contour>
  </outline>
</glyph>
<glyph name="summation" format="2">
  <advance width="1240"/>
  <unicode hex="2211"/>
  <outline>
    <contour>
      <point x="671" y="569" type="line"/>
      <point x="170" y="-318" type="line"/>
      <point x="183" y="-400" type="line"/>
      <point x="1050" y="-400" type="line"/>
      <point x="1050" y="-290" type="line"/>
      <point x="271" y="-290" type="line"/>
      <point x="299" y="-334" type="line"/>
      <point x="787" y="533" type="line"/>
      <point x="299" y="1400" type="line"/>
      <point x="271" y="1350" type="line"/>
      <point x="1050" y="1350" type="line"/>
      <point x="1050" y="1460" type="line"/>
      <point x="183" y="1460" type="line"/>
      <point x="170" y="1378" type="line"/>
      <point x="671" y="491" type="line"/>
    </contour>
  </outline>
</glyph>
<glyph name="angle" format="2">
  <advance width="1240"/>
  <unicode hex="2220"/>
  <outline>
    <contour>
      <point x="1040" y="0" type="line"/>
      <point x="1040" y="110" type="line"/>
      <point x="332" y="110" type="line"/>
      <point x="325" y="123" type="line"/>
      <point x="764" y="965" type="line"/>
      <point x="654" y="1013" type="line"/>
      <point x="150" y="41" type="line"/>
      <point x="167" y="0" type="line"/>
    </contour>
  </outline>
</glyph>
<glyph name="logicaland" format="2">
  <advance width="1240"/>
  <unicode hex="2227"/>
  <outline>
    <contour>
      <point x="1112" y="235" type="line"/>
      <point x="634" y="1235" type="line"/>
      <point x="595" y="1235" type="line"/>
      <point x="129" y="235" type="line"/>
      <point x="246" y="235" type="line"/>
      <point x="603" y="1009" type="line"/>
      <point x="617" y="1009" type="line"/>
      <point x="982" y="235" type="line"/>
    </contour>
  </outline>
</glyph>
<glyph name="logicalor" format="2">
  <advance width="1240"/>
  <unicode hex="2228"/>
  <outline>
    <contour>
      <point x="128" y="1225" type="line"/>
      <point x="606" y="225" type="line"/>
      <point x="645" y="225" type="line"/>
      <point x="1111" y="1225" type="line"/>
      <point x="994" y="1225" type="line"/>
      <point x="637" y="451" type="line"/>
      <point x="623" y="451" type="line"/>
      <point x="258" y="1225" type="line"/>
    </contour>
  </outline>
</glyph>
<glyph name="therefore" format="2">
  <advance width="1240"/>
  <unicode hex="2234"/>
  <outline>
    <contour>
      <point x="298" y="230" type="curve" smooth="yes"/>
      <point x="387" y="230"/>
      <point x="457" y="288"/>
      <point x="457" y="385" type="curve" smooth="yes"/>
      <point x="457" y="484"/>
      <point x="387" y="540"/>
      <point x="298" y="540" type="curve" smooth="yes"/>
      <point x="210" y="540"/>
      <point x="140" y="484"/>
      <point x="140" y="385" type="curve" smooth="yes"/>
      <point x="140" y="288"/>
      <point x="210" y="230"/>
    </contour>
    <contour>
      <point x="620" y="921" type="curve" smooth="yes"/>
      <point x="709" y="921"/>
      <point x="779" y="979"/>
      <point x="779" y="1076" type="curve" smooth="yes"/>
      <point x="779" y="1175"/>
      <point x="709" y="1231"/>
      <point x="620" y="1231" type="curve" smooth="yes"/>
      <point x="532" y="1231"/>
      <point x="462" y="1175"/>
      <point x="462" y="1076" type="curve" smooth="yes"/>
      <point x="462" y="979"/>
      <point x="532" y="921"/>
    </contour>
    <contour>
      <point x="941" y="230" type="curve" smooth="yes"/>
      <point x="1030" y="230"/>
      <point x="1100" y="288"/>
      <point x="1100" y="385" type="curve" smooth="yes"/>
      <point x="1100" y="484"/>
      <point x="1030" y="540"/>
      <point x="941" y="540" type="curve" smooth="yes"/>
      <point x="853" y="540"/>
      <point x="783" y="484"/>
      <point x="783" y="385" type="curve" smooth="yes"/>
      <point x="783" y="288"/>
      <point x="853" y="230"/>
    </contour>
  </outline>
</glyph>
<glyph name="equivalence" format="2">
  <advance width="1240"/>
  <unicode hex="2261"/>
  <outline>
    <contour>
      <point x="170" y="1019" type="line"/>
      <point x="1070" y="1019" type="line"/>
      <point x="1070" y="1129" type="line"/>
      <point x="170" y="1129" type="line"/>
    </contour>
    <contour>
      <point x="170" y="589" type="line"/>
      <point x="1070" y="589" type="line"/>
      <point x="1070" y="699" type="line"/>
      <point x="170" y="699" type="line"/>
    </contour>
    <contour>
      <point x="170" y="159" type="line"/>
      <point x="1070" y="159" type="line"/>
      <point x="1070" y="269" type="line"/>
      <point x="170" y="269" type="line"/>
    </contour>
  </outline>
</glyph>
<glyph name="greaterequal" format="2">
  <advance width="1240"/>
  <unicode hex="2265"/>
  <outline>
    <contour>
      <point x="170" y="203" type="line"/>
      <point x="1070" y="203" type="line"/>
      <point x="1070" y="313" type="line"/>
      <point x="170" y="313" type="line"/>
    </contour>
    <contour>
      <point x="209" y="550" type="line"/>
      <point x="1070" y="952" type="line"/>
      <point x="1070" y="1050" type="line"/>
      <point x="209" y="1452" type="line"/>
      <point x="162" y="1352" type="line"/>
      <point x="901" y="1007" type="line"/>
      <point x="901" y="993" type="line"/>
      <point x="162" y="650" type="line"/>
    </contour>
  </outline>
</glyph>
<glyph name="subset" format="2">
  <advance width="1240"/>
  <unicode hex="2282"/>
  <outline>
    <contour>
      <point x="306" y="500" type="curve" smooth="yes"/>
      <point x="306" y="820"/>
      <point x="489" y="891"/>
      <point x="754" y="891" type="curve" smooth="yes"/>
      <point x="1015" y="891" type="line"/>
      <point x="1015" y="1000" type="line"/>
      <point x="720" y="1000" type="line" smooth="yes"/>
      <point x="420" y="1000"/>
      <point x="172" y="889"/>
      <point x="172" y="500" type="curve" smooth="yes"/>
      <point x="172" y="111"/>
      <point x="420" y="0"/>
      <point x="720" y="0" type="curve" smooth="yes"/>
      <point x="1015" y="0" type="line"/>
      <point x="1015" y="109" type="line"/>
      <point x="754" y="109" type="line" smooth="yes"/>
      <point x="489" y="109"/>
      <point x="306" y="180"/>
    </contour>
  </outline>
</glyph>
<glyph name="upBlackSmallTriangle" format="2">
  <advance width="1240"/>
  <unicode hex="25B4"/>
  <outline>
    <contour>
      <point x="314" y="480" type="line"/>
      <point x="925" y="480" type="line"/>
      <point x="619" y="1014" type="line"/>
    </contour>
  </outline>
</glyph>
<glyph name="rightBlackTriangle" format="2">
  <advance width="1240"/>
  <unicode hex="25B6"/>
  <outline>
    <contour>
      <point x="183" y="1271" type="line"/>
      <point x="183" y="185" type="line"/>
      <point x="1135" y="729" type="line"/>
    </contour>
  </outline>
</glyph>
<glyph name="rightBlackSmallTriangle" format="2">
  <advance width="1240"/>
  <unicode hex="25B8"/>
  <outline>
    <contour>
      <point x="392" y="1034" type="line"/>
      <point x="392" y="423" type="line"/>
      <point x="926" y="729" type="line"/>
    </contour>
  </outline>
</glyph>
<glyph name="downBlackTriangle" format="2">
  <advance width="1240"/>
  <unicode hex="25BC"/>
  <outline>
    <contour>
      <point x="1163" y="1192" type="line"/>
      <point x="77" y="1192" type="line"/>
      <point x="621" y="240" type="line"/>
    </contour>
  </outline>
</glyph>
<glyph name="downBlackSmallTriangle" format="2">
  <advance width="1240"/>
  <unicode hex="25BE"/>
  <outline>
    <contour>
      <point x="925" y="978" type="line"/>
      <point x="314" y="978" type="line"/>
      <point x="620" y="444" type="line"/>
    </contour>
  </outline>
</glyph>
<glyph name="leftBlackSmallTriangle" format="2">
  <advance width="1240"/>
  <unicode hex="25C2"/>
  <outline>
    <contour>
      <point x="848" y="424" type="line"/>
      <point x="848" y="1035" type="line"/>
      <point x="314" y="729" type="line"/>
    </contour>
  </outline>
</glyph>
<glyph name="lozenge" format="2">
  <advance width="1240"/>
  <unicode hex="25CA"/>
  <outline>
    <contour>
      <point x="128" y="730" type="line"/>
      <point x="560" y="0" type="line"/>
      <point x="679" y="0" type="line"/>
      <point x="1111" y="730" type="line"/>
      <point x="1009" y="772" type="line"/>
      <point x="627" y="108" type="line"/>
      <point x="612" y="108" type="line"/>
      <point x="231" y="772" type="line"/>
    </contour>
    <contour>
      <point x="1111" y="730" type="line"/>
      <point x="679" y="1460" type="line"/>
      <point x="560" y="1460" type="line"/>
      <point x="128" y="730" type="line"/>
      <point x="231" y="688" type="line"/>
      <point x="612" y="1352" type="line"/>
      <point x="627" y="1352" type="line"/>
      <point x="1009" y="688" type="line"/>
    </contour>
  </outline>
</glyph>
<glyph name="rightTipDownArrow" format="2">
  <advance width="1240"/>
  <unicode hex="2B0E"/>
  <outline>
    <contour>
      <point x="665" y="212" type="line"/>
      <point x="1140" y="685" type="line"/>
      <point x="1059" y="766" type="line"/>
      <point x="640" y="343" type="line"/>
      <point x="690" y="343" type="line"/>
      <point x="271" y="766" type="line"/>
      <point x="190" y="685" type="line"/>
    </contour>
    <contour>
      <point x="606" y="331" type="line"/>
      <point x="724" y="331" type="line"/>
      <point x="724" y="1232" type="line"/>
      <point x="606" y="1232" type="line"/>
    </contour>
    <contour>
      <point x="823" y="405" type="line"/>
      <point x="665" y="465" type="line"/>
      <point x="507" y="406" type="line"/>
      <point x="665" y="343" type="line"/>
    </contour>
    <contour>
      <point x="724" y="1111" type="line"/>
      <point x="724" y="1232" type="line"/>
      <point x="120" y="1232" type="line"/>
      <point x="120" y="1111" type="line"/>
    </contour>
  </outline>
</glyph>
<glyph name="A.alt3" format="2">
  <advance width="1240"/>
  <outline>
    <contour>
      <point x="207" y="0" type="line"/>
      <point x="333" y="0" type="line"/>
      <point x="333" y="829" type="line"/>
      <point x="640" y="1380" type="line"/>
      <point x="600" y="1380" type="line"/>
      <point x="907" y="833" type="line"/>
      <point x="907" y="0" type="line"/>
      <point x="1033" y="0" type="line"/>
      <point x="1033" y="861" type="line"/>
      <point x="693" y="1460" type="line"/>
      <point x="547" y="1460" type="line"/>
      <point x="207" y="861" type="line"/>
    </contour>
    <contour>
      <point x="286" y="449" type="line"/>
      <point x="949" y="449" type="line"/>
      <point x="949" y="552" type="line"/>
      <point x="286" y="552" type="line"/>
    </contour>
  </outline>
</glyph>
<glyph name="AE.alt5" format="2">
  <advance width="1240"/>
  <outline>
    <contour>
      <point x="644" y="0" type="line"/>
      <point x="770" y="0" type="line"/>
      <point x="770" y="1460" type="line"/>
      <point x="644" y="1460" type="line"/>
    </contour>
    <contour>
      <point x="117" y="0" type="line"/>
      <point x="243" y="0" type="line"/>
      <point x="243" y="829" type="line"/>
      <point x="510" y="1350" type="line"/>
      <point x="698" y="1350" type="line"/>
      <point x="698" y="1460" type="line"/>
      <point x="437" y="1460" type="line"/>
      <point x="117" y="861" type="line"/>
    </contour>
    <contour>
      <point x="196" y="449" type="line"/>
      <point x="709" y="449" type="line"/>
      <point x="709" y="552" type="line"/>
      <point x="196" y="552" type="line"/>
    </contour>
    <contour>
      <point x="729" y="0" type="line"/>
      <point x="1128" y="0" type="line"/>
      <point x="1148" y="110" type="line"/>
      <point x="729" y="110" type="line"/>
    </contour>
    <contour>
      <point x="729" y="674" type="line"/>
      <point x="1045" y="674" type="line"/>
      <point x="1045" y="779" type="line"/>
      <point x="729" y="779" type="line"/>
    </contour>
    <contour>
      <point x="729" y="1350" type="line"/>
      <point x="1118" y="1350" type="line"/>
      <point x="1098" y="1460" type="line"/>
      <point x="729" y="1460" type="line"/>
    </contour>
  </outline>
</glyph>
<glyph name="Adieresis.alt5" format="2">
  <advance width="1240"/>
  <outline>
    <contour>
      <point x="207" y="0" type="line"/>
      <point x="333" y="0" type="line"/>
      <point x="333" y="829" type="line"/>
      <point x="640" y="1380" type="line"/>
      <point x="600" y="1380" type="line"/>
      <point x="907" y="833" type="line"/>
      <point x="907" y="0" type="line"/>
      <point x="1033" y="0" type="line"/>
      <point x="1033" y="861" type="line"/>
      <point x="693" y="1460" type="line"/>
      <point x="547" y="1460" type="line"/>
      <point x="207" y="861" type="line"/>
    </contour>
    <contour>
      <point x="286" y="449" type="line"/>
      <point x="949" y="449" type="line"/>
      <point x="949" y="552" type="line"/>
      <point x="286" y="552" type="line"/>
    </contour>
    <contour>
      <point x="373.6" y="1626" type="line"/>
      <point x="507.86" y="1756" type="line"/>
      <point x="373.6" y="1886" type="line"/>
      <point x="239.34" y="1756" type="line"/>
    </contour>
    <contour>
      <point x="866.6" y="1626" type="line"/>
      <point x="1000.86" y="1756" type="line"/>
      <point x="866.6" y="1886" type="line"/>
      <point x="732.34" y="1756" type="line"/>
    </contour>
  </outline>
</glyph>
<glyph name="Amacron.alt1" format="2">
  <advance width="1240"/>
  <outline>
    <contour>
      <point x="207" y="0" type="line"/>
      <point x="333" y="0" type="line"/>
      <point x="333" y="829" type="line"/>
      <point x="640" y="1380" type="line"/>
      <point x="600" y="1380" type="line"/>
      <point x="907" y="833" type="line"/>
      <point x="907" y="0" type="line"/>
      <point x="1033" y="0" type="line"/>
      <point x="1033" y="861" type="line"/>
      <point x="693" y="1460" type="line"/>
      <point x="547" y="1460" type="line"/>
      <point x="207" y="861" type="line"/>
    </contour>
    <contour>
      <point x="286" y="449" type="line"/>
      <point x="949" y="449" type="line"/>
      <point x="949" y="552" type="line"/>
      <point x="286" y="552" type="line"/>
    </contour>
    <contour>
      <point x="313" y="1731" type="line"/>
      <point x="927" y="1731" type="line"/>
      <point x="927" y="1831" type="line"/>
      <point x="313" y="1831" type="line"/>
    </contour>
  </outline>
</glyph>
<glyph name="B.alt2" format="2">
  <advance width="1240"/>
  <outline>
    <contour>
      <point x="259" y="0" type="line"/>
      <point x="793" y="0" type="line"/>
      <point x="1090" y="268" type="line"/>
      <point x="1090" y="526" type="line"/>
      <point x="793" y="800" type="line"/>
      <point x="793" y="716" type="line"/>
      <point x="1030" y="988" type="line"/>
      <point x="1030" y="1192" type="line"/>
      <point x="793" y="1460" type="line"/>
      <point x="259" y="1460" type="line"/>
      <point x="259" y="1360" type="line"/>
      <point x="734" y="1360" type="line"/>
      <point x="904" y="1153" type="line"/>
      <point x="904" y="1023" type="line"/>
      <point x="734" y="807" type="line"/>
      <point x="259" y="807" type="line"/>
      <point x="259" y="707" type="line"/>
      <point x="734" y="707" type="line"/>
      <point x="964" y="491" type="line"/>
      <point x="964" y="307" type="line"/>
      <point x="734" y="100" type="line"/>
      <point x="259" y="100" type="line"/>
    </contour>
    <contour>
      <point x="217" y="0" type="line"/>
      <point x="343" y="0" type="line"/>
      <point x="343" y="1460" type="line"/>
      <point x="217" y="1460" type="line"/>
    </contour>
  </outline>
</glyph>
<glyph name="Cacute.alt5" format="2">
  <advance width="1240"/>
  <outline>
    <contour>
      <point x="510" y="0" type="line"/>
      <point x="1070" y="0" type="line"/>
      <point x="1090" y="110" type="line"/>
      <point x="580" y="110" type="line"/>
      <point x="256" y="570" type="line"/>
      <point x="256" y="900" type="line"/>
      <point x="580" y="1350" type="line"/>
      <point x="1090" y="1350" type="line"/>
      <point x="1070" y="1460" type="line"/>
      <point x="510" y="1460" type="line"/>
      <point x="130" y="933" type="line"/>
      <point x="130" y="537" type="line"/>
    </contour>
    <contour>
      <point x="745" y="1650.191" type="line"/>
      <point x="636" y="1650.191" type="line"/>
      <point x="858" y="1883.236" type="line"/>
      <point x="998" y="1883.236" type="line"/>
    </contour>
  </outline>
</glyph>
<glyph name="Cdotaccent.alt1" format="2">
  <advance width="1240"/>
  <outline>
    <contour>
      <point x="510" y="0" type="line"/>
      <point x="1070" y="0" type="line"/>
      <point x="1090" y="110" type="line"/>
      <point x="580" y="110" type="line"/>
      <point x="256" y="570" type="line"/>
      <point x="256" y="900" type="line"/>
      <point x="580" y="1350" type="line"/>
      <point x="1090" y="1350" type="line"/>
      <point x="1070" y="1460" type="line"/>
      <point x="510" y="1460" type="line"/>
      <point x="130" y="933" type="line"/>
      <point x="130" y="537" type="line"/>
    </contour>
    <contour>
      <point x="700" y="1626" type="line"/>
      <point x="837" y="1756" type="line"/>
      <point x="700" y="1886" type="line"/>
      <point x="563" y="1756" type="line"/>
    </contour>
  </outline>
</glyph>
<glyph name="D.alt3" format="2">
  <advance width="1240"/>
  <outline>
    <contour>
      <point x="260" y="0" type="line"/>
      <point x="730" y="0" type="line"/>
      <point x="1110" y="540" type="line"/>
      <point x="1110" y="930" type="line"/>
      <point x="730" y="1460" type="line"/>
      <point x="260" y="1460" type="line"/>
      <point x="260" y="1350" type="line"/>
      <point x="664" y="1350" type="line"/>
      <point x="984" y="900" type="line"/>
      <point x="984" y="570" type="line"/>
      <point x="664" y="110" type="line"/>
      <point x="260" y="110" type="line"/>
    </contour>
    <contour>
      <point x="207" y="0" type="line"/>
      <point x="333" y="0" type="line"/>
      <point x="333" y="1460" type="line"/>
      <point x="207" y="1460" type="line"/>
    </contour>
  </outline>
</glyph>
<glyph name="E.alt2" format="2">
  <advance width="1240"/>
  <outline>
    <contour>
      <point x="343" y="0" type="line"/>
      <point x="343" y="1460" type="line"/>
      <point x="217" y="1460" type="line"/>
      <point x="217" y="0" type="line"/>
    </contour>
    <contour>
      <point x="1078" y="110" type="line"/>
      <point x="302" y="110" type="line"/>
      <point x="302" y="0" type="line"/>
      <point x="1058" y="0" type="line"/>
    </contour>
    <contour>
      <point x="915" y="779" type="line"/>
      <point x="302" y="779" type="line"/>
      <point x="302" y="674" type="line"/>
      <point x="915" y="674" type="line"/>
    </contour>
    <contour>
      <point x="1038" y="1350" type="line"/>
      <point x="1018" y="1460" type="line"/>
      <point x="302" y="1460" type="line"/>
      <point x="302" y="1350" type="line"/>
    </contour>
  </outline>
</glyph>
<glyph name="Emacron.alt5" format="2">
  <advance width="1240"/>
  <outline>
    <contour>
      <point x="343" y="0" type="line"/>
      <point x="343" y="1460" type="line"/>
      <point x="217" y="1460" type="line"/>
      <point x="217" y="0" type="line"/>
    </contour>
    <contour>
      <point x="1078" y="110" type="line"/>
      <point x="302" y="110" type="line"/>
      <point x="302" y="0" type="line"/>
      <point x="1058" y="0" type="line"/>
    </contour>
    <contour>
      <point x="915" y="779" type="line"/>
      <point x="302" y="779" type="line"/>
      <point x="302" y="674" type="line"/>
      <point x="915" y="674" type="line"/>
    </contour>
    <contour>
      <point x="1038" y="1350" type="line"/>
      <point x="1018" y="1460" type="line"/>
      <point x="302" y="1460" type="line"/>
      <point x="302" y="1350" type="line"/>
    </contour>
    <contour>
      <point x="343" y="1731" type="line"/>
      <point x="957" y="1731" type="line"/>
      <point x="957" y="1831" type="line"/>
      <point x="343" y="1831" type="line"/>
    </contour>
  </outline>
</glyph>
<glyph name="Eogonek.alt1" format="2">
  <advance width="1240"/>
  <outline>
    <contour>
      <point x="343" y="0" type="line"/>
      <point x="343" y="1460" type="line"/>
      <point x="217" y="1460" type="line"/>
      <point x="217" y="0" type="line"/>
    </contour>
    <contour>
      <point x="1078" y="110" type="line"/>
      <point x="302" y="110" type="line"/>
      <point x="302" y="0" type="line"/>
      <point x="1058" y="0" type="line"/>
    </contour>
    <contour>
      <point x="915" y="779" type="line"/>
      <point x="302" y="779" type="line"/>
      <point x="302" y="674" type="line"/>
      <point x="915" y="674" type="line"/>
    </contour>
    <contour>
      <point x="1038" y="1350" type="line"/>
      <point x="1018" y="1460" type="line"/>
      <point x="302" y="1460" type="line"/>
      <point x="302" y="1350" type="line"/>
    </contour>
    <contour>
      <point x="808" y="-122" type="line"/>
      <point x="808" y="-310" type="line"/>
      <point x="946" y="-400" type="line"/>
      <point x="1058" y="-400" type="line"/>
      <point x="1058" y="-310" type="line"/>
      <point x="977" y="-310" type="line"/>
      <point x="910" y="-262" type="line"/>
      <point x="910" y="-151" type="line"/>
      <point x="1058" y="0" type="line"/>
      <point x="976" y="37" type="line"/>
    </contour>
  </outline>
</glyph>
<glyph name="F.alt4" format="2">
  <advance width="1240"/>
  <outline>
    <contour>
      <point x="227" y="0" type="line"/>
      <point x="353" y="0" type="line"/>
      <point x="353" y="1460" type="line"/>
      <point x="227" y="1460" type="line"/>
    </contour>
    <contour>
      <point x="312" y="627" type="line"/>
      <point x="965" y="627" type="line"/>
      <point x="965" y="726" type="line"/>
      <point x="312" y="726" type="line"/>
    </contour>
    <contour>
      <point x="312" y="1360" type="line"/>
      <point x="1088" y="1360" type="line"/>
      <point x="1068" y="1460" type="line"/>
      <point x="312" y="1460" type="line"/>
    </contour>
  </outline>
</glyph>
<glyph name="Gbreve.alt5" format="2">
  <advance width="1240"/>
  <outline>
    <contour>
      <point x="510" y="0" type="line"/>
      <point x="1000" y="0" type="line"/>
      <point x="1102" y="114" type="line"/>
      <point x="1102" y="763" type="line"/>
      <point x="656" y="763" type="line"/>
      <point x="656" y="659" type="line"/>
      <point x="1047" y="659" type="line"/>
      <point x="990" y="704" type="line"/>
      <point x="990" y="176" type="line"/>
      <point x="930" y="110" type="line"/>
      <point x="576" y="110" type="line"/>
      <point x="256" y="570" type="line"/>
      <point x="256" y="900" type="line"/>
      <point x="576" y="1350" type="line"/>
      <point x="1050" y="1350" type="line"/>
      <point x="1030" y="1460" type="line"/>
      <point x="510" y="1460" type="line"/>
      <point x="130" y="930" type="line"/>
      <point x="130" y="540" type="line"/>
    </contour>
    <contour>
      <point x="543" y="1643" type="line"/>
      <point x="837" y="1643" type="line"/>
      <point x="957" y="1760" type="line"/>
      <point x="957" y="1883" type="line"/>
      <point x="867" y="1883" type="line"/>
      <point x="867" y="1797" type="line"/>
      <point x="797" y="1731" type="line"/>
      <point x="583" y="1731" type="line"/>
      <point x="513" y="1797" type="line"/>
      <point x="513" y="1883" type="line"/>
      <point x="423" y="1883" type="line"/>
      <point x="423" y="1759" type="line"/>
    </contour>
  </outline>
</glyph>
<glyph name="Gcircumflex.alt1" format="2">
  <advance width="1240"/>
  <outline>
    <contour>
      <point x="510" y="0" type="line"/>
      <point x="1000" y="0" type="line"/>
      <point x="1102" y="114" type="line"/>
      <point x="1102" y="763" type="line"/>
      <point x="656" y="763" type="line"/>
      <point x="656" y="659" type="line"/>
      <point x="1047" y="659" type="line"/>
      <point x="990" y="704" type="line"/>
      <point x="990" y="176" type="line"/>
      <point x="930" y="110" type="line"/>
      <point x="576" y="110" type="line"/>
      <point x="256" y="570" type="line"/>
      <point x="256" y="900" type="line"/>
      <point x="576" y="1350" type="line"/>
      <point x="1050" y="1350" type="line"/>
      <point x="1030" y="1460" type="line"/>
      <point x="510" y="1460" type="line"/>
      <point x="130" y="930" type="line"/>
      <point x="130" y="540" type="line"/>
    </contour>
    <contour>
      <point x="368" y="1650" type="line"/>
      <point x="499" y="1650" type="line"/>
      <point x="718" y="1854" type="line"/>
      <point x="662" y="1854" type="line"/>
      <point x="881" y="1650" type="line"/>
      <point x="1012" y="1650" type="line"/>
      <point x="748" y="1883" type="line"/>
      <point x="632" y="1883" type="line"/>
    </contour>
  </outline>
</glyph>
<glyph name="H.alt" format="2">
  <advance width="1240"/>
  <outline>
    <contour>
      <point x="907" y="0" type="line"/>
      <point x="1033" y="0" type="line"/>
      <point x="1033" y="1460" type="line"/>
      <point x="907" y="1460" type="line"/>
    </contour>
    <contour>
      <point x="207" y="0" type="line"/>
      <point x="333" y="0" type="line"/>
      <point x="333" y="1460" type="line"/>
      <point x="207" y="1460" type="line"/>
    </contour>
    <contour>
      <point x="276" y="709" type="line"/>
      <point x="968" y="709" type="line"/>
      <point x="968" y="810" type="line"/>
      <point x="276" y="810" type="line"/>
    </contour>
  </outline>
</glyph>
<glyph name="Hbar.alt1" format="2">
  <advance width="1240"/>
  <outline>
    <contour>
      <point x="40" y="1102" type="line"/>
      <point x="1200" y="1102" type="line"/>
      <point x="1200" y="1212" type="line"/>
      <point x="40" y="1212" type="line"/>
    </contour>
    <contour>
      <point x="907" y="0" type="line"/>
      <point x="1033" y="0" type="line"/>
      <point x="1033" y="1460" type="line"/>
      <point x="907" y="1460" type="line"/>
    </contour>
    <contour>
      <point x="207" y="0" type="line"/>
      <point x="333" y="0" type="line"/>
      <point x="333" y="1460" type="line"/>
      <point x="207" y="1460" type="line"/>
    </contour>
    <contour>
      <point x="276" y="709" type="line"/>
      <point x="968" y="709" type="line"/>
      <point x="968" y="810" type="line"/>
      <point x="276" y="810" type="line"/>
    </contour>
  </outline>
</glyph>
<glyph name="Hbar.alt5" format="2">
  <advance width="1240"/>
  <outline>
    <contour>
      <point x="40" y="1102" type="line"/>
      <point x="1200" y="1102" type="line"/>
      <point x="1200" y="1212" type="line"/>
      <point x="40" y="1212" type="line"/>
    </contour>
    <contour>
      <point x="907" y="0" type="line"/>
      <point x="1033" y="0" type="line"/>
      <point x="1033" y="1460" type="line"/>
      <point x="907" y="1460" type="line"/>
    </contour>
    <contour>
      <point x="207" y="0" type="line"/>
      <point x="333" y="0" type="line"/>
      <point x="333" y="1460" type="line"/>
      <point x="207" y="1460" type="line"/>
    </contour>
    <contour>
      <point x="276" y="709" type="line"/>
      <point x="968" y="709" type="line"/>
      <point x="968" y="810" type="line"/>
      <point x="276" y="810" type="line"/>
    </contour>
  </outline>
</glyph>
<glyph name="Hcircumflex.alt5" format="2">
  <advance width="1240"/>
  <outline>
    <contour>
      <point x="907" y="0" type="line"/>
      <point x="1033" y="0" type="line"/>
      <point x="1033" y="1460" type="line"/>
      <point x="907" y="1460" type="line"/>
    </contour>
    <contour>
      <point x="207" y="0" type="line"/>
      <point x="333" y="0" type="line"/>
      <point x="333" y="1460" type="line"/>
      <point x="207" y="1460" type="line"/>
    </contour>
    <contour>
      <point x="276" y="709" type="line"/>
      <point x="968" y="709" type="line"/>
      <point x="968" y="810" type="line"/>
      <point x="276" y="810" type="line"/>
    </contour>
    <contour>
      <point x="298" y="1650" type="line"/>
      <point x="429" y="1650" type="line"/>
      <point x="648" y="1854" type="line"/>
      <point x="592" y="1854" type="line"/>
      <point x="811" y="1650" type="line"/>
      <point x="942" y="1650" type="line"/>
      <point x="678" y="1883" type="line"/>
      <point x="562" y="1883" type="line"/>
    </contour>
  </outline>
</glyph>
<glyph name="I.alt2" format="2">
  <advance width="1240"/>
  <outline>
    <contour>
      <point x="547" y="0" type="line"/>
      <point x="673" y="0" type="line"/>
      <point x="673" y="1460" type="line"/>
      <point x="547" y="1460" type="line"/>
    </contour>
    <contour>
      <point x="172" y="0" type="line"/>
      <point x="1068" y="0" type="line"/>
      <point x="1088" y="110" type="line"/>
      <point x="152" y="110" type="line"/>
    </contour>
    <contour>
      <point x="152" y="1350" type="line"/>
      <point x="1088" y="1350" type="line"/>
      <point x="1068" y="1460" type="line"/>
      <point x="172" y="1460" type="line"/>
    </contour>
  </outline>
</glyph>
<glyph name="Itilde.alt5" format="2">
  <advance width="1240"/>
  <outline>
    <contour>
      <point x="547" y="0" type="line"/>
      <point x="673" y="0" type="line"/>
      <point x="673" y="1460" type="line"/>
      <point x="547" y="1460" type="line"/>
    </contour>
    <contour>
      <point x="172" y="0" type="line"/>
      <point x="1068" y="0" type="line"/>
      <point x="1088" y="110" type="line"/>
      <point x="152" y="110" type="line"/>
    </contour>
    <contour>
      <point x="152" y="1350" type="line"/>
      <point x="1088" y="1350" type="line"/>
      <point x="1068" y="1460" type="line"/>
      <point x="172" y="1460" type="line"/>
    </contour>
    <contour>
      <point x="563" y="1893" type="line"/>
      <point x="393" y="1893" type="line"/>
      <point x="273" y="1765" type="line"/>
      <point x="273" y="1643" type="line"/>
      <point x="363" y="1643" type="line"/>
      <point x="363" y="1734" type="line"/>
      <point x="431" y="1805" type="line"/>
      <point x="522" y="1805" type="line"/>
      <point x="677" y="1643" type="line"/>
      <point x="847" y="1643" type="line"/>
      <point x="967" y="1771" type="line"/>
      <point x="967" y="1893" type="line"/>
      <point x="877" y="1893" type="line"/>
      <point x="877" y="1802" type="line"/>
      <point x="809" y="1731" type="line"/>
      <point x="718" y="1731" type="line"/>
    </contour>
  </outline>
</glyph>
<glyph name="J.alt" format="2">
  <advance width="1240"/>
  <outline>
    <contour>
      <point x="557" y="0" type="line"/>
      <point x="703" y="0" type="line"/>
      <point x="1033" y="489" type="line"/>
      <point x="1033" y="1460" type="line"/>
      <point x="907" y="1460" type="line"/>
      <point x="907" y="517" type="line"/>
      <point x="610" y="80" type="line"/>
      <point x="650" y="80" type="line"/>
      <point x="333" y="521" type="line"/>
      <point x="333" y="778" type="line"/>
      <point x="207" y="778" type="line"/>
      <point x="207" y="489" type="line"/>
    </contour>
    <contour>
      <point x="303" y="1350" type="line"/>
      <point x="989" y="1350" type="line"/>
      <point x="989" y="1460" type="line"/>
      <point x="323" y="1460" type="line"/>
    </contour>
  </outline>
</glyph>
<glyph name="Jcircumflex.alt1" format="2">
  <advance width="1240"/>
  <outline>
    <contour>
      <point x="557" y="0" type="line"/>
      <point x="703" y="0" type="line"/>
      <point x="1033" y="489" type="line"/>
      <point x="1033" y="1460" type="line"/>
      <point x="907" y="1460" type="line"/>
      <point x="907" y="517" type="line"/>
      <point x="610" y="80" type="line"/>
      <point x="650" y="80" type="line"/>
      <point x="333" y="521" type="line"/>
      <point x="333" y="778" type="line"/>
      <point x="207" y="778" type="line"/>
      <point x="207" y="489" type="line"/>
    </contour>
    <contour>
      <point x="303" y="1350" type="line"/>
      <point x="989" y="1350" type="line"/>
      <point x="989" y="1460" type="line"/>
      <point x="323" y="1460" type="line"/>
    </contour>
    <contour>
      <point x="327" y="1650" type="line"/>
      <point x="458" y="1650" type="line"/>
      <point x="677" y="1854" type="line"/>
      <point x="621" y="1854" type="line"/>
      <point x="840" y="1650" type="line"/>
      <point x="971" y="1650" type="line"/>
      <point x="707" y="1883" type="line"/>
      <point x="591" y="1883" type="line"/>
    </contour>
  </outline>
</glyph>
<glyph name="Kcommaaccent.alt5" format="2">
  <advance width="1240"/>
  <outline>
    <contour>
      <point x="927" y="0" type="line"/>
      <point x="1053" y="0" type="line"/>
      <point x="1053" y="266" type="line"/>
      <point x="635" y="784" type="line"/>
      <point x="635" y="719" type="line"/>
      <point x="1053" y="1194" type="line"/>
      <point x="1053" y="1460" type="line"/>
      <point x="927" y="1460" type="line"/>
      <point x="927" y="1222" type="line"/>
      <point x="538" y="763" type="line"/>
      <point x="619" y="805" type="line"/>
      <point x="300" y="805" type="line"/>
      <point x="300" y="700" type="line"/>
      <point x="611" y="700" type="line"/>
      <point x="524" y="721" type="line"/>
      <point x="927" y="238" type="line"/>
    </contour>
    <contour>
      <point x="217" y="0" type="line"/>
      <point x="343" y="0" type="line"/>
      <point x="343" y="1460" type="line"/>
      <point x="217" y="1460" type="line"/>
    </contour>
    <contour>
      <point x="527" y="-527" type="line"/>
      <point x="680" y="-527" type="line"/>
      <point x="680" y="-471" type="line"/>
      <point x="498" y="-707" type="line"/>
      <point x="573" y="-747" type="line"/>
      <point x="742" y="-527" type="line"/>
      <point x="742" y="-312" type="line"/>
      <point x="527" y="-312" type="line"/>
    </contour>
  </outline>
</glyph>
<glyph name="L.alt" format="2">
  <advance width="1240"/>
  <outline>
    <contour>
      <point x="207" y="0" type="line"/>
      <point x="333" y="0" type="line"/>
      <point x="333" y="1460" type="line"/>
      <point x="207" y="1460" type="line"/>
    </contour>
    <contour>
      <point x="292" y="0" type="line"/>
      <point x="1098" y="0" type="line"/>
      <point x="1118" y="110" type="line"/>
      <point x="292" y="110" type="line"/>
    </contour>
  </outline>
</glyph>
<glyph name="L.alt2" format="2">
  <advance width="1240"/>
  <outline>
    <contour>
      <point x="207" y="0" type="line"/>
      <point x="333" y="0" type="line"/>
      <point x="333" y="1460" type="line"/>
      <point x="207" y="1460" type="line"/>
    </contour>
    <contour>
      <point x="292" y="0" type="line"/>
      <point x="1098" y="0" type="line"/>
      <point x="1118" y="110" type="line"/>
      <point x="292" y="110" type="line"/>
    </contour>
  </outline>
</glyph>
<glyph name="Lacute.alt5" format="2">
  <advance width="1240"/>
  <outline>
    <contour>
      <point x="207" y="0" type="line"/>
      <point x="333" y="0" type="line"/>
      <point x="333" y="1460" type="line"/>
      <point x="207" y="1460" type="line"/>
    </contour>
    <contour>
      <point x="292" y="0" type="line"/>
      <point x="1098" y="0" type="line"/>
      <point x="1118" y="110" type="line"/>
      <point x="292" y="110" type="line"/>
    </contour>
    <contour>
      <point x="338" y="1650.191" type="line"/>
      <point x="229" y="1650.191" type="line"/>
      <point x="451" y="1883.236" type="line"/>
      <point x="591" y="1883.236" type="line"/>
    </contour>
  </outline>
</glyph>
<glyph name="Lcommaaccent.alt5" format="2">
  <advance width="1240"/>
  <outline>
    <contour>
      <point x="207" y="0" type="line"/>
      <point x="333" y="0" type="line"/>
      <point x="333" y="1460" type="line"/>
      <point x="207" y="1460" type="line"/>
    </contour>
    <contour>
      <point x="292" y="0" type="line"/>
      <point x="1098" y="0" type="line"/>
      <point x="1118" y="110" type="line"/>
      <point x="292" y="110" type="line"/>
    </contour>
    <contour>
      <point x="527" y="-527" type="line"/>
      <point x="680" y="-527" type="line"/>
      <point x="680" y="-471" type="line"/>
      <point x="498" y="-707" type="line"/>
      <point x="573" y="-747" type="line"/>
      <point x="742" y="-527" type="line"/>
      <point x="742" y="-312" type="line"/>
      <point x="527" y="-312" type="line"/>
    </contour>
  </outline>
</glyph>
<glyph name="Lslash.alt5" format="2">
  <advance width="1240"/>
  <outline>
    <contour>
      <point x="20" y="587" type="line"/>
      <point x="738" y="937" type="line"/>
      <point x="738" y="1052" type="line"/>
      <point x="20" y="702" type="line"/>
    </contour>
    <contour>
      <point x="207" y="0" type="line"/>
      <point x="333" y="0" type="line"/>
      <point x="333" y="1460" type="line"/>
      <point x="207" y="1460" type="line"/>
    </contour>
    <contour>
      <point x="292" y="0" type="line"/>
      <point x="1098" y="0" type="line"/>
      <point x="1118" y="110" type="line"/>
      <point x="292" y="110" type="line"/>
    </contour>
  </outline>
</glyph>
<glyph name="N.alt4" format="2">
  <advance width="1240"/>
  <outline>
    <contour>
      <point x="207" y="0" type="line"/>
      <point x="327" y="0" type="line"/>
      <point x="327" y="1240" type="line"/>
      <point x="339" y="1240" type="line"/>
      <point x="888" y="1" type="line"/>
      <point x="1033" y="1" type="line"/>
      <point x="1033" y="1461" type="line"/>
      <point x="913" y="1461" type="line"/>
      <point x="913" y="264" type="line"/>
      <point x="901" y="264" type="line"/>
      <point x="367" y="1460" type="line"/>
      <point x="207" y="1460" type="line"/>
    </contour>
  </outline>
</glyph>
<glyph name="Nacute.alt5" format="2">
  <advance width="1240"/>
  <outline>
    <contour>
      <point x="207" y="0" type="line"/>
      <point x="327" y="0" type="line"/>
      <point x="327" y="1240" type="line"/>
      <point x="339" y="1240" type="line"/>
      <point x="888" y="1" type="line"/>
      <point x="1033" y="1" type="line"/>
      <point x="1033" y="1461" type="line"/>
      <point x="913" y="1461" type="line"/>
      <point x="913" y="264" type="line"/>
      <point x="901" y="264" type="line"/>
      <point x="367" y="1460" type="line"/>
      <point x="207" y="1460" type="line"/>
    </contour>
    <contour>
      <point x="665" y="1650.191" type="line"/>
      <point x="556" y="1650.191" type="line"/>
      <point x="778" y="1883.236" type="line"/>
      <point x="918" y="1883.236" type="line"/>
    </contour>
  </outline>
</glyph>
<glyph name="Oacute.alt5" format="2">
  <advance width="1240"/>
  <outline>
    <contour>
      <point x="510" y="0" type="line"/>
      <point x="729" y="0" type="line"/>
      <point x="1110" y="540" type="line"/>
      <point x="1110" y="930" type="line"/>
      <point x="749" y="1460" type="line"/>
      <point x="510" y="1460" type="line"/>
      <point x="130" y="930" type="line"/>
      <point x="130" y="540" type="line"/>
    </contour>
    <contour>
      <point x="566" y="110" type="line"/>
      <point x="256" y="570" type="line"/>
      <point x="256" y="900" type="line"/>
      <point x="574" y="1350" type="line"/>
      <point x="681" y="1350" type="line"/>
      <point x="984" y="900" type="line"/>
      <point x="984" y="570" type="line"/>
      <point x="673" y="110" type="line"/>
    </contour>
    <contour>
      <point x="665" y="1650.191" type="line"/>
      <point x="556" y="1650.191" type="line"/>
      <point x="778" y="1883.236" type="line"/>
      <point x="918" y="1883.236" type="line"/>
    </contour>
  </outline>
</glyph>
<glyph name="Ocircumflex.alt5" format="2">
  <advance width="1240"/>
  <outline>
    <contour>
      <point x="510" y="0" type="line"/>
      <point x="729" y="0" type="line"/>
      <point x="1110" y="540" type="line"/>
      <point x="1110" y="930" type="line"/>
      <point x="749" y="1460" type="line"/>
      <point x="510" y="1460" type="line"/>
      <point x="130" y="930" type="line"/>
      <point x="130" y="540" type="line"/>
    </contour>
    <contour>
      <point x="566" y="110" type="line"/>
      <point x="256" y="570" type="line"/>
      <point x="256" y="900" type="line"/>
      <point x="574" y="1350" type="line"/>
      <point x="681" y="1350" type="line"/>
      <point x="984" y="900" type="line"/>
      <point x="984" y="570" type="line"/>
      <point x="673" y="110" type="line"/>
    </contour>
    <contour>
      <point x="298" y="1650" type="line"/>
      <point x="429" y="1650" type="line"/>
      <point x="648" y="1854" type="line"/>
      <point x="592" y="1854" type="line"/>
      <point x="811" y="1650" type="line"/>
      <point x="942" y="1650" type="line"/>
      <point x="678" y="1883" type="line"/>
      <point x="562" y="1883" type="line"/>
    </contour>
  </outline>
</glyph>
<glyph name="Odieresis.alt1" format="2">
  <advance width="1240"/>
  <outline>
    <contour>
      <point x="510" y="0" type="line"/>
      <point x="729" y="0" type="line"/>
      <point x="1110" y="540" type="line"/>
      <point x="1110" y="930" type="line"/>
      <point x="749" y="1460" type="line"/>
      <point x="510" y="1460" type="line"/>
      <point x="130" y="930" type="line"/>
      <point x="130" y="540" type="line"/>
    </contour>
    <contour>
      <point x="566" y="110" type="line"/>
      <point x="256" y="570" type="line"/>
      <point x="256" y="900" type="line"/>
      <point x="574" y="1350" type="line"/>
      <point x="681" y="1350" type="line"/>
      <point x="984" y="900" type="line"/>
      <point x="984" y="570" type="line"/>
      <point x="673" y="110" type="line"/>
    </contour>
    <contour>
      <point x="373.6" y="1626" type="line"/>
      <point x="507.86" y="1756" type="line"/>
      <point x="373.6" y="1886" type="line"/>
      <point x="239.34" y="1756" type="line"/>
    </contour>
    <contour>
      <point x="866.6" y="1626" type="line"/>
      <point x="1000.86" y="1756" type="line"/>
      <point x="866.6" y="1886" type="line"/>
      <point x="732.34" y="1756" type="line"/>
    </contour>
  </outline>
</glyph>
<glyph name="Oslash.alt5" format="2">
  <advance width="1240"/>
  <outline>
    <contour>
      <point x="414" y="254" type="line"/>
      <point x="921" y="1144" type="line"/>
      <point x="835" y="1221" type="line"/>
      <point x="333" y="340" type="line"/>
    </contour>
    <contour>
      <point x="228" y="-75" type="line"/>
      <point x="425" y="267" type="line"/>
      <point x="336" y="364" type="line"/>
      <point x="119" y="-13" type="line"/>
    </contour>
    <contour>
      <point x="918" y="1120" type="line"/>
      <point x="1125" y="1478" type="line"/>
      <point x="1015" y="1540" type="line"/>
      <point x="823" y="1208" type="line"/>
    </contour>
    <contour>
      <point x="510" y="0" type="line"/>
      <point x="729" y="0" type="line"/>
      <point x="1110" y="540" type="line"/>
      <point x="1110" y="930" type="line"/>
      <point x="749" y="1460" type="line"/>
      <point x="510" y="1460" type="line"/>
      <point x="130" y="930" type="line"/>
      <point x="130" y="540" type="line"/>
    </contour>
    <contour>
      <point x="566" y="110" type="line"/>
      <point x="256" y="570" type="line"/>
      <point x="256" y="900" type="line"/>
      <point x="574" y="1350" type="line"/>
      <point x="681" y="1350" type="line"/>
      <point x="984" y="900" type="line"/>
      <point x="984" y="570" type="line"/>
      <point x="673" y="110" type="line"/>
    </contour>
  </outline>
</glyph>
<glyph name="Otilde.alt5" format="2">
  <advance width="1240"/>
  <outline>
    <contour>
      <point x="510" y="0" type="line"/>
      <point x="729" y="0" type="line"/>
      <point x="1110" y="540" type="line"/>
      <point x="1110" y="930" type="line"/>
      <point x="749" y="1460" type="line"/>
      <point x="510" y="1460" type="line"/>
      <point x="130" y="930" type="line"/>
      <point x="130" y="540" type="line"/>
    </contour>
    <contour>
      <point x="566" y="110" type="line"/>
      <point x="256" y="570" type="line"/>
      <point x="256" y="900" type="line"/>
      <point x="574" y="1350" type="line"/>
      <point x="681" y="1350" type="line"/>
      <point x="984" y="900" type="line"/>
      <point x="984" y="570" type="line"/>
      <point x="673" y="110" type="line"/>
    </contour>
    <contour>
      <point x="563" y="1893" type="line"/>
      <point x="393" y="1893" type="line"/>
      <point x="273" y="1765" type="line"/>
      <point x="273" y="1643" type="line"/>
      <point x="363" y="1643" type="line"/>
      <point x="363" y="1734" type="line"/>
      <point x="431" y="1805" type="line"/>
      <point x="522" y="1805" type="line"/>
      <point x="677" y="1643" type="line"/>
      <point x="847" y="1643" type="line"/>
      <point x="967" y="1771" type="line"/>
      <point x="967" y="1893" type="line"/>
      <point x="877" y="1893" type="line"/>
      <point x="877" y="1802" type="line"/>
      <point x="809" y="1731" type="line"/>
      <point x="718" y="1731" type="line"/>
    </contour>
  </outline>
</glyph>
<glyph name="P.alt5" format="2">
  <advance width="1240"/>
  <outline>
    <contour>
      <point x="259" y="567" type="line"/>
      <point x="785" y="567" type="line"/>
      <point x="1090" y="908" type="line"/>
      <point x="1090" y="1192" type="line"/>
      <point x="793" y="1460" type="line"/>
      <point x="259" y="1460" type="line"/>
      <point x="259" y="1360" type="line"/>
      <point x="734" y="1360" type="line"/>
      <point x="964" y="1153" type="line"/>
      <point x="964" y="943" type="line"/>
      <point x="724" y="667" type="line"/>
      <point x="259" y="667" type="line"/>
    </contour>
    <contour>
      <point x="217" y="0" type="line"/>
      <point x="343" y="0" type="line"/>
      <point x="343" y="1460" type="line"/>
      <point x="217" y="1460" type="line"/>
    </contour>
  </outline>
</glyph>
<glyph name="Q.alt4" format="2">
  <advance width="1240"/>
  <outline>
    <contour>
      <point x="739" y="-323" type="line"/>
      <point x="824" y="-267" type="line"/>
      <point x="256" y="570" type="line"/>
      <point x="256" y="900" type="line"/>
      <point x="566" y="1350" type="line"/>
      <point x="673" y="1350" type="line"/>
      <point x="984" y="900" type="line"/>
      <point x="984" y="570" type="line"/>
      <point x="673" y="110" type="line"/>
      <point x="531" y="110" type="line"/>
      <point x="573" y="0" type="line"/>
      <point x="729" y="0" type="line"/>
      <point x="1110" y="540" type="line"/>
      <point x="1110" y="930" type="line"/>
      <point x="749" y="1460" type="line"/>
      <point x="510" y="1460" type="line"/>
      <point x="130" y="930" type="line"/>
      <point x="130" y="540" type="line"/>
    </contour>
  </outline>
</glyph>
<glyph name="Rcaron.alt5" format="2">
  <advance width="1240"/>
  <outline>
    <contour>
      <point x="259" y="637" type="line"/>
      <point x="765" y="637" type="line"/>
      <point x="1080" y="938" type="line"/>
      <point x="1080" y="1172" type="line"/>
      <point x="773" y="1460" type="line"/>
      <point x="259" y="1460" type="line"/>
      <point x="259" y="1360" type="line"/>
      <point x="714" y="1360" type="line"/>
      <point x="954" y="1133" type="line"/>
      <point x="954" y="973" type="line"/>
      <point x="714" y="737" type="line"/>
      <point x="259" y="737" type="line"/>
    </contour>
    <contour>
      <point x="217" y="0" type="line"/>
      <point x="343" y="0" type="line"/>
      <point x="343" y="1460" type="line"/>
      <point x="217" y="1460" type="line"/>
    </contour>
    <contour>
      <point x="927" y="0" type="line"/>
      <point x="1053" y="0" type="line"/>
      <point x="1053" y="266" type="line"/>
      <point x="740" y="697" type="line"/>
      <point x="598" y="697" type="line"/>
      <point x="927" y="238" type="line"/>
    </contour>
    <contour>
      <point x="298" y="1883" type="line"/>
      <point x="429" y="1883" type="line"/>
      <point x="648" y="1679" type="line"/>
      <point x="592" y="1679" type="line"/>
      <point x="811" y="1883" type="line"/>
      <point x="942" y="1883" type="line"/>
      <point x="678" y="1650" type="line"/>
      <point x="562" y="1650" type="line"/>
    </contour>
  </outline>
</glyph>
<glyph name="Schwa.alt1" format="2">
  <advance width="1240"/>
  <outline>
    <contour>
      <point x="302" y="0" type="line"/>
      <point x="722" y="0" type="line"/>
      <point x="1102" y="540" type="line"/>
      <point x="1102" y="930" type="line"/>
      <point x="722" y="1460" type="line"/>
      <point x="202" y="1460" type="line"/>
      <point x="182" y="1350" type="line"/>
      <point x="656" y="1350" type="line"/>
      <point x="976" y="900" type="line"/>
      <point x="976" y="570" type="line"/>
      <point x="656" y="110" type="line"/>
      <point x="362" y="110" type="line"/>
      <point x="240" y="236" type="line"/>
      <point x="240" y="581" type="line"/>
      <point x="375" y="709" type="line"/>
      <point x="1046" y="709" type="line"/>
      <point x="1046" y="813" type="line"/>
      <point x="314" y="813" type="line"/>
      <point x="130" y="631" type="line"/>
      <point x="130" y="184" type="line"/>
    </contour>
  </outline>
</glyph>
<glyph name="T.alt" format="2">
  <advance width="1240"/>
  <outline>
    <contour>
      <point x="547" y="0" type="line"/>
      <point x="673" y="0" type="line"/>
      <point x="673" y="1460" type="line"/>
      <point x="547" y="1460" type="line"/>
    </contour>
    <contour>
      <point x="102" y="1350" type="line"/>
      <point x="1138" y="1350" type="line"/>
      <point x="1123" y="1460" type="line"/>
      <point x="117" y="1460" type="line"/>
    </contour>
  </outline>
</glyph>
<glyph name="U.alt2" format="2">
  <advance width="1240"/>
  <outline>
    <contour>
      <point x="367" y="0" type="line"/>
      <point x="873" y="0" type="line"/>
      <point x="1033" y="198" type="line"/>
      <point x="1033" y="1460" type="line"/>
      <point x="907" y="1460" type="line"/>
      <point x="907" y="252" type="line"/>
      <point x="800" y="110" type="line"/>
      <point x="440" y="110" type="line"/>
      <point x="333" y="252" type="line"/>
      <point x="333" y="1460" type="line"/>
      <point x="207" y="1460" type="line"/>
      <point x="207" y="198" type="line"/>
    </contour>
  </outline>
</glyph>
<glyph name="Udieresis.alt1" format="2">
  <advance width="1240"/>
  <outline>
    <contour>
      <point x="367" y="0" type="line"/>
      <point x="873" y="0" type="line"/>
      <point x="1033" y="198" type="line"/>
      <point x="1033" y="1460" type="line"/>
      <point x="907" y="1460" type="line"/>
      <point x="907" y="252" type="line"/>
      <point x="800" y="110" type="line"/>
      <point x="440" y="110" type="line"/>
      <point x="333" y="252" type="line"/>
      <point x="333" y="1460" type="line"/>
      <point x="207" y="1460" type="line"/>
      <point x="207" y="198" type="line"/>
    </contour>
    <contour>
      <point x="373.6" y="1626" type="line"/>
      <point x="507.86" y="1756" type="line"/>
      <point x="373.6" y="1886" type="line"/>
      <point x="239.34" y="1756" type="line"/>
    </contour>
    <contour>
      <point x="866.6" y="1626" type="line"/>
      <point x="1000.86" y="1756" type="line"/>
      <point x="866.6" y="1886" type="line"/>
      <point x="732.34" y="1756" type="line"/>
    </contour>
  </outline>
</glyph>
<glyph name="Udotbelow.alt5" format="2">
  <advance width="1240"/>
  <outline>
    <contour>
      <point x="367" y="0" type="line"/>
      <point x="873" y="0" type="line"/>
      <point x="1033" y="198" type="line"/>
      <point x="1033" y="1460" type="line"/>
      <point x="907" y="1460" type="line"/>
      <point x="907" y="252" type="line"/>
      <point x="800" y="110" type="line"/>
      <point x="440" y="110" type="line"/>
      <point x="333" y="252" type="line"/>
      <point x="333" y="1460" type="line"/>
      <point x="207" y="1460" type="line"/>
      <point x="207" y="198" type="line"/>
    </contour>
    <contour>
      <point x="620" y="-546" type="line"/>
      <point x="757" y="-416" type="line"/>
      <point x="620" y="-286" type="line"/>
      <point x="483" y="-416" type="line"/>
    </contour>
  </outline>
</glyph>
<glyph name="Ugrave.alt5" format="2">
  <advance width="1240"/>
  <outline>
    <contour>
      <point x="367" y="0" type="line"/>
      <point x="873" y="0" type="line"/>
      <point x="1033" y="198" type="line"/>
      <point x="1033" y="1460" type="line"/>
      <point x="907" y="1460" type="line"/>
      <point x="907" y="252" type="line"/>
      <point x="800" y="110" type="line"/>
      <point x="440" y="110" type="line"/>
      <point x="333" y="252" type="line"/>
      <point x="333" y="1460" type="line"/>
      <point x="207" y="1460" type="line"/>
      <point x="207" y="198" type="line"/>
    </contour>
    <contour>
      <point x="575" y="1650.191" type="line"/>
      <point x="684" y="1650.191" type="line"/>
      <point x="462" y="1883.236" type="line"/>
      <point x="322" y="1883.236" type="line"/>
    </contour>
  </outline>
</glyph>
<glyph name="Uring.alt5" format="2">
  <advance width="1240"/>
  <outline>
    <contour>
      <point x="367" y="0" type="line"/>
      <point x="873" y="0" type="line"/>
      <point x="1033" y="198" type="line"/>
      <point x="1033" y="1460" type="line"/>
      <point x="907" y="1460" type="line"/>
      <point x="907" y="252" type="line"/>
      <point x="800" y="110" type="line"/>
      <point x="440" y="110" type="line"/>
      <point x="333" y="252" type="line"/>
      <point x="333" y="1460" type="line"/>
      <point x="207" y="1460" type="line"/>
      <point x="207" y="198" type="line"/>
    </contour>
    <contour>
      <point x="533" y="1443" type="line"/>
      <point x="707" y="1443" type="line"/>
      <point x="847" y="1600" type="line"/>
      <point x="847" y="1734" type="line"/>
      <point x="707" y="1890" type="line"/>
      <point x="533" y="1890" type="line"/>
      <point x="393" y="1733" type="line"/>
      <point x="393" y="1599" type="line"/>
    </contour>
    <contour>
      <point x="487" y="1637" type="line"/>
      <point x="487" y="1696" type="line"/>
      <point x="580" y="1802" type="line"/>
      <point x="660" y="1802" type="line"/>
      <point x="753" y="1696" type="line"/>
      <point x="753" y="1637" type="line"/>
      <point x="660" y="1531" type="line"/>
      <point x="580" y="1531" type="line"/>
    </contour>
  </outline>
</glyph>
<glyph name="Utilde.alt1" format="2">
  <advance width="1240"/>
  <outline>
    <contour>
      <point x="367" y="0" type="line"/>
      <point x="873" y="0" type="line"/>
      <point x="1033" y="198" type="line"/>
      <point x="1033" y="1460" type="line"/>
      <point x="907" y="1460" type="line"/>
      <point x="907" y="252" type="line"/>
      <point x="800" y="110" type="line"/>
      <point x="440" y="110" type="line"/>
      <point x="333" y="252" type="line"/>
      <point x="333" y="1460" type="line"/>
      <point x="207" y="1460" type="line"/>
      <point x="207" y="198" type="line"/>
    </contour>
    <contour>
      <point x="563" y="1893" type="line"/>
      <point x="393" y="1893" type="line"/>
      <point x="273" y="1765" type="line"/>
      <point x="273" y="1643" type="line"/>
      <point x="363" y="1643" type="line"/>
      <point x="363" y="1734" type="line"/>
      <point x="431" y="1805" type="line"/>
      <point x="522" y="1805" type="line"/>
      <point x="677" y="1643" type="line"/>
      <point x="847" y="1643" type="line"/>
      <point x="967" y="1771" type="line"/>
      <point x="967" y="1893" type="line"/>
      <point x="877" y="1893" type="line"/>
      <point x="877" y="1802" type="line"/>
      <point x="809" y="1731" type="line"/>
      <point x="718" y="1731" type="line"/>
    </contour>
  </outline>
</glyph>
<glyph name="V.alt" format="2">
  <advance width="1240"/>
  <outline>
    <contour>
      <point x="547" y="0" type="line"/>
      <point x="693" y="0" type="line"/>
      <point x="1043" y="739" type="line"/>
      <point x="1043" y="1460" type="line"/>
      <point x="917" y="1460" type="line"/>
      <point x="917" y="767" type="line"/>
      <point x="600" y="80" type="line"/>
      <point x="640" y="80" type="line"/>
      <point x="323" y="771" type="line"/>
      <point x="323" y="1460" type="line"/>
      <point x="197" y="1460" type="line"/>
      <point x="197" y="739" type="line"/>
    </contour>
  </outline>
</glyph>
<glyph name="Y.alt" format="2">
  <advance width="1240"/>
  <outline>
    <contour>
      <point x="557" y="589" type="line"/>
      <point x="683" y="589" type="line"/>
      <point x="1053" y="1104" type="line"/>
      <point x="1053" y="1460" type="line"/>
      <point x="927" y="1460" type="line"/>
      <point x="927" y="1132" type="line"/>
      <point x="600" y="679" type="line"/>
      <point x="640" y="679" type="line"/>
      <point x="313" y="1136" type="line"/>
      <point x="313" y="1460" type="line"/>
      <point x="187" y="1460" type="line"/>
      <point x="187" y="1104" type="line"/>
    </contour>
    <contour>
      <point x="557" y="0" type="line"/>
      <point x="683" y="0" type="line"/>
      <point x="683" y="669" type="line"/>
      <point x="557" y="669" type="line"/>
    </contour>
  </outline>
</glyph>
<glyph name="Yacute.alt1" format="2">
  <advance width="1240"/>
  <outline>
    <contour>
      <point x="557" y="589" type="line"/>
      <point x="683" y="589" type="line"/>
      <point x="1053" y="1104" type="line"/>
      <point x="1053" y="1460" type="line"/>
      <point x="927" y="1460" type="line"/>
      <point x="927" y="1132" type="line"/>
      <point x="600" y="679" type="line"/>
      <point x="640" y="679" type="line"/>
      <point x="313" y="1136" type="line"/>
      <point x="313" y="1460" type="line"/>
      <point x="187" y="1460" type="line"/>
      <point x="187" y="1104" type="line"/>
    </contour>
    <contour>
      <point x="557" y="0" type="line"/>
      <point x="683" y="0" type="line"/>
      <point x="683" y="669" type="line"/>
      <point x="557" y="669" type="line"/>
    </contour>
    <contour>
      <point x="665" y="1650.191" type="line"/>
      <point x="556" y="1650.191" type="line"/>
      <point x="778" y="1883.236" type="line"/>
      <point x="918" y="1883.236" type="line"/>
    </contour>
  </outline>
</glyph>
<glyph name="Ymacron.alt1" format="2">
  <advance width="1240"/>
  <outline>
    <contour>
      <point x="557" y="589" type="line"/>
      <point x="683" y="589" type="line"/>
      <point x="1053" y="1104" type="line"/>
      <point x="1053" y="1460" type="line"/>
      <point x="927" y="1460" type="line"/>
      <point x="927" y="1132" type="line"/>
      <point x="600" y="679" type="line"/>
      <point x="640" y="679" type="line"/>
      <point x="313" y="1136" type="line"/>
      <point x="313" y="1460" type="line"/>
      <point x="187" y="1460" type="line"/>
      <point x="187" y="1104" type="line"/>
    </contour>
    <contour>
      <point x="557" y="0" type="line"/>
      <point x="683" y="0" type="line"/>
      <point x="683" y="669" type="line"/>
      <point x="557" y="669" type="line"/>
    </contour>
    <contour>
      <point x="313" y="1731" type="line"/>
      <point x="927" y="1731" type="line"/>
      <point x="927" y="1831" type="line"/>
      <point x="313" y="1831" type="line"/>
    </contour>
  </outline>
</glyph>
<glyph name="Z.alt" format="2">
  <advance width="1240"/>
  <outline>
    <contour>
      <point x="206" y="0" type="line"/>
      <point x="1107" y="0" type="line"/>
      <point x="1107" y="106" type="line"/>
      <point x="271" y="106" type="line"/>
      <point x="291" y="56" type="line"/>
      <point x="1060" y="1374" type="line"/>
      <point x="1020" y="1460" type="line"/>
      <point x="167" y="1459" type="line"/>
      <point x="167" y="1353" type="line"/>
      <point x="939" y="1353" type="line"/>
      <point x="935" y="1393" type="line"/>
      <point x="166" y="90" type="line"/>
    </contour>
  </outline>
</glyph>
<glyph name="a.alt2" format="2">
  <advance width="1240"/>
  <outline>
    <contour>
      <point x="974" y="0" type="line"/>
      <point x="1050" y="0" type="line"/>
      <point x="1050" y="802" type="line"/>
      <point x="861" y="1000" type="line"/>
      <point x="290" y="1000" type="line"/>
      <point x="270" y="902" type="line"/>
      <point x="815" y="902" type="line"/>
      <point x="934" y="772" type="line"/>
      <point x="934" y="176" type="line"/>
    </contour>
    <contour>
      <point x="415" y="-23" type="line"/>
      <point x="983" y="154" type="line"/>
      <point x="983" y="236" type="line"/>
      <point x="453" y="83" type="line"/>
      <point x="247" y="243" type="line"/>
      <point x="247" y="373" type="line"/>
      <point x="425" y="486" type="line"/>
      <point x="983" y="486" type="line"/>
      <point x="983" y="586" type="line"/>
      <point x="386" y="586" type="line"/>
      <point x="137" y="423" type="line"/>
      <point x="137" y="208" type="line"/>
    </contour>
  </outline>
</glyph>
<glyph name="abreve.alt1" format="2">
  <advance width="1240"/>
  <outline>
    <contour>
      <point x="974" y="0" type="line"/>
      <point x="1050" y="0" type="line"/>
      <point x="1050" y="802" type="line"/>
      <point x="861" y="1000" type="line"/>
      <point x="290" y="1000" type="line"/>
      <point x="270" y="902" type="line"/>
      <point x="815" y="902" type="line"/>
      <point x="934" y="772" type="line"/>
      <point x="934" y="176" type="line"/>
    </contour>
    <contour>
      <point x="415" y="-23" type="line"/>
      <point x="983" y="154" type="line"/>
      <point x="983" y="236" type="line"/>
      <point x="453" y="83" type="line"/>
      <point x="247" y="243" type="line"/>
      <point x="247" y="373" type="line"/>
      <point x="425" y="486" type="line"/>
      <point x="983" y="486" type="line"/>
      <point x="983" y="586" type="line"/>
      <point x="386" y="586" type="line"/>
      <point x="137" y="423" type="line"/>
      <point x="137" y="208" type="line"/>
    </contour>
    <contour>
      <point x="473" y="1267" type="line"/>
      <point x="767" y="1267" type="line"/>
      <point x="887" y="1414" type="line"/>
      <point x="887" y="1597" type="line"/>
      <point x="797" y="1597" type="line"/>
      <point x="797" y="1451" type="line"/>
      <point x="707" y="1355" type="line"/>
      <point x="533" y="1355" type="line"/>
      <point x="443" y="1451" type="line"/>
      <point x="443" y="1597" type="line"/>
      <point x="353" y="1597" type="line"/>
      <point x="353" y="1413" type="line"/>
    </contour>
  </outline>
</glyph>
<glyph name="acute.alt5" format="2">
  <advance width="1240"/>
  <outline>
    <contour>
      <point x="665" y="1274" type="line"/>
      <point x="556" y="1274" type="line"/>
      <point x="778" y="1597" type="line"/>
      <point x="918" y="1597" type="line"/>
    </contour>
  </outline>
</glyph>
<glyph name="acutecomb.alt1" format="2">
  <outline>
    <contour>
      <point x="665" y="1274" type="line"/>
      <point x="556" y="1274" type="line"/>
      <point x="778" y="1597" type="line"/>
      <point x="918" y="1597" type="line"/>
    </contour>
  </outline>
</glyph>
<glyph name="acutecomb.case" format="2">
  <outline>
    <contour>
      <point x="665" y="1650.191" type="line"/>
      <point x="556" y="1650.191" type="line"/>
      <point x="778" y="1883.236" type="line"/>
      <point x="918" y="1883.236" type="line"/>
    </contour>
  </outline>
</glyph>
<glyph name="adieresis.alt5" format="2">
  <advance width="1240"/>
  <outline>
    <contour>
      <point x="974" y="0" type="line"/>
      <point x="1050" y="0" type="line"/>
      <point x="1050" y="802" type="line"/>
      <point x="861" y="1000" type="line"/>
      <point x="290" y="1000" type="line"/>
      <point x="270" y="902" type="line"/>
      <point x="815" y="902" type="line"/>
      <point x="934" y="772" type="line"/>
      <point x="934" y="176" type="line"/>
    </contour>
    <contour>
      <point x="415" y="-23" type="line"/>
      <point x="983" y="154" type="line"/>
      <point x="983" y="236" type="line"/>
      <point x="453" y="83" type="line"/>
      <point x="247" y="243" type="line"/>
      <point x="247" y="373" type="line"/>
      <point x="425" y="486" type="line"/>
      <point x="983" y="486" type="line"/>
      <point x="983" y="586" type="line"/>
      <point x="386" y="586" type="line"/>
      <point x="137" y="423" type="line"/>
      <point x="137" y="208" type="line"/>
    </contour>
    <contour>
      <point x="373.6" y="1276" type="line"/>
      <point x="507.86" y="1406" type="line"/>
      <point x="373.6" y="1536" type="line"/>
      <point x="239.34" y="1406" type="line"/>
    </contour>
    <contour>
      <point x="866.6" y="1276" type="line"/>
      <point x="1000.86" y="1406" type="line"/>
      <point x="866.6" y="1536" type="line"/>
      <point x="732.34" y="1406" type="line"/>
    </contour>
  </outline>
</glyph>
<glyph name="agrave.alt1" format="2">
  <advance width="1240"/>
  <outline>
    <contour>
      <point x="974" y="0" type="line"/>
      <point x="1050" y="0" type="line"/>
      <point x="1050" y="802" type="line"/>
      <point x="861" y="1000" type="line"/>
      <point x="290" y="1000" type="line"/>
      <point x="270" y="902" type="line"/>
      <point x="815" y="902" type="line"/>
      <point x="934" y="772" type="line"/>
      <point x="934" y="176" type="line"/>
    </contour>
    <contour>
      <point x="415" y="-23" type="line"/>
      <point x="983" y="154" type="line"/>
      <point x="983" y="236" type="line"/>
      <point x="453" y="83" type="line"/>
      <point x="247" y="243" type="line"/>
      <point x="247" y="373" type="line"/>
      <point x="425" y="486" type="line"/>
      <point x="983" y="486" type="line"/>
      <point x="983" y="586" type="line"/>
      <point x="386" y="586" type="line"/>
      <point x="137" y="423" type="line"/>
      <point x="137" y="208" type="line"/>
    </contour>
    <contour>
      <point x="575" y="1274" type="line"/>
      <point x="684" y="1274" type="line"/>
      <point x="462" y="1597" type="line"/>
      <point x="322" y="1597" type="line"/>
    </contour>
  </outline>
</glyph>
<glyph name="anticlockwiseOpenCircleArrow.alt1" format="2">
  <advance width="1240"/>
  <outline>
    <contour>
      <point x="585" y="1355" type="line"/>
      <point x="583" y="785" type="line"/>
      <point x="698" y="785" type="line"/>
      <point x="695" y="1280" type="line"/>
      <point x="660" y="1245" type="line"/>
      <point x="1165" y="1242" type="line"/>
      <point x="1165" y="1357" type="line"/>
    </contour>
    <contour>
      <point x="623" y="1114" type="line"/>
      <point x="777" y="1183" type="line"/>
      <point x="847" y="1337" type="line"/>
      <point x="691" y="1269" type="line"/>
    </contour>
    <contour>
      <point x="598" y="1188" type="line"/>
      <point x="835" y="1127"/>
      <point x="1069" y="966"/>
      <point x="1069" y="651" type="curve" smooth="yes"/>
      <point x="1069" y="391"/>
      <point x="900" y="190"/>
      <point x="620" y="190" type="curve" smooth="yes"/>
      <point x="340" y="190"/>
      <point x="171" y="391"/>
      <point x="171" y="651" type="curve" smooth="yes"/>
      <point x="171" y="783"/>
      <point x="214" y="881"/>
      <point x="275" y="964" type="curve"/>
      <point x="176" y="1028" type="line"/>
      <point x="101" y="932"/>
      <point x="50" y="810"/>
      <point x="50" y="651" type="curve" smooth="yes"/>
      <point x="50" y="331"/>
      <point x="260" y="78"/>
      <point x="620" y="78" type="curve" smooth="yes"/>
      <point x="980" y="78"/>
      <point x="1190" y="331"/>
      <point x="1190" y="651" type="curve" smooth="yes"/>
      <point x="1190" y="1026"/>
      <point x="916" y="1226"/>
      <point x="627" y="1286" type="curve"/>
    </contour>
  </outline>
</glyph>
<glyph name="approxequal.alt1" format="2">
  <advance width="1240"/>
  <outline>
    <contour>
      <point x="841" y="739" type="curve" smooth="yes"/>
      <point x="976" y="739"/>
      <point x="1074" y="829"/>
      <point x="1099" y="1108" type="curve"/>
      <point x="986" y="1122" type="line"/>
      <point x="962" y="924"/>
      <point x="918" y="855"/>
      <point x="837" y="855" type="curve" smooth="yes"/>
      <point x="670" y="855"/>
      <point x="641" y="1149"/>
      <point x="400" y="1149" type="curve" smooth="yes"/>
      <point x="266" y="1149"/>
      <point x="166" y="1059"/>
      <point x="141" y="780" type="curve"/>
      <point x="254" y="766" type="line"/>
      <point x="278" y="964"/>
      <point x="323" y="1033"/>
      <point x="404" y="1033" type="curve" smooth="yes"/>
      <point x="571" y="1033"/>
      <point x="599" y="739"/>
    </contour>
    <contour>
      <point x="841" y="141" type="curve" smooth="yes"/>
      <point x="976" y="141"/>
      <point x="1074" y="231"/>
      <point x="1099" y="510" type="curve"/>
      <point x="986" y="524" type="line"/>
      <point x="962" y="326"/>
      <point x="918" y="257"/>
      <point x="837" y="257" type="curve" smooth="yes"/>
      <point x="670" y="257"/>
      <point x="641" y="551"/>
      <point x="400" y="551" type="curve" smooth="yes"/>
      <point x="266" y="551"/>
      <point x="166" y="461"/>
      <point x="141" y="182" type="curve"/>
      <point x="254" y="168" type="line"/>
      <point x="278" y="366"/>
      <point x="323" y="435"/>
      <point x="404" y="435" type="curve" smooth="yes"/>
      <point x="571" y="435"/>
      <point x="599" y="141"/>
    </contour>
  </outline>
</glyph>
<glyph name="aring.alt5" format="2">
  <advance width="1240"/>
  <outline>
    <contour>
      <point x="974" y="0" type="line"/>
      <point x="1050" y="0" type="line"/>
      <point x="1050" y="802" type="line"/>
      <point x="861" y="1000" type="line"/>
      <point x="290" y="1000" type="line"/>
      <point x="270" y="902" type="line"/>
      <point x="815" y="902" type="line"/>
      <point x="934" y="772" type="line"/>
      <point x="934" y="176" type="line"/>
    </contour>
    <contour>
      <point x="415" y="-23" type="line"/>
      <point x="983" y="154" type="line"/>
      <point x="983" y="236" type="line"/>
      <point x="453" y="83" type="line"/>
      <point x="247" y="243" type="line"/>
      <point x="247" y="373" type="line"/>
      <point x="425" y="486" type="line"/>
      <point x="983" y="486" type="line"/>
      <point x="983" y="586" type="line"/>
      <point x="386" y="586" type="line"/>
      <point x="137" y="423" type="line"/>
      <point x="137" y="208" type="line"/>
    </contour>
    <contour>
      <point x="533" y="1215" type="line"/>
      <point x="707" y="1215" type="line"/>
      <point x="847" y="1372" type="line"/>
      <point x="847" y="1506" type="line"/>
      <point x="707" y="1662" type="line"/>
      <point x="533" y="1662" type="line"/>
      <point x="393" y="1505" type="line"/>
      <point x="393" y="1371" type="line"/>
    </contour>
    <contour>
      <point x="487" y="1409" type="line"/>
      <point x="487" y="1468" type="line"/>
      <point x="580" y="1574" type="line"/>
      <point x="660" y="1574" type="line"/>
      <point x="753" y="1468" type="line"/>
      <point x="753" y="1409" type="line"/>
      <point x="660" y="1303" type="line"/>
      <point x="580" y="1303" type="line"/>
    </contour>
  </outline>
</glyph>
<glyph name="asciicircum.alt1" format="2">
  <advance width="1240"/>
  <outline>
    <contour>
      <point x="122" y="750" type="line"/>
      <point x="218" y="696" type="line"/>
      <point x="614" y="1383" type="line"/>
      <point x="627" y="1383" type="line"/>
      <point x="1023" y="696" type="line"/>
      <point x="1119" y="750" type="line"/>
      <point x="669" y="1530" type="line"/>
      <point x="572" y="1530" type="line"/>
    </contour>
  </outline>
</glyph>
<glyph name="atilde.alt1" format="2">
  <advance width="1240"/>
  <outline>
    <contour>
      <point x="974" y="0" type="line"/>
      <point x="1050" y="0" type="line"/>
      <point x="1050" y="802" type="line"/>
      <point x="861" y="1000" type="line"/>
      <point x="290" y="1000" type="line"/>
      <point x="270" y="902" type="line"/>
      <point x="815" y="902" type="line"/>
      <point x="934" y="772" type="line"/>
      <point x="934" y="176" type="line"/>
    </contour>
    <contour>
      <point x="415" y="-23" type="line"/>
      <point x="983" y="154" type="line"/>
      <point x="983" y="236" type="line"/>
      <point x="453" y="83" type="line"/>
      <point x="247" y="243" type="line"/>
      <point x="247" y="373" type="line"/>
      <point x="425" y="486" type="line"/>
      <point x="983" y="486" type="line"/>
      <point x="983" y="586" type="line"/>
      <point x="386" y="586" type="line"/>
      <point x="137" y="423" type="line"/>
      <point x="137" y="208" type="line"/>
    </contour>
    <contour>
      <point x="575" y="1577" type="line"/>
      <point x="397" y="1577" type="line"/>
      <point x="277" y="1419" type="line"/>
      <point x="277" y="1267" type="line"/>
      <point x="367" y="1267" type="line"/>
      <point x="367" y="1388" type="line"/>
      <point x="445" y="1489" type="line"/>
      <point x="518" y="1489" type="line"/>
      <point x="673" y="1267" type="line"/>
      <point x="851" y="1267" type="line"/>
      <point x="971" y="1425" type="line"/>
      <point x="971" y="1577" type="line"/>
      <point x="881" y="1577" type="line"/>
      <point x="881" y="1456" type="line"/>
      <point x="803" y="1355" type="line"/>
      <point x="730" y="1355" type="line"/>
    </contour>
  </outline>
</glyph>
<glyph name="b.alt" format="2">
  <advance width="1240"/>
  <outline>
    <contour>
      <point x="201" y="0" type="line"/>
      <point x="315" y="0" type="line"/>
      <point x="315" y="853" type="line"/>
      <point x="325" y="867" type="line"/>
      <point x="325" y="1530" type="line"/>
      <point x="201" y="1510" type="line"/>
    </contour>
    <contour>
      <point x="278" y="0" type="line"/>
      <point x="763" y="0" type="line"/>
      <point x="1065" y="308" type="line"/>
      <point x="1065" y="772" type="line"/>
      <point x="774" y="1023" type="line"/>
      <point x="278" y="864" type="line"/>
      <point x="278" y="776" type="line"/>
      <point x="736" y="901" type="line"/>
      <point x="942" y="731" type="line"/>
      <point x="942" y="341" type="line"/>
      <point x="704" y="94" type="line"/>
      <point x="278" y="94" type="line"/>
    </contour>
  </outline>
</glyph>
<glyph name="backslash.alt1" format="2">
  <advance width="1240"/>
  <outline>
    <contour>
      <point x="944" y="-200" type="line"/>
      <point x="200" y="1460" type="line"/>
      <point x="336" y="1460" type="line"/>
      <point x="1080" y="-200" type="line"/>
    </contour>
  </outline>
</glyph>
<glyph name="backslash.alt5" format="2">
  <advance width="1240"/>
  <outline>
    <contour>
      <point x="944" y="-200" type="line"/>
      <point x="200" y="1460" type="line"/>
      <point x="336" y="1460" type="line"/>
      <point x="1080" y="-200" type="line"/>
    </contour>
  </outline>
</glyph>
<glyph name="bowl.alt5" format="2">
  <advance width="1230"/>
  <outline>
    <contour>
      <point x="259" y="0" type="line"/>
      <point x="744" y="0" type="line"/>
      <point x="1046" y="308" type="line"/>
      <point x="1046" y="772" type="line"/>
      <point x="755" y="1023" type="line"/>
      <point x="259" y="864" type="line"/>
      <point x="259" y="776" type="line"/>
      <point x="717" y="901" type="line"/>
      <point x="923" y="731" type="line"/>
      <point x="923" y="341" type="line"/>
      <point x="685" y="94" type="line"/>
      <point x="259" y="94" type="line"/>
    </contour>
  </outline>
</glyph>
<glyph name="braceleft.alt1" format="2">
  <advance width="1240"/>
  <outline>
    <contour>
      <point x="263" y="592" type="line"/>
      <point x="571" y="592"/>
      <point x="769" y="740"/>
      <point x="679" y="1069" type="curve" smooth="yes"/>
      <point x="655" y="1157" type="line" smooth="yes"/>
      <point x="581" y="1429"/>
      <point x="689" y="1502"/>
      <point x="861" y="1502" type="curve" smooth="yes"/>
      <point x="1096" y="1502" type="line"/>
      <point x="1096" y="1602" type="line"/>
      <point x="838" y="1602" type="line" smooth="yes"/>
      <point x="559" y="1602"/>
      <point x="443" y="1438"/>
      <point x="532" y="1141" type="curve" smooth="yes"/>
      <point x="555" y="1064" type="line" smooth="yes"/>
      <point x="630" y="813"/>
      <point x="509" y="670"/>
      <point x="144" y="665" type="curve"/>
      <point x="144" y="537" type="line"/>
      <point x="509" y="532"/>
      <point x="630" y="389"/>
      <point x="555" y="138" type="curve" smooth="yes"/>
      <point x="532" y="61" type="line" smooth="yes"/>
      <point x="443" y="-236"/>
      <point x="559" y="-400"/>
      <point x="838" y="-400" type="curve" smooth="yes"/>
      <point x="1096" y="-400" type="line"/>
      <point x="1096" y="-300" type="line"/>
      <point x="861" y="-300" type="line" smooth="yes"/>
      <point x="689" y="-300"/>
      <point x="581" y="-227"/>
      <point x="655" y="45" type="curve" smooth="yes"/>
      <point x="679" y="133" type="line" smooth="yes"/>
      <point x="769" y="463"/>
      <point x="571" y="610"/>
      <point x="263" y="610" type="curve"/>
    </contour>
  </outline>
</glyph>
<glyph name="braceright.alt1" format="2">
  <advance width="1240"/>
  <outline>
    <contour>
      <point x="977" y="592" type="curve"/>
      <point x="977" y="610" type="line"/>
      <point x="669" y="610"/>
      <point x="471" y="463"/>
      <point x="561" y="133" type="curve" smooth="yes"/>
      <point x="585" y="45" type="line" smooth="yes"/>
      <point x="659" y="-227"/>
      <point x="551" y="-300"/>
      <point x="379" y="-300" type="curve" smooth="yes"/>
      <point x="144" y="-300" type="line"/>
      <point x="144" y="-400" type="line"/>
      <point x="402" y="-400" type="line" smooth="yes"/>
      <point x="681" y="-400"/>
      <point x="797" y="-236"/>
      <point x="708" y="61" type="curve" smooth="yes"/>
      <point x="685" y="138" type="line" smooth="yes"/>
      <point x="610" y="389"/>
      <point x="731" y="532"/>
      <point x="1096" y="537" type="curve"/>
      <point x="1096" y="665" type="line"/>
      <point x="731" y="670"/>
      <point x="610" y="813"/>
      <point x="685" y="1064" type="curve" smooth="yes"/>
      <point x="708" y="1141" type="line" smooth="yes"/>
      <point x="797" y="1438"/>
      <point x="681" y="1602"/>
      <point x="402" y="1602" type="curve" smooth="yes"/>
      <point x="144" y="1602" type="line"/>
      <point x="144" y="1502" type="line"/>
      <point x="379" y="1502" type="line" smooth="yes"/>
      <point x="551" y="1502"/>
      <point x="659" y="1429"/>
      <point x="585" y="1157" type="curve" smooth="yes"/>
      <point x="561" y="1069" type="line" smooth="yes"/>
      <point x="471" y="740"/>
      <point x="669" y="592"/>
    </contour>
  </outline>
</glyph>
<glyph name="bracketleft.alt1" format="2">
  <advance width="1240"/>
  <outline>
    <contour>
      <point x="367" y="-400" type="line"/>
      <point x="993" y="-400" type="line"/>
      <point x="993" y="-300" type="line"/>
      <point x="448" y="-300" type="line"/>
      <point x="493" y="-335" type="line"/>
      <point x="493" y="1537" type="line"/>
      <point x="448" y="1502" type="line"/>
      <point x="993" y="1502" type="line"/>
      <point x="993" y="1602" type="line"/>
      <point x="367" y="1602" type="line"/>
    </contour>
  </outline>
</glyph>
<glyph name="bracketleft.alt5" format="2">
  <advance width="1240"/>
  <outline>
    <contour>
      <point x="367" y="-400" type="line"/>
      <point x="993" y="-400" type="line"/>
      <point x="993" y="-300" type="line"/>
      <point x="448" y="-300" type="line"/>
      <point x="493" y="-335" type="line"/>
      <point x="493" y="1537" type="line"/>
      <point x="448" y="1502" type="line"/>
      <point x="993" y="1502" type="line"/>
      <point x="993" y="1602" type="line"/>
      <point x="367" y="1602" type="line"/>
    </contour>
  </outline>
</glyph>
<glyph name="bracketright.alt5" format="2">
  <advance width="1240"/>
  <outline>
    <contour>
      <point x="873" y="-400" type="line"/>
      <point x="873" y="1602" type="line"/>
      <point x="247" y="1602" type="line"/>
      <point x="247" y="1502" type="line"/>
      <point x="792" y="1502" type="line"/>
      <point x="747" y="1537" type="line"/>
      <point x="747" y="-335" type="line"/>
      <point x="792" y="-300" type="line"/>
      <point x="247" y="-300" type="line"/>
      <point x="247" y="-400" type="line"/>
    </contour>
  </outline>
</glyph>
<glyph name="breve.alt1" format="2">
  <advance width="1240"/>
  <outline>
    <contour>
      <point x="473" y="1267" type="line"/>
      <point x="767" y="1267" type="line"/>
      <point x="887" y="1414" type="line"/>
      <point x="887" y="1597" type="line"/>
      <point x="797" y="1597" type="line"/>
      <point x="797" y="1451" type="line"/>
      <point x="707" y="1355" type="line"/>
      <point x="533" y="1355" type="line"/>
      <point x="443" y="1451" type="line"/>
      <point x="443" y="1597" type="line"/>
      <point x="353" y="1597" type="line"/>
      <point x="353" y="1413" type="line"/>
    </contour>
  </outline>
</glyph>
<glyph name="brevecomb.case" format="2">
  <outline>
    <contour>
      <point x="473" y="1643" type="line"/>
      <point x="767" y="1643" type="line"/>
      <point x="887" y="1760" type="line"/>
      <point x="887" y="1883" type="line"/>
      <point x="797" y="1883" type="line"/>
      <point x="797" y="1797" type="line"/>
      <point x="727" y="1731" type="line"/>
      <point x="513" y="1731" type="line"/>
      <point x="443" y="1797" type="line"/>
      <point x="443" y="1883" type="line"/>
      <point x="353" y="1883" type="line"/>
      <point x="353" y="1759" type="line"/>
    </contour>
  </outline>
</glyph>
<glyph name="c.alt" format="2">
  <advance width="1240"/>
  <outline>
    <contour>
      <point x="490" y="0" type="line"/>
      <point x="1030" y="0" type="line"/>
      <point x="1050" y="98" type="line"/>
      <point x="536" y="98" type="line"/>
      <point x="276" y="360" type="line"/>
      <point x="276" y="640" type="line"/>
      <point x="536" y="902" type="line"/>
      <point x="1050" y="902" type="line"/>
      <point x="1030" y="1000" type="line"/>
      <point x="490" y="1000" type="line"/>
      <point x="160" y="670" type="line"/>
      <point x="160" y="330" type="line"/>
    </contour>
  </outline>
</glyph>
<glyph name="caroncomb.alt" format="2">
  <outline>
    <contour>
      <point x="893" y="1282" type="line"/>
      <point x="990" y="1282" type="line"/>
      <point x="1031" y="1618" type="line"/>
      <point x="910" y="1618" type="line"/>
    </contour>
  </outline>
</glyph>
<glyph name="caroncomb.case" format="2">
  <outline>
    <contour>
      <point x="298" y="1883" type="line"/>
      <point x="429" y="1883" type="line"/>
      <point x="648" y="1679" type="line"/>
      <point x="592" y="1679" type="line"/>
      <point x="811" y="1883" type="line"/>
      <point x="942" y="1883" type="line"/>
      <point x="678" y="1650" type="line"/>
      <point x="562" y="1650" type="line"/>
    </contour>
  </outline>
</glyph>
<glyph name="ccedilla.alt5" format="2">
  <advance width="1240"/>
  <outline>
    <contour>
      <point x="490" y="0" type="line"/>
      <point x="1030" y="0" type="line"/>
      <point x="1050" y="98" type="line"/>
      <point x="536" y="98" type="line"/>
      <point x="276" y="360" type="line"/>
      <point x="276" y="640" type="line"/>
      <point x="536" y="902" type="line"/>
      <point x="1050" y="902" type="line"/>
      <point x="1030" y="1000" type="line"/>
      <point x="490" y="1000" type="line"/>
      <point x="160" y="670" type="line"/>
      <point x="160" y="330" type="line"/>
    </contour>
    <contour>
      <point x="594" y="-565" type="line"/>
      <point x="778" y="-565" type="line"/>
      <point x="914" y="-455" type="line"/>
      <point x="914" y="-279" type="line"/>
      <point x="777" y="-169" type="line"/>
      <point x="709" y="-169" type="line"/>
      <point x="728" y="-196" type="line"/>
      <point x="728" y="48" type="line"/>
      <point x="634" y="48" type="line"/>
      <point x="634" y="-259" type="line"/>
      <point x="740" y="-259" type="line"/>
      <point x="826" y="-329" type="line"/>
      <point x="826" y="-405" type="line"/>
      <point x="740" y="-475" type="line"/>
      <point x="594" y="-475" type="line"/>
    </contour>
  </outline>
</glyph>
<glyph name="ccircumflex.alt5" format="2">
  <advance width="1240"/>
  <outline>
    <contour>
      <point x="490" y="0" type="line"/>
      <point x="1030" y="0" type="line"/>
      <point x="1050" y="98" type="line"/>
      <point x="536" y="98" type="line"/>
      <point x="276" y="360" type="line"/>
      <point x="276" y="640" type="line"/>
      <point x="536" y="902" type="line"/>
      <point x="1050" y="902" type="line"/>
      <point x="1030" y="1000" type="line"/>
      <point x="490" y="1000" type="line"/>
      <point x="160" y="670" type="line"/>
      <point x="160" y="330" type="line"/>
    </contour>
    <contour>
      <point x="338" y="1274" type="line"/>
      <point x="459" y="1274" type="line"/>
      <point x="688" y="1562" type="line"/>
      <point x="632" y="1562" type="line"/>
      <point x="861" y="1274" type="line"/>
      <point x="982" y="1274" type="line"/>
      <point x="708" y="1597" type="line"/>
      <point x="612" y="1597" type="line"/>
    </contour>
  </outline>
</glyph>
<glyph name="cdotaccent.alt1" format="2">
  <advance width="1240"/>
  <outline>
    <contour>
      <point x="490" y="0" type="line"/>
      <point x="1030" y="0" type="line"/>
      <point x="1050" y="98" type="line"/>
      <point x="536" y="98" type="line"/>
      <point x="276" y="360" type="line"/>
      <point x="276" y="640" type="line"/>
      <point x="536" y="902" type="line"/>
      <point x="1050" y="902" type="line"/>
      <point x="1030" y="1000" type="line"/>
      <point x="490" y="1000" type="line"/>
      <point x="160" y="670" type="line"/>
      <point x="160" y="330" type="line"/>
    </contour>
    <contour>
      <point x="660" y="1276" type="line"/>
      <point x="797" y="1406" type="line"/>
      <point x="660" y="1536" type="line"/>
      <point x="523" y="1406" type="line"/>
    </contour>
  </outline>
</glyph>
<glyph name="circumflex.alt1" format="2">
  <advance width="1240"/>
  <outline>
    <contour>
      <point x="298" y="1274" type="line"/>
      <point x="419" y="1274" type="line"/>
      <point x="648" y="1562" type="line"/>
      <point x="592" y="1562" type="line"/>
      <point x="821" y="1274" type="line"/>
      <point x="942" y="1274" type="line"/>
      <point x="668" y="1597" type="line"/>
      <point x="572" y="1597" type="line"/>
    </contour>
  </outline>
</glyph>
<glyph name="circumflexcomb.alt5" format="2">
  <outline>
    <contour>
      <point x="298" y="1274" type="line"/>
      <point x="419" y="1274" type="line"/>
      <point x="648" y="1562" type="line"/>
      <point x="592" y="1562" type="line"/>
      <point x="821" y="1274" type="line"/>
      <point x="942" y="1274" type="line"/>
      <point x="668" y="1597" type="line"/>
      <point x="572" y="1597" type="line"/>
    </contour>
  </outline>
</glyph>
<glyph name="commaaccentcomb.alt1" format="2">
  <outline>
    <contour>
      <point x="527" y="-527" type="line"/>
      <point x="680" y="-527" type="line"/>
      <point x="680" y="-471" type="line"/>
      <point x="498" y="-707" type="line"/>
      <point x="573" y="-747" type="line"/>
      <point x="742" y="-527" type="line"/>
      <point x="742" y="-312" type="line"/>
      <point x="527" y="-312" type="line"/>
    </contour>
  </outline>
</glyph>
<glyph name="commaaccentcomb.alt5" format="2">
  <outline>
    <contour>
      <point x="527" y="-527" type="line"/>
      <point x="680" y="-527" type="line"/>
      <point x="680" y="-471" type="line"/>
      <point x="498" y="-707" type="line"/>
      <point x="573" y="-747" type="line"/>
      <point x="742" y="-527" type="line"/>
      <point x="742" y="-312" type="line"/>
      <point x="527" y="-312" type="line"/>
    </contour>
  </outline>
</glyph>
<glyph name="d.alt5" format="2">
  <advance width="1240"/>
  <outline>
    <contour>
      <point x="949" y="0" type="line"/>
      <point x="1039" y="0" type="line"/>
      <point x="1039" y="1530" type="line"/>
      <point x="915" y="1510" type="line"/>
      <point x="915" y="974" type="line"/>
      <point x="925" y="943" type="line"/>
      <point x="925" y="136" type="line"/>
    </contour>
    <contour>
      <point x="962" y="1000" type="line"/>
      <point x="477" y="1000" type="line"/>
      <point x="175" y="692" type="line"/>
      <point x="175" y="228" type="line"/>
      <point x="466" y="-23" type="line"/>
      <point x="962" y="136" type="line"/>
      <point x="962" y="224" type="line"/>
      <point x="504" y="99" type="line"/>
      <point x="298" y="269" type="line"/>
      <point x="298" y="659" type="line"/>
      <point x="536" y="906" type="line"/>
      <point x="962" y="906" type="line"/>
    </contour>
  </outline>
</glyph>
<glyph name="dagger.alt5" format="2">
  <advance width="1240"/>
  <outline>
    <contour>
      <point x="683" y="-200" type="line"/>
      <point x="683" y="1460" type="line"/>
      <point x="557" y="1460" type="line"/>
      <point x="557" y="-200" type="line"/>
    </contour>
    <contour>
      <point x="167" y="900" type="line"/>
      <point x="1073" y="900" type="line"/>
      <point x="1073" y="1010" type="line"/>
      <point x="167" y="1010" type="line"/>
    </contour>
  </outline>
</glyph>
<glyph name="dcroat.alt5" format="2">
  <advance width="1240"/>
  <outline>
    <contour>
      <point x="452" y="1231" type="line"/>
      <point x="1172" y="1231" type="line"/>
      <point x="1172" y="1330" type="line"/>
      <point x="972" y="1330" type="line"/>
      <point x="943" y="1330" type="line"/>
      <point x="452" y="1330" type="line"/>
    </contour>
    <contour>
      <point x="949" y="0" type="line"/>
      <point x="1039" y="0" type="line"/>
      <point x="1039" y="1530" type="line"/>
      <point x="915" y="1510" type="line"/>
      <point x="915" y="934" type="line"/>
      <point x="925" y="903" type="line"/>
      <point x="925" y="136" type="line"/>
    </contour>
    <contour>
      <point x="962" y="960" type="line"/>
      <point x="477" y="960" type="line"/>
      <point x="175" y="652" type="line"/>
      <point x="175" y="228" type="line"/>
      <point x="466" y="-23" type="line"/>
      <point x="962" y="136" type="line"/>
      <point x="962" y="224" type="line"/>
      <point x="504" y="99" type="line"/>
      <point x="298" y="269" type="line"/>
      <point x="298" y="619" type="line"/>
      <point x="536" y="866" type="line"/>
      <point x="962" y="866" type="line"/>
    </contour>
  </outline>
</glyph>
